<svg width="104" height="94" viewBox="0 0 104 94" fill="none" xmlns="http://www.w3.org/2000/svg">
<path d="M37.7671 63.6543C37.7671 63.8394 37.7251 64.0161 37.6409 64.1844C37.3044 64.3695 36.951 64.4957 36.5807 64.563C36.2273 64.6472 35.8739 64.6892 35.5206 64.6892C35.3523 64.6892 35.1672 64.6808 34.9652 64.664C34.7801 64.664 34.6118 64.6472 34.4604 64.6135C34.4099 64.5967 34.351 64.563 34.2837 64.5125C34.2164 64.4621 34.1491 64.4368 34.0817 64.4368C33.9135 64.4368 33.7536 64.4621 33.6021 64.5125C33.4507 64.5799 33.2908 64.6135 33.1225 64.6135C33.0384 64.6135 32.9542 64.5883 32.8701 64.5378C32.8028 64.4873 32.7271 64.4536 32.6429 64.4368C32.5251 64.4032 32.4073 64.3947 32.2895 64.4116C32.1717 64.4284 32.0455 64.4368 31.9109 64.4368C31.7258 64.4368 31.5575 64.4116 31.406 64.3611C31.2714 64.3106 31.1452 64.218 31.0274 64.0834C30.6067 64.0329 30.1944 63.9488 29.7905 63.831C29.3866 63.73 28.9828 63.6122 28.5789 63.4776C28.175 63.3598 27.7711 63.242 27.3673 63.1242C26.9634 63.0232 26.5511 62.9559 26.1304 62.9223C26.0294 62.8045 25.9116 62.7119 25.777 62.6446C25.6424 62.5941 25.5414 62.5016 25.4741 62.3669C25.3899 62.3669 25.331 62.3754 25.2974 62.3922C25.2637 62.4258 25.2048 62.4427 25.1207 62.4427C24.8346 62.2071 24.5233 62.0051 24.1867 61.8368C23.867 61.6686 23.5304 61.5087 23.177 61.3572C22.8405 61.2058 22.5039 61.0459 22.1673 60.8776C21.8476 60.7262 21.5447 60.5242 21.2586 60.2718H21.1324C20.9978 60.2886 20.88 60.255 20.779 60.1708C20.6948 60.1035 20.5855 60.0699 20.4508 60.0699C20.3667 60.0699 20.2994 60.0783 20.2489 60.0951C20.1984 59.9605 20.1227 59.8511 20.0217 59.767C19.9207 59.6828 19.8114 59.5987 19.6936 59.5145C19.5926 59.4472 19.4916 59.3715 19.3907 59.2874C19.2897 59.22 19.214 59.1275 19.1635 59.0097C18.7428 58.8582 18.3305 58.6731 17.9266 58.4544C17.5395 58.2524 17.1946 57.9832 16.8917 57.6466C16.5551 57.6129 16.2774 57.512 16.0587 57.3437C15.8399 57.1586 15.6379 56.9314 15.4528 56.6622C15.049 56.5275 14.6787 56.3508 14.3422 56.1321C14.0056 55.9133 13.669 55.6861 13.3325 55.4505C13.0127 55.2149 12.6678 55.0046 12.2975 54.8195C11.9441 54.6175 11.5403 54.4745 11.0859 54.3903C11.0691 54.2725 11.0186 54.1884 10.9344 54.1379C10.8503 54.0706 10.7493 54.0201 10.6315 53.9865C10.5306 53.936 10.4296 53.8939 10.3286 53.8602C10.2277 53.8266 10.1519 53.7593 10.1014 53.6583C10.051 53.6583 10.0005 53.6583 9.94999 53.6583C9.89951 53.6415 9.84902 53.6331 9.79854 53.6331C9.74805 53.6331 9.68915 53.6415 9.62184 53.6583C9.57136 53.6583 9.52087 53.6583 9.47039 53.6583L9.49563 53.5826C9.49563 53.5153 9.47039 53.4732 9.4199 53.4564C9.38625 53.4395 9.33576 53.4227 9.26845 53.4059C9.20113 53.3891 9.14224 53.3638 9.09175 53.3302C9.04127 53.2965 9.01602 53.2208 9.01602 53.103H8.9403C8.75519 53.103 8.5869 53.0693 8.43545 53.002C8.28399 52.9347 8.11571 52.8842 7.9306 52.8505C7.89694 53.0357 7.88012 53.2124 7.88012 53.3806V53.835C7.88012 54.5923 7.96426 55.3916 8.13254 56.233C8.30082 57.0576 8.56166 57.7981 8.91505 58.4544C9.26845 58.589 9.57136 58.7657 9.82378 58.9845C10.0762 59.2032 10.3202 59.4556 10.5558 59.7417C10.5726 60.1961 10.4044 60.5747 10.051 60.8776C9.7144 61.1974 9.31893 61.3572 8.86457 61.3572C8.61215 61.3572 8.37655 61.2899 8.15778 61.1553C7.95584 61.0375 7.78756 60.8608 7.65293 60.6252C7.55196 60.6252 7.45941 60.642 7.37527 60.6757C7.29113 60.7262 7.19016 60.7514 7.07236 60.7514C7.02187 60.7514 6.97139 60.743 6.9209 60.7262C6.75262 60.4401 6.58434 60.1877 6.41606 59.9689C6.2646 59.7501 6.16363 59.4556 6.11315 59.0854C5.92804 59.0013 5.81024 58.8498 5.75975 58.6311C5.7261 58.4123 5.63354 58.2356 5.48209 58.101C5.41477 57.3437 5.32222 56.5864 5.20442 55.8292C5.10345 55.0719 5.05297 54.3146 5.05297 53.5573C5.05297 53.3891 5.06138 53.2208 5.07821 53.0525C5.09504 52.8674 5.11186 52.6823 5.12869 52.4972C5.09504 52.413 5.04455 52.3373 4.97724 52.27C4.92675 52.1858 4.88468 52.1017 4.85103 52.0175C4.51446 52.1017 4.16107 52.1858 3.79084 52.27C3.43745 52.3373 3.07564 52.3709 2.70542 52.3709C2.46983 52.3709 2.18374 52.3373 1.84718 52.27C1.51061 52.1858 1.24978 52.0764 1.06466 51.9418C0.930038 51.8577 0.837483 51.7062 0.786998 51.4875C0.719685 51.2519 0.686028 51.0499 0.686028 50.8816C0.686028 50.5956 0.736513 50.3095 0.837483 50.0234C0.938452 49.7205 1.07308 49.4597 1.24136 49.2409C2.06595 48.9043 2.83163 48.492 3.53842 48.004C4.26204 47.516 4.96882 46.9859 5.65878 46.4137C5.67561 46.2455 5.70085 46.0772 5.73451 45.9089C5.785 45.7406 5.81024 45.5639 5.81024 45.3788C5.81024 45.1769 5.75975 44.9833 5.65878 44.7982C5.75975 44.6972 5.81024 44.571 5.81024 44.4196C5.81024 44.2513 5.85231 44.0998 5.93645 43.9652V43.8138C5.93645 43.7465 5.92804 43.6791 5.91121 43.6118C5.91121 43.5445 5.88596 43.4772 5.83548 43.4099C5.95328 42.7536 6.04583 42.1057 6.11315 41.4662C6.18046 40.8099 6.21412 40.1368 6.21412 39.4468C6.21412 39.3963 6.23936 39.2617 6.28984 39.0429C6.35716 38.8074 6.39923 38.6475 6.41606 38.5633C6.48337 38.1763 6.52544 37.7977 6.54227 37.4274C6.57592 37.0404 6.61799 36.6533 6.66848 36.2663C6.68531 36.1317 6.71896 35.955 6.76945 35.7362C6.81993 35.5174 6.84518 35.366 6.84518 35.2818C6.84518 35.164 6.81993 35.0883 6.76945 35.0546C6.73579 35.0042 6.70214 34.9284 6.66848 34.8275C6.76945 34.4404 6.81993 34.0534 6.81993 33.6663C6.83676 33.2624 6.87042 32.867 6.9209 32.4799C7.20698 32.3621 7.43417 32.2443 7.60245 32.1265C7.77073 32.0087 8.01474 31.9498 8.33448 31.9498H8.38496C8.41862 32.1518 8.49435 32.3453 8.61215 32.5304C8.72994 32.6987 8.84774 32.8754 8.96554 33.0605C9.10017 33.2288 9.21796 33.3971 9.31893 33.5653C9.4199 33.7168 9.47039 33.8683 9.47039 34.0197C9.47039 34.3058 9.44514 34.6171 9.39466 34.9537C9.34418 35.2902 9.3021 35.6016 9.26845 35.8876C9.18431 36.6449 9.10858 37.3938 9.04127 38.1342C8.97395 38.8578 8.87298 39.5983 8.73836 40.3556C8.78884 40.5912 8.81408 40.8099 8.81408 41.0119C8.81408 41.3148 8.78884 41.6177 8.73836 41.9206C8.68787 42.2235 8.66263 42.5348 8.66263 42.8546C8.66263 43.006 8.67104 43.1659 8.68787 43.3342C8.72153 43.5024 8.77201 43.6539 8.83933 43.7885C9.41149 43.6371 9.92475 43.3257 10.3791 42.8546C10.4464 42.7872 10.5137 42.7031 10.5811 42.6021C10.6652 42.4843 10.7493 42.3918 10.8335 42.3245C11.0018 42.1898 11.1785 42.072 11.3636 41.9711C11.5655 41.8533 11.759 41.7355 11.9441 41.6177C12.3817 41.3316 12.8024 41.0371 13.2063 40.7342C13.627 40.4145 14.0477 40.1031 14.4684 39.8002C15.7137 38.8915 16.9169 37.9491 18.078 36.9731C19.256 35.9802 20.4004 34.9369 21.511 33.843C21.5615 33.5569 21.6625 33.3298 21.8139 33.1615C21.9654 32.9932 22.1 32.7912 22.2178 32.5557C22.5375 32.4379 22.8152 32.2612 23.0508 32.0256C23.1518 32.0592 23.2527 32.0845 23.3537 32.1013C23.4715 32.1013 23.5809 32.1013 23.6819 32.1013C23.7997 32.1013 23.909 32.1097 24.01 32.1265C24.1278 32.1265 24.2288 32.1518 24.3129 32.2023C24.3298 32.4547 24.355 32.6819 24.3887 32.8838C24.4223 33.0857 24.5233 33.2793 24.6916 33.4644C24.6916 33.498 24.6916 33.5317 24.6916 33.5653C24.7084 33.599 24.7168 33.6327 24.7168 33.6663C24.7168 33.8514 24.6663 34.0029 24.5653 34.1207C24.4644 34.2385 24.4055 34.3815 24.3887 34.5498L23.076 35.8624C22.6385 36.2999 22.2346 36.7711 21.8644 37.276C21.7298 37.2928 21.612 37.3349 21.511 37.4022C21.41 37.4695 21.3091 37.5452 21.2081 37.6294C21.124 37.6967 21.0314 37.764 20.9304 37.8313C20.8295 37.8986 20.7201 37.9491 20.6023 37.9828C20.2994 38.3866 19.9544 38.7569 19.5674 39.0934C19.1803 39.4132 18.7848 39.7245 18.381 40.0274C17.9771 40.3303 17.5732 40.6416 17.1693 40.9614C16.7823 41.2643 16.4205 41.6008 16.0839 41.9711C15.7305 42.1394 15.3855 42.3413 15.049 42.5769C14.7292 42.7957 14.4684 43.0733 14.2664 43.4099H14.1402C14.0561 43.4099 13.9888 43.4351 13.9383 43.4856C13.8878 43.5193 13.8205 43.5361 13.7364 43.5361C12.8276 44.327 11.8852 45.0759 10.9092 45.7827C9.93316 46.4726 8.9992 47.2299 8.1073 48.0545V48.6856C8.39338 48.8538 8.7047 49.0137 9.04127 49.1652C9.37783 49.2998 9.70598 49.4512 10.0257 49.6195C10.3623 49.7878 10.6736 49.9729 10.9597 50.1749C11.2626 50.36 11.5234 50.5871 11.7422 50.8564C11.7759 50.8396 11.8179 50.8312 11.8684 50.8312C12.0199 50.8312 12.1377 50.8816 12.2218 50.9826C12.306 51.0668 12.449 51.092 12.6509 51.0583C12.7182 51.3276 12.8697 51.5211 13.1053 51.6389C13.3409 51.7567 13.5765 51.8577 13.8121 51.9418C14.014 52.1438 14.1991 52.3373 14.3674 52.5224C14.5357 52.6907 14.7797 52.8001 15.0994 52.8505C15.1331 52.9179 15.1583 52.9936 15.1752 53.0777C15.192 53.1619 15.2257 53.2376 15.2761 53.3049C15.5959 53.4059 15.8988 53.5489 16.1849 53.734C16.4878 53.9191 16.7823 54.1127 17.0684 54.3146C17.3544 54.4997 17.6405 54.6848 17.9266 54.8699C18.2295 55.0382 18.5492 55.1729 18.8858 55.2738C18.9363 55.4421 19.0288 55.5599 19.1635 55.6272C19.3149 55.6945 19.4327 55.7955 19.5169 55.9301H19.9712C20.0217 56.0143 20.089 56.0984 20.1732 56.1825C20.2573 56.2499 20.3162 56.3508 20.3499 56.4855C20.4845 56.5191 20.6359 56.5696 20.8042 56.6369C20.9725 56.6874 21.124 56.7547 21.2586 56.8388C21.3091 56.8893 21.3427 56.9482 21.3596 57.0155C21.3932 57.0829 21.4437 57.1418 21.511 57.1922C21.612 57.2764 21.7634 57.3437 21.9654 57.3942C22.1841 57.4278 22.3693 57.4867 22.5207 57.5709C22.8236 57.7392 23.1181 57.9243 23.4042 58.1262C23.6903 58.345 23.9932 58.5469 24.3129 58.732L25.2974 59.2621C25.4657 59.3463 25.6171 59.4388 25.7517 59.5398C25.9032 59.6408 26.0547 59.7333 26.2061 59.8175C26.509 59.9521 26.8288 60.0362 27.1653 60.0699C27.5187 60.1204 27.8384 60.2129 28.1245 60.3475C28.2087 60.398 28.2676 60.4569 28.3012 60.5242C28.3349 60.6084 28.3938 60.6757 28.4779 60.7262C28.6125 60.8103 28.8229 60.8692 29.109 60.9029C29.3951 60.9365 29.6307 60.9954 29.8158 61.0796C30.0514 61.1805 30.2785 61.2731 30.4973 61.3572C30.7329 61.4582 30.9685 61.576 31.2041 61.7106C31.709 61.7443 32.2054 61.8032 32.6934 61.8873C33.1983 61.9715 33.6947 62.0556 34.1827 62.1398C34.6707 62.2239 35.1587 62.2996 35.6468 62.3669C36.1516 62.4343 36.6565 62.4595 37.1613 62.4427C37.1613 62.4763 37.1781 62.4931 37.2118 62.4931C37.2623 62.51 37.3044 62.5184 37.338 62.5184C37.4558 62.7035 37.5568 62.8886 37.6409 63.0737C37.7251 63.2588 37.7671 63.4524 37.7671 63.6543ZM27.8973 54.5418C27.8132 54.6764 27.7122 54.8026 27.5944 54.9204C27.4766 55.0214 27.3673 55.1308 27.2663 55.2486C27.1485 55.2991 27.0139 55.3243 26.8624 55.3243C26.7278 55.3243 26.5932 55.3243 26.4585 55.3243C26.3407 55.3075 26.2229 55.3075 26.1051 55.3243C26.0042 55.3243 25.92 55.358 25.8527 55.4253C25.7181 55.3916 25.6171 55.3327 25.5498 55.2486C25.4825 55.1476 25.3647 55.0887 25.1964 55.0719C25.1291 55.0551 25.0618 55.0551 24.9945 55.0719C24.742 54.7858 24.5064 54.4829 24.2877 54.1632C24.0857 53.8434 23.8922 53.5405 23.7071 53.2544C23.6903 52.6318 23.6398 52.0007 23.5557 51.3612C23.5388 51.2098 23.5136 51.0583 23.4799 50.9069C23.4463 50.7554 23.421 50.6124 23.4042 50.4778C23.4042 50.3095 23.4126 50.1496 23.4294 49.9982C23.4631 49.8299 23.4883 49.6784 23.5052 49.5438C23.5725 49.0558 23.6482 48.5762 23.7323 48.105C23.8165 47.6338 23.8922 47.1542 23.9595 46.6662C24.0268 46.2286 24.0605 45.7743 24.0605 45.3031C24.0605 44.815 23.9848 44.3607 23.8333 43.94L23.8081 43.8138C23.8417 43.6791 23.8754 43.5698 23.909 43.4856C23.9595 43.3846 23.9932 43.2753 24.01 43.1575C24.0437 42.9724 24.0016 42.8377 23.8838 42.7536C23.9343 42.619 24.0184 42.5348 24.1362 42.5012C24.254 42.4507 24.3213 42.3497 24.3382 42.1983C24.355 42.1309 24.355 42.0636 24.3382 41.9963C24.4728 41.9458 24.6074 41.9038 24.742 41.8701C24.8935 41.8196 25.0365 41.8112 25.1712 41.8449C25.3899 41.8785 25.5835 41.9542 25.7517 42.072C25.92 42.173 26.0799 42.2908 26.2313 42.4254C26.5006 43.2332 26.61 44.0914 26.5595 45.0002C26.509 45.8921 26.4249 46.7924 26.3071 47.7011C26.1893 48.6098 26.1135 49.5017 26.0799 50.3768C26.0462 51.235 26.1809 52.0344 26.4838 52.7748L26.5343 52.8001C26.6184 52.8169 26.6857 52.7916 26.7362 52.7243C26.7867 52.6402 26.854 52.6065 26.9381 52.6234C27.0054 52.657 27.0475 52.6739 27.0643 52.6739C27.1317 53.0104 27.241 53.3302 27.3925 53.6331C27.544 53.936 27.7122 54.2389 27.8973 54.5418ZM43.6486 54.8195C43.6486 55.1055 43.5729 55.358 43.4214 55.5767C43.2868 55.7787 43.2363 56.0311 43.27 56.334C43.0344 56.4686 42.8409 56.6453 42.6894 56.8641C42.5379 57.0829 42.3949 57.31 42.2603 57.5456C41.1496 58.2693 39.9548 58.8498 38.6759 59.2874C37.4137 59.7417 36.1095 59.9689 34.7633 59.9689C34.6791 59.9689 34.6034 59.9268 34.5361 59.8427C34.4688 59.7754 34.4015 59.6997 34.3342 59.6155C34.2668 59.5314 34.1911 59.4472 34.107 59.3631C34.0397 59.2958 33.9555 59.2621 33.8546 59.2621C33.7368 59.2621 33.6442 59.2874 33.5769 59.3378C33.5769 59.3042 33.5769 59.2705 33.5769 59.2369C33.5937 59.22 33.6021 59.1948 33.6021 59.1612C33.6021 58.9592 33.5769 58.7489 33.5264 58.5301C33.4759 58.3282 33.4507 58.1262 33.4507 57.9243C33.4507 57.6887 33.4927 57.4952 33.5769 57.3437H33.8798C34.0481 57.3437 34.2079 57.3353 34.3594 57.3185C34.5277 57.2848 34.7044 57.268 34.8895 57.268C35.0746 57.268 35.2429 57.3185 35.3943 57.4194C36.3199 57.3858 37.195 57.2175 38.0196 56.9146C38.861 56.5948 39.7108 56.2835 40.569 55.9806C40.7037 55.7955 40.7794 55.5936 40.7962 55.3748C40.8299 55.1392 40.8972 54.9204 40.9982 54.7185C40.5606 54.3483 40.1147 54.0622 39.6603 53.8602C39.2228 53.6415 38.7095 53.5657 38.1205 53.6331C37.7671 53.4143 37.3885 53.2881 36.9846 53.2544C36.5976 53.2208 36.2021 53.1703 35.7982 53.103C35.6973 53.0861 35.5879 53.0693 35.4701 53.0525C35.3691 53.0188 35.2597 53.002 35.1419 53.002C35.0578 53.002 34.9736 53.0272 34.8895 53.0777C34.8222 53.1114 34.8054 53.1703 34.839 53.2544C34.7549 53.1198 34.6371 53.0441 34.4856 53.0272C34.351 52.9936 34.2332 52.9263 34.1322 52.8253C33.5937 52.7916 33.1225 52.6991 32.7186 52.5476C32.3148 52.3794 31.8688 52.1942 31.3808 51.9923C31.2462 51.9418 31.1115 51.9082 30.9769 51.8913C30.8591 51.8577 30.7413 51.8072 30.6235 51.7399C30.3206 51.5884 30.0766 51.3865 29.8915 51.1341C29.7064 50.8816 29.5633 50.604 29.4624 50.3011C29.3446 49.9813 29.2604 49.6532 29.21 49.3166C29.1595 48.98 29.109 48.6687 29.0585 48.3826C29.21 48.1134 29.353 47.8357 29.4876 47.5496C29.6054 47.2636 29.7064 46.9607 29.7905 46.6409C29.8915 46.5904 29.9925 46.5484 30.0934 46.5147C30.1944 46.481 30.3038 46.439 30.4216 46.3885C30.4048 46.3548 30.3963 46.3128 30.3963 46.2623C30.3963 46.1781 30.4216 46.094 30.4721 46.0099C30.5394 45.9257 30.5562 45.8416 30.5226 45.7574C30.8928 45.4209 31.2462 45.0759 31.5827 44.7225C31.9361 44.3523 32.239 43.9484 32.4915 43.5109C32.7439 43.4267 32.9458 43.3005 33.0973 43.1322C33.2487 42.9639 33.4002 42.7957 33.5516 42.6274C33.7031 42.4423 33.8714 42.2824 34.0565 42.1478C34.2416 41.9963 34.4772 41.9038 34.7633 41.8701C34.8306 41.7523 34.9232 41.6597 35.0409 41.5924C35.1587 41.5083 35.2765 41.4326 35.3943 41.3653C35.5121 41.2979 35.6215 41.2222 35.7225 41.1381C35.8235 41.0539 35.8992 40.9361 35.9497 40.7847C36.2189 40.7847 36.4629 40.7342 36.6817 40.6332C36.9173 40.5323 37.1445 40.4229 37.3633 40.3051C37.582 40.1873 37.8008 40.0779 38.0196 39.9769C38.2551 39.8759 38.5076 39.8255 38.7768 39.8255C38.8441 39.8255 38.9115 39.8339 38.9788 39.8507C39.0461 39.8507 39.1218 39.8591 39.2059 39.8759C39.3237 39.9937 39.3995 40.1368 39.4331 40.3051C39.4836 40.4565 39.5173 40.6248 39.5341 40.8099C39.5509 40.995 39.5593 41.1801 39.5593 41.3653C39.5762 41.5504 39.6098 41.7186 39.6603 41.8701C39.5089 42.1562 39.3406 42.4423 39.1555 42.7283C38.9872 43.0144 38.76 43.2332 38.4739 43.3846H38.4234C38.3056 43.4015 38.1962 43.3762 38.0953 43.3089C37.9943 43.2416 37.8765 43.2079 37.7419 43.2079C37.6577 43.2079 37.5904 43.2332 37.5399 43.2837L37.4137 43.4099C37.3801 43.4435 37.3296 43.4772 37.2623 43.5109C37.2118 43.5445 37.1361 43.5445 37.0351 43.5109C36.7995 43.595 36.7069 43.738 36.7574 43.94C36.4377 43.9736 36.1684 44.0746 35.9497 44.2429C35.7309 44.3943 35.529 44.571 35.3439 44.773C35.1587 44.9581 34.9736 45.1348 34.7885 45.3031C34.6034 45.4545 34.3846 45.5387 34.1322 45.5555C33.8461 46.0603 33.4927 46.5063 33.072 46.8933C32.6682 47.2804 32.3316 47.7179 32.0623 48.2059C32.1128 48.3406 32.1465 48.4836 32.1633 48.6351C32.1801 48.7865 32.2054 48.9464 32.239 49.1147C32.3905 49.3166 32.5672 49.4933 32.7691 49.6448C32.9879 49.7962 33.1983 49.9477 33.4002 50.0991H33.4759C33.8125 50.0991 34.1238 50.1664 34.4099 50.3011C34.696 50.4189 34.9989 50.4778 35.3186 50.4778C35.4869 50.4778 35.6299 50.4441 35.7477 50.3768C36.1853 50.4778 36.6144 50.5619 37.0351 50.6292C37.4726 50.6965 37.9102 50.747 38.3477 50.7807C38.5665 50.8143 38.7852 50.8312 39.004 50.8312C39.2396 50.8312 39.4584 50.8564 39.6603 50.9069C39.8454 50.9574 40.0305 51.0247 40.2156 51.1088C40.4008 51.1761 40.5859 51.2519 40.771 51.336C41.158 51.5043 41.5198 51.6894 41.8564 51.8913C42.2098 52.0933 42.5211 52.3373 42.7904 52.6234C43.0596 52.8926 43.27 53.2124 43.4214 53.5826C43.5729 53.936 43.6486 54.3483 43.6486 54.8195ZM56.598 43.7633C56.5811 44.0157 56.5138 44.2092 56.396 44.3439C56.2951 44.4785 56.2446 44.6468 56.2446 44.8487C56.2446 44.9833 56.2698 45.1011 56.3203 45.2021C56.2025 45.2526 56.1436 45.3451 56.1436 45.4798H56.0426C55.908 45.4798 55.7734 45.5134 55.6388 45.5807C55.521 45.648 55.3947 45.6817 55.2601 45.6817C54.8226 45.6817 54.4524 45.5723 54.1495 45.3536C53.8465 45.118 53.5184 44.9244 53.165 44.773C53.0809 44.7393 52.9967 44.7225 52.9126 44.7225H52.6854C52.5676 44.7225 52.4835 44.7057 52.433 44.672C52.4161 44.6384 52.3993 44.5963 52.3825 44.5458C52.3825 44.4785 52.3657 44.428 52.332 44.3943C52.3152 44.3775 52.2394 44.3523 52.1048 44.3186C51.9702 44.2681 51.8187 44.2176 51.6505 44.1672C51.499 44.1167 51.3475 44.0662 51.1961 44.0157C51.0446 43.9484 50.9437 43.8979 50.8932 43.8643C50.809 43.8138 50.7333 43.7296 50.666 43.6118C50.6155 43.4772 50.5314 43.4435 50.4136 43.5109C50.4304 43.4604 50.4388 43.4099 50.4388 43.3594C50.4388 43.2753 50.4136 43.1911 50.3631 43.107C50.3294 43.006 50.2621 42.9555 50.1612 42.9555C50.1275 42.9555 50.0854 42.9639 50.0349 42.9808C50.0013 42.9976 49.9592 43.006 49.9087 43.006C49.8751 43.006 49.8414 42.9892 49.8078 42.9555C49.6731 42.7872 49.5301 42.619 49.3786 42.4507C49.1094 42.1646 48.8317 41.9122 48.5456 41.6934C48.2596 41.4746 48.0408 41.1717 47.8893 40.7847C47.5864 40.6332 47.3256 40.4481 47.1068 40.2293L46.4505 39.573C46.2318 39.3543 45.9962 39.1607 45.7437 38.9925C45.4913 38.8074 45.18 38.6811 44.8098 38.6138V38.4371C44.8098 38.2184 44.8434 38.008 44.9107 37.8061C44.978 37.6041 45.0117 37.4022 45.0117 37.2003C45.0117 37.0993 45.0033 37.0236 44.9865 36.9731C45.2221 36.8889 45.3735 36.7459 45.4408 36.544C45.5081 36.3252 45.5418 36.1064 45.5418 35.8876C45.7101 35.7025 45.9288 35.5932 46.1981 35.5595C46.4673 35.5258 46.7114 35.509 46.9301 35.509H47.1825C47.2667 35.509 47.3508 35.5174 47.435 35.5343C47.8389 35.7699 48.1586 36.0643 48.3942 36.4177C48.6466 36.7711 48.8401 37.1666 48.9748 37.6041C49.2104 37.7892 49.4123 38.008 49.5806 38.2604C49.7657 38.5129 50.0181 38.6896 50.3378 38.7905C50.4725 39.1271 50.6492 39.43 50.8679 39.6993C51.0867 39.9517 51.3223 40.1957 51.5747 40.4313C51.8272 40.6669 52.0712 40.9109 52.3068 41.1633C52.5592 41.3989 52.7864 41.6597 52.9883 41.9458C53.2744 42.0636 53.5857 42.1814 53.9223 42.2992C54.2588 42.4002 54.587 42.518 54.9067 42.6526C55.2433 42.7872 55.5546 42.9471 55.8407 43.1322C56.1436 43.3005 56.396 43.5109 56.598 43.7633ZM83.6073 57.8738C83.5064 58.0084 83.3802 58.101 83.2287 58.1515C83.0773 58.2019 82.9258 58.244 82.7743 58.2777C82.6229 58.3113 82.463 58.345 82.2947 58.3786C82.1433 58.4291 82.0087 58.5048 81.8909 58.6058C81.8572 58.6226 81.832 58.6395 81.8151 58.6563C81.8151 58.6731 81.7983 58.6815 81.7647 58.6815C81.7142 58.6815 81.6637 58.6395 81.6132 58.5553C81.5795 58.488 81.5206 58.4375 81.4365 58.4039C80.999 58.6395 80.5278 58.8414 80.0229 59.0097C79.5181 59.1948 79.0132 59.3799 78.5084 59.565C78.0204 59.767 77.5408 59.9773 77.0696 60.1961C76.5984 60.4317 76.1861 60.7178 75.8327 61.0543C75.5634 61.088 75.2858 61.1469 74.9997 61.231C74.7304 61.332 74.5285 61.5171 74.3939 61.7864H74.3181C74.2508 61.7864 74.2003 61.7611 74.1667 61.7106C74.133 61.677 74.0825 61.6601 74.0152 61.6601C73.8974 61.6601 73.8217 61.6938 73.7881 61.7611C73.7544 61.8284 73.7292 61.8957 73.7123 61.9631C73.7123 62.0472 73.7039 62.1229 73.6871 62.1902C73.6703 62.2576 73.6198 62.2912 73.5356 62.2912C73.502 62.2912 73.4683 62.2576 73.4347 62.1902C73.401 62.1398 73.3169 62.1229 73.1822 62.1398C72.5596 62.4763 71.9117 62.8129 71.2386 63.1495C70.5654 63.5028 69.9849 63.9488 69.4968 64.4873C69.4632 64.4536 69.4211 64.4368 69.3706 64.4368C69.337 64.4368 69.3117 64.4368 69.2949 64.4368L69.2697 64.4621C69.236 64.4621 69.2108 64.4536 69.1939 64.4368C69.1771 64.42 69.1603 64.4116 69.1434 64.4116C68.7564 64.7481 68.3441 65.051 67.9066 65.3203C67.4859 65.6064 67.0567 65.884 66.6192 66.1533C66.1817 66.4226 65.7525 66.6918 65.3318 66.9611C64.9111 67.2471 64.5157 67.5669 64.1454 67.9203C63.9099 67.9371 63.6743 67.9876 63.4387 68.0717C63.2031 68.1559 62.9675 68.24 62.7319 68.3241C62.5131 68.4083 62.2859 68.484 62.0503 68.5513C61.8147 68.6355 61.5791 68.6775 61.3435 68.6775C60.906 68.6775 60.5442 68.484 60.2581 68.097C60.2076 68.1306 60.1571 68.1559 60.1067 68.1727C60.073 68.1895 60.0309 68.1979 59.9805 68.1979C59.8458 68.1979 59.7196 68.139 59.6018 68.0212C59.5008 67.9203 59.3578 67.8866 59.1727 67.9203C58.9539 67.6847 58.7941 67.3818 58.6931 67.0115C58.6089 66.6581 58.4996 66.33 58.3649 66.0271C58.3986 65.3708 58.508 64.7313 58.6931 64.1087C58.895 63.5028 59.0212 62.8718 59.0717 62.2155C59.2232 62.064 59.341 61.8873 59.4251 61.6854C59.5093 61.5003 59.585 61.2983 59.6523 61.0796C59.7364 60.8776 59.8206 60.6757 59.9047 60.4738C59.9889 60.2718 60.1067 60.1035 60.2581 59.9689C60.3591 59.4641 60.5274 58.9845 60.763 58.5301C60.9986 58.0757 61.1584 57.5877 61.2426 57.066C61.3772 56.9819 61.4866 56.8809 61.5707 56.7631C61.6717 56.6453 61.7811 56.5359 61.8989 56.435V56.2835C61.8989 56.1489 61.8652 56.0479 61.7979 55.9806C61.9157 55.6777 62.0419 55.3916 62.1765 55.1224C62.328 54.8531 62.471 54.5839 62.6057 54.3146C62.7403 54.0454 62.8581 53.7677 62.9591 53.4816C63.06 53.1955 63.1273 52.8842 63.161 52.5476C63.2956 52.4298 63.3966 52.2868 63.4639 52.1185C63.5312 51.9334 63.5901 51.7567 63.6406 51.5884C63.7079 51.4033 63.7752 51.235 63.8425 51.0836C63.9267 50.9321 64.0613 50.8143 64.2464 50.7302C64.2296 50.6965 64.2212 50.6545 64.2212 50.604C64.2212 50.4357 64.2632 50.2842 64.3474 50.1496C64.4484 50.015 64.4988 49.8719 64.4988 49.7205C64.4988 49.6363 64.4736 49.5522 64.4231 49.4681C64.7597 48.7613 65.0878 48.0713 65.4076 47.3982C65.7273 46.7082 65.9713 45.9762 66.1396 45.2021C66.3079 45.118 66.4089 44.9917 66.4425 44.8235C66.4762 44.6552 66.5519 44.5037 66.6697 44.3691V44.2429C66.6697 43.9568 66.7286 43.6371 66.8464 43.2837C66.981 42.9303 67.1409 42.6358 67.326 42.4002C67.4101 41.8112 67.5027 41.197 67.6037 40.5575C67.7215 39.9012 67.8982 39.3038 68.1338 38.7653C68.1001 38.6475 68.0496 38.5297 67.9823 38.4119C67.9318 38.2941 67.8897 38.1679 67.8561 38.0333C67.4354 38.2688 66.9558 38.4792 66.4173 38.6643C66.3163 38.698 66.2069 38.7316 66.0891 38.7653C65.9713 38.7821 65.8703 38.8158 65.7862 38.8663C65.6852 38.8999 65.6263 38.9841 65.6095 39.1187C65.5927 39.2365 65.5843 39.3374 65.5843 39.4216C65.3823 39.4216 65.2225 39.4637 65.1047 39.5478C64.9869 39.6319 64.8691 39.7329 64.7513 39.8507C64.6503 39.9517 64.5409 40.0526 64.4231 40.1536C64.3053 40.2378 64.1539 40.2967 63.9688 40.3303C63.7668 40.5323 63.5985 40.6921 63.4639 40.8099C63.3293 40.9109 63.1358 41.0119 62.8833 41.1128C62.7992 41.1465 62.715 41.2138 62.6309 41.3148L62.3785 41.6177C62.2943 41.7186 62.2102 41.8028 62.1261 41.8701C62.0587 41.9374 61.983 41.9627 61.8989 41.9458C61.8484 42.0973 61.7727 42.2235 61.6717 42.3245C61.5876 42.4254 61.495 42.5264 61.394 42.6274C61.2931 42.7115 61.2089 42.8125 61.1416 42.9303C61.0743 43.0481 61.049 43.1995 61.0659 43.3846C60.9986 43.452 60.9397 43.4856 60.8892 43.4856C60.8387 43.4856 60.7798 43.452 60.7125 43.3846C60.6788 43.5866 60.6115 43.7549 60.5105 43.8895C60.4264 44.0073 60.3254 44.1167 60.2076 44.2176C60.0898 44.3186 59.9636 44.4196 59.829 44.5206C59.6944 44.6215 59.5682 44.7309 59.4504 44.8487C59.2989 44.8319 59.1643 44.7982 59.0465 44.7477C58.9455 44.6972 58.8361 44.6468 58.7183 44.5963C58.6005 44.5458 58.4743 44.5121 58.3397 44.4953C58.2219 44.4617 58.0704 44.4532 57.8853 44.4701C57.9022 44.3691 57.8853 44.2934 57.8348 44.2429C57.7844 44.1924 57.717 44.1503 57.6329 44.1167C57.6329 43.982 57.6329 43.8138 57.6329 43.6118C57.6497 43.4099 57.6582 43.2079 57.6582 43.006C57.675 42.7872 57.7002 42.5853 57.7339 42.4002C57.7675 42.2151 57.818 42.0636 57.8853 41.9458C57.9863 41.7775 58.1462 41.6261 58.3649 41.4915C58.6005 41.3568 58.8445 41.2222 59.097 41.0876C59.3662 40.9361 59.6186 40.7847 59.8542 40.6332C60.1067 40.4649 60.3086 40.263 60.4601 40.0274C60.4769 40.0442 60.5105 40.0526 60.561 40.0526C60.6957 40.0526 60.805 40.019 60.8892 39.9517C60.9733 39.8002 61.0827 39.6908 61.2173 39.6235C61.3688 39.5562 61.5034 39.4552 61.6212 39.3206C61.6717 39.2701 61.6969 39.2112 61.6969 39.1439C61.7138 39.0598 61.7474 38.9925 61.7979 38.942C61.8484 38.8915 61.9409 38.841 62.0756 38.7905C62.227 38.74 62.3448 38.6727 62.429 38.5886C62.5299 38.5044 62.6057 38.4119 62.6561 38.3109C62.7235 38.21 62.7992 38.1174 62.8833 38.0333C63.018 37.9323 63.161 37.8566 63.3125 37.8061C63.4807 37.7556 63.6406 37.6883 63.7921 37.6041C63.9435 37.5032 64.0781 37.3854 64.1959 37.2507C64.3306 37.1161 64.4315 36.9562 64.4988 36.7711C64.8354 36.6197 65.1636 36.4682 65.4833 36.3168C65.803 36.1485 66.1144 35.9718 66.4173 35.7867C66.5855 35.6857 66.7454 35.5763 66.8969 35.4585C67.0483 35.3239 67.1998 35.1977 67.3512 35.0799C67.5195 34.9621 67.6878 34.8611 67.8561 34.777C68.0412 34.6928 68.2347 34.6508 68.4367 34.6508C68.6891 34.6508 68.8826 34.7013 69.0172 34.8022C69.1519 34.8864 69.2697 34.9873 69.3706 35.1051C69.4884 35.2061 69.6062 35.3155 69.724 35.4333C69.8586 35.5511 70.0269 35.6352 70.2289 35.6857C70.3972 35.955 70.5065 36.2495 70.557 36.5692C70.6243 36.8721 70.6664 37.1918 70.6832 37.5284C70.7001 37.8481 70.7001 38.1679 70.6832 38.4876C70.6832 38.8074 70.7085 39.1187 70.759 39.4216C70.658 39.7077 70.5402 39.9853 70.4056 40.2546C70.2709 40.5238 70.2036 40.8099 70.2036 41.1128C70.2036 41.2306 70.212 41.3316 70.2289 41.4157H69.926C69.8586 41.9711 69.7324 42.518 69.5473 43.0565C69.3622 43.5782 69.1519 44.0998 68.9163 44.6215L68.2347 46.1613C68.016 46.6662 67.8308 47.1878 67.6794 47.7263C67.6457 47.8778 67.5868 47.9703 67.5027 48.004C67.4185 48.0208 67.3597 48.0881 67.326 48.2059C67.2419 48.3911 67.1745 48.593 67.1241 48.8118C67.0736 49.0305 67.0063 49.2409 66.9221 49.4428C66.7538 49.8804 66.5855 50.3011 66.4173 50.7049C66.249 51.1088 66.0723 51.5043 65.8872 51.8913V52.1438C65.8872 52.2279 65.9124 52.27 65.9629 52.27C65.4244 53.0104 65.0626 53.8518 64.8775 54.7942C64.7429 54.8952 64.6419 55.0214 64.5746 55.1729C64.5241 55.3075 64.4399 55.4253 64.3221 55.5262C64.2043 56.0143 64.0445 56.4939 63.8425 56.9651C63.6574 57.4194 63.4639 57.8738 63.262 58.3282C63.06 58.7825 62.8665 59.2369 62.6814 59.6912C62.4963 60.1624 62.3532 60.642 62.2523 61.1301C62.0672 61.2983 61.9157 61.5003 61.7979 61.7359C61.6969 61.9715 61.6044 62.2239 61.5202 62.4931C61.4529 62.7624 61.3856 63.0317 61.3183 63.3009C61.2678 63.5702 61.2089 63.8142 61.1416 64.0329L60.8892 64.9417V65.4465C60.8892 65.5307 60.8808 65.6232 60.8639 65.7242C60.8471 65.8251 60.7966 65.8925 60.7125 65.9261C60.7461 66.0439 60.7882 66.1365 60.8387 66.2038C60.906 66.2711 60.9228 66.3637 60.8892 66.4814C60.9565 66.6161 61.0743 66.6918 61.2426 66.7086C61.4277 66.7423 61.5876 66.7844 61.7222 66.8348C61.8568 66.8012 61.9325 66.7255 61.9494 66.6077C61.9662 66.4899 62.0083 66.3889 62.0756 66.3048C62.227 66.1028 62.4542 65.884 62.7571 65.6485C63.0769 65.4129 63.4134 65.1688 63.7668 64.9164C64.137 64.664 64.4904 64.42 64.827 64.1844C65.1804 63.9656 65.4665 63.7637 65.6852 63.5786H66.1396C66.7454 63.1915 67.3512 62.8129 67.9571 62.4427C68.5629 62.0893 69.1939 61.7695 69.8502 61.4835C70.0185 61.2647 70.2205 61.0964 70.4561 60.9786C70.7085 60.8608 70.9609 60.743 71.2133 60.6252C71.4826 60.5242 71.735 60.4149 71.9706 60.2971C72.223 60.1793 72.425 60.011 72.5764 59.7922C72.7615 59.7586 72.9635 59.7165 73.1822 59.666C73.401 59.6155 73.5609 59.4977 73.6618 59.3126H73.7628C73.8133 59.3126 73.8638 59.321 73.9143 59.3378C73.9647 59.3715 73.9984 59.422 74.0152 59.4893C74.133 59.4556 74.2003 59.3799 74.2172 59.2621C74.2508 59.1443 74.3097 59.0434 74.3939 58.9592C74.8819 58.7741 75.3783 58.5806 75.8832 58.3786C76.388 58.1767 76.8845 57.9495 77.3725 57.6971C77.6081 57.6971 77.8689 57.6634 78.155 57.5961C78.4579 57.5288 78.6851 57.3774 78.8365 57.1418C78.8702 57.1586 78.9123 57.167 78.9627 57.167C79.1479 57.167 79.3246 57.1418 79.4928 57.0913C79.6779 57.024 79.8631 56.9566 80.0482 56.8893C80.2333 56.8052 80.4184 56.7295 80.6035 56.6622C80.7886 56.5948 80.9821 56.5528 81.1841 56.5359H81.2346C81.2682 56.5359 81.2766 56.4939 81.2598 56.4097C81.2598 56.3088 81.2598 56.2499 81.2598 56.233C81.2598 56.1657 81.2935 56.1405 81.3608 56.1573C81.4113 56.1405 81.4954 56.1321 81.6132 56.1321C81.7983 56.1321 81.9666 56.1741 82.118 56.2583C82.2863 56.3256 82.4462 56.4097 82.5977 56.5107C82.7491 56.6117 82.9006 56.7211 83.052 56.8388C83.2035 56.9398 83.3633 57.0155 83.5316 57.066C83.498 57.2007 83.4811 57.31 83.4811 57.3942C83.4811 57.4783 83.4896 57.5625 83.5064 57.6466C83.54 57.7139 83.5737 57.7896 83.6073 57.8738ZM103.12 57.8738C103.019 58.0084 102.893 58.101 102.741 58.1515C102.59 58.2019 102.438 58.244 102.287 58.2777C102.135 58.3113 101.975 58.345 101.807 58.3786C101.656 58.4291 101.521 58.5048 101.403 58.6058C101.37 58.6226 101.344 58.6395 101.328 58.6563C101.328 58.6731 101.311 58.6815 101.277 58.6815C101.227 58.6815 101.176 58.6395 101.126 58.5553C101.092 58.488 101.033 58.4375 100.949 58.4039C100.511 58.6395 100.04 58.8414 99.5353 59.0097C99.0305 59.1948 98.5256 59.3799 98.0208 59.565C97.5327 59.767 97.0531 59.9773 96.5819 60.1961C96.1108 60.4317 95.6985 60.7178 95.3451 61.0543C95.0758 61.088 94.7981 61.1469 94.5121 61.231C94.2428 61.332 94.0409 61.5171 93.9063 61.7864H93.8305C93.7632 61.7864 93.7127 61.7611 93.6791 61.7106C93.6454 61.677 93.5949 61.6601 93.5276 61.6601C93.4098 61.6601 93.3341 61.6938 93.3004 61.7611C93.2668 61.8284 93.2415 61.8957 93.2247 61.9631C93.2247 62.0472 93.2163 62.1229 93.1995 62.1902C93.1826 62.2576 93.1322 62.2912 93.048 62.2912C93.0144 62.2912 92.9807 62.2576 92.947 62.1902C92.9134 62.1398 92.8292 62.1229 92.6946 62.1398C92.072 62.4763 91.4241 62.8129 90.7509 63.1495C90.0778 63.5028 89.4972 63.9488 89.0092 64.4873C88.9756 64.4536 88.9335 64.4368 88.883 64.4368C88.8494 64.4368 88.8241 64.4368 88.8073 64.4368L88.782 64.4621C88.7484 64.4621 88.7231 64.4536 88.7063 64.4368C88.6895 64.42 88.6727 64.4116 88.6558 64.4116C88.2688 64.7481 87.8565 65.051 87.419 65.3203C86.9982 65.6064 86.5691 65.884 86.1316 66.1533C85.6941 66.4226 85.2649 66.6918 84.8442 66.9611C84.4235 67.2471 84.0281 67.5669 83.6578 67.9203C83.4222 67.9371 83.1866 67.9876 82.951 68.0717C82.7154 68.1559 82.4799 68.24 82.2443 68.3241C82.0255 68.4083 81.7983 68.484 81.5627 68.5513C81.3271 68.6355 81.0915 68.6775 80.8559 68.6775C80.4184 68.6775 80.0566 68.484 79.7705 68.097C79.72 68.1306 79.6695 68.1559 79.619 68.1727C79.5854 68.1895 79.5433 68.1979 79.4928 68.1979C79.3582 68.1979 79.232 68.139 79.1142 68.0212C79.0132 67.9203 78.8702 67.8866 78.6851 67.9203C78.4663 67.6847 78.3064 67.3818 78.2055 67.0115C78.1213 66.6581 78.0119 66.33 77.8773 66.0271C77.911 65.3708 78.0204 64.7313 78.2055 64.1087C78.4074 63.5028 78.5336 62.8718 78.5841 62.2155C78.7356 62.064 78.8534 61.8873 78.9375 61.6854C79.0216 61.5003 79.0974 61.2983 79.1647 61.0796C79.2488 60.8776 79.333 60.6757 79.4171 60.4738C79.5012 60.2718 79.619 60.1035 79.7705 59.9689C79.8715 59.4641 80.0398 58.9845 80.2753 58.5301C80.5109 58.0757 80.6708 57.5877 80.755 57.066C80.8896 56.9819 80.999 56.8809 81.0831 56.7631C81.1841 56.6453 81.2935 56.5359 81.4113 56.435V56.2835C81.4113 56.1489 81.3776 56.0479 81.3103 55.9806C81.4281 55.6777 81.5543 55.3916 81.6889 55.1224C81.8404 54.8531 81.9834 54.5839 82.118 54.3146C82.2527 54.0454 82.3705 53.7677 82.4714 53.4816C82.5724 53.1955 82.6397 52.8842 82.6734 52.5476C82.808 52.4298 82.909 52.2868 82.9763 52.1185C83.0436 51.9334 83.1025 51.7567 83.153 51.5884C83.2203 51.4033 83.2876 51.235 83.3549 51.0836C83.4391 50.9321 83.5737 50.8143 83.7588 50.7302C83.742 50.6965 83.7336 50.6545 83.7336 50.604C83.7336 50.4357 83.7756 50.2842 83.8598 50.1496C83.9607 50.015 84.0112 49.8719 84.0112 49.7205C84.0112 49.6363 83.986 49.5522 83.9355 49.4681C84.2721 48.7613 84.6002 48.0713 84.92 47.3982C85.2397 46.7082 85.4837 45.9762 85.652 45.2021C85.8203 45.118 85.9212 44.9917 85.9549 44.8235C85.9885 44.6552 86.0643 44.5037 86.1821 44.3691V44.2429C86.1821 43.9568 86.241 43.6371 86.3588 43.2837C86.4934 42.9303 86.6533 42.6358 86.8384 42.4002C86.9225 41.8112 87.0151 41.197 87.116 40.5575C87.2338 39.9012 87.4105 39.3038 87.6461 38.7653C87.6125 38.6475 87.562 38.5297 87.4947 38.4119C87.4442 38.2941 87.4021 38.1679 87.3685 38.0333C86.9478 38.2688 86.4682 38.4792 85.9296 38.6643C85.8287 38.698 85.7193 38.7316 85.6015 38.7653C85.4837 38.7821 85.3827 38.8158 85.2986 38.8663C85.1976 38.8999 85.1387 38.9841 85.1219 39.1187C85.1051 39.2365 85.0966 39.3374 85.0966 39.4216C84.8947 39.4216 84.7348 39.4637 84.617 39.5478C84.4992 39.6319 84.3814 39.7329 84.2637 39.8507C84.1627 39.9517 84.0533 40.0526 83.9355 40.1536C83.8177 40.2378 83.6662 40.2967 83.4811 40.3303C83.2792 40.5323 83.1109 40.6921 82.9763 40.8099C82.8417 40.9109 82.6481 41.0119 82.3957 41.1128C82.3116 41.1465 82.2274 41.2138 82.1433 41.3148L81.8909 41.6177C81.8067 41.7186 81.7226 41.8028 81.6384 41.8701C81.5711 41.9374 81.4954 41.9627 81.4113 41.9458C81.3608 42.0973 81.285 42.2235 81.1841 42.3245C81.0999 42.4254 81.0074 42.5264 80.9064 42.6274C80.8054 42.7115 80.7213 42.8125 80.654 42.9303C80.5867 43.0481 80.5614 43.1995 80.5783 43.3846C80.5109 43.452 80.452 43.4856 80.4016 43.4856C80.3511 43.4856 80.2922 43.452 80.2249 43.3846C80.1912 43.5866 80.1239 43.7549 80.0229 43.8895C79.9388 44.0073 79.8378 44.1167 79.72 44.2176C79.6022 44.3186 79.476 44.4196 79.3414 44.5206C79.2068 44.6215 79.0805 44.7309 78.9627 44.8487C78.8113 44.8319 78.6767 44.7982 78.5589 44.7477C78.4579 44.6972 78.3485 44.6468 78.2307 44.5963C78.1129 44.5458 77.9867 44.5121 77.8521 44.4953C77.7343 44.4617 77.5828 44.4532 77.3977 44.4701C77.4145 44.3691 77.3977 44.2934 77.3472 44.2429C77.2967 44.1924 77.2294 44.1503 77.1453 44.1167C77.1453 43.982 77.1453 43.8138 77.1453 43.6118C77.1621 43.4099 77.1705 43.2079 77.1705 43.006C77.1874 42.7872 77.2126 42.5853 77.2463 42.4002C77.2799 42.2151 77.3304 42.0636 77.3977 41.9458C77.4987 41.7775 77.6586 41.6261 77.8773 41.4915C78.1129 41.3568 78.3569 41.2222 78.6094 41.0876C78.8786 40.9361 79.131 40.7847 79.3666 40.6332C79.619 40.4649 79.821 40.263 79.9724 40.0274C79.9893 40.0442 80.0229 40.0526 80.0734 40.0526C80.208 40.0526 80.3174 40.019 80.4016 39.9517C80.4857 39.8002 80.5951 39.6908 80.7297 39.6235C80.8812 39.5562 81.0158 39.4552 81.1336 39.3206C81.1841 39.2701 81.2093 39.2112 81.2093 39.1439C81.2261 39.0598 81.2598 38.9925 81.3103 38.942C81.3608 38.8915 81.4533 38.841 81.588 38.7905C81.7394 38.74 81.8572 38.6727 81.9413 38.5886C82.0423 38.5044 82.118 38.4119 82.1685 38.3109C82.2358 38.21 82.3116 38.1174 82.3957 38.0333C82.5303 37.9323 82.6734 37.8566 82.8248 37.8061C82.9931 37.7556 83.153 37.6883 83.3044 37.6041C83.4559 37.5032 83.5905 37.3854 83.7083 37.2507C83.8429 37.1161 83.9439 36.9562 84.0112 36.7711C84.3478 36.6197 84.6759 36.4682 84.9957 36.3168C85.3154 36.1485 85.6267 35.9718 85.9296 35.7867C86.0979 35.6857 86.2578 35.5763 86.4093 35.4585C86.5607 35.3239 86.7122 35.1977 86.8636 35.0799C87.0319 34.9621 87.2002 34.8611 87.3685 34.777C87.5536 34.6928 87.7471 34.6508 87.949 34.6508C88.2015 34.6508 88.395 34.7013 88.5296 34.8022C88.6642 34.8864 88.782 34.9873 88.883 35.1051C89.0008 35.2061 89.1186 35.3155 89.2364 35.4333C89.371 35.5511 89.5393 35.6352 89.7413 35.6857C89.9095 35.955 90.0189 36.2495 90.0694 36.5692C90.1367 36.8721 90.1788 37.1918 90.1956 37.5284C90.2124 37.8481 90.2124 38.1679 90.1956 38.4876C90.1956 38.8074 90.2209 39.1187 90.2713 39.4216C90.1704 39.7077 90.0526 39.9853 89.918 40.2546C89.7833 40.5238 89.716 40.8099 89.716 41.1128C89.716 41.2306 89.7244 41.3316 89.7413 41.4157H89.4383C89.371 41.9711 89.2448 42.518 89.0597 43.0565C88.8746 43.5782 88.6642 44.0998 88.4286 44.6215L87.7471 46.1613C87.5283 46.6662 87.3432 47.1878 87.1918 47.7263C87.1581 47.8778 87.0992 47.9703 87.0151 48.004C86.9309 48.0208 86.872 48.0881 86.8384 48.2059C86.7542 48.3911 86.6869 48.593 86.6364 48.8118C86.586 49.0305 86.5186 49.2409 86.4345 49.4428C86.2662 49.8804 86.0979 50.3011 85.9296 50.7049C85.7614 51.1088 85.5847 51.5043 85.3996 51.8913V52.1438C85.3996 52.2279 85.4248 52.27 85.4753 52.27C84.9368 53.0104 84.575 53.8518 84.3899 54.7942C84.2552 54.8952 84.1543 55.0214 84.087 55.1729C84.0365 55.3075 83.9523 55.4253 83.8345 55.5262C83.7167 56.0143 83.5569 56.4939 83.3549 56.9651C83.1698 57.4194 82.9763 57.8738 82.7743 58.3282C82.5724 58.7825 82.3789 59.2369 82.1938 59.6912C82.0087 60.1624 81.8656 60.642 81.7647 61.1301C81.5795 61.2983 81.4281 61.5003 81.3103 61.7359C81.2093 61.9715 81.1168 62.2239 81.0326 62.4931C80.9653 62.7624 80.898 63.0317 80.8307 63.3009C80.7802 63.5702 80.7213 63.8142 80.654 64.0329L80.4016 64.9417V65.4465C80.4016 65.5307 80.3931 65.6232 80.3763 65.7242C80.3595 65.8251 80.309 65.8925 80.2249 65.9261C80.2585 66.0439 80.3006 66.1365 80.3511 66.2038C80.4184 66.2711 80.4352 66.3637 80.4016 66.4814C80.4689 66.6161 80.5867 66.6918 80.755 66.7086C80.9401 66.7423 81.0999 66.7844 81.2346 66.8348C81.3692 66.8012 81.4449 66.7255 81.4617 66.6077C81.4786 66.4899 81.5206 66.3889 81.588 66.3048C81.7394 66.1028 81.9666 65.884 82.2695 65.6485C82.5892 65.4129 82.9258 65.1688 83.2792 64.9164C83.6494 64.664 84.0028 64.42 84.3394 64.1844C84.6928 63.9656 84.9789 63.7637 85.1976 63.5786H85.652C86.2578 63.1915 86.8636 62.8129 87.4694 62.4427C88.0753 62.0893 88.7063 61.7695 89.3626 61.4835C89.5309 61.2647 89.7328 61.0964 89.9684 60.9786C90.2209 60.8608 90.4733 60.743 90.7257 60.6252C90.995 60.5242 91.2474 60.4149 91.483 60.2971C91.7354 60.1793 91.9373 60.011 92.0888 59.7922C92.2739 59.7586 92.4758 59.7165 92.6946 59.666C92.9134 59.6155 93.0733 59.4977 93.1742 59.3126H93.2752C93.3257 59.3126 93.3762 59.321 93.4266 59.3378C93.4771 59.3715 93.5108 59.422 93.5276 59.4893C93.6454 59.4556 93.7127 59.3799 93.7296 59.2621C93.7632 59.1443 93.8221 59.0434 93.9063 58.9592C94.3943 58.7741 94.8907 58.5806 95.3956 58.3786C95.9004 58.1767 96.3968 57.9495 96.8849 57.6971C97.1205 57.6971 97.3813 57.6634 97.6674 57.5961C97.9703 57.5288 98.1975 57.3774 98.3489 57.1418C98.3826 57.1586 98.4246 57.167 98.4751 57.167C98.6602 57.167 98.8369 57.1418 99.0052 57.0913C99.1903 57.024 99.3754 56.9566 99.5606 56.8893C99.7457 56.8052 99.9308 56.7295 100.116 56.6622C100.301 56.5948 100.495 56.5528 100.696 56.5359H100.747C100.781 56.5359 100.789 56.4939 100.772 56.4097C100.772 56.3088 100.772 56.2499 100.772 56.233C100.772 56.1657 100.806 56.1405 100.873 56.1573C100.924 56.1405 101.008 56.1321 101.126 56.1321C101.311 56.1321 101.479 56.1741 101.63 56.2583C101.799 56.3256 101.959 56.4097 102.11 56.5107C102.261 56.6117 102.413 56.7211 102.564 56.8388C102.716 56.9398 102.876 57.0155 103.044 57.066C103.01 57.2007 102.994 57.31 102.994 57.3942C102.994 57.4783 103.002 57.5625 103.019 57.6466C103.052 57.7139 103.086 57.7896 103.12 57.8738Z" fill="#319795"/>
</svg>
