<svg width="512" height="512" viewBox="0 0 512 512" fill="none" xmlns="http://www.w3.org/2000/svg">
<circle cx="256" cy="256" r="256" fill="#319795"/>
<path d="M210.202 322.053C210.202 322.808 210.031 323.528 209.688 324.215C208.315 324.969 206.875 325.484 205.365 325.758C203.924 326.101 202.483 326.273 201.043 326.273C200.356 326.273 199.602 326.239 198.778 326.17C198.024 326.17 197.338 326.101 196.72 325.964C196.514 325.896 196.274 325.758 196 325.552C195.725 325.347 195.451 325.244 195.176 325.244C194.49 325.244 193.838 325.347 193.221 325.552C192.603 325.827 191.952 325.964 191.265 325.964C190.922 325.964 190.579 325.861 190.236 325.655C189.962 325.45 189.653 325.312 189.31 325.244C188.83 325.106 188.35 325.072 187.869 325.141C187.389 325.209 186.874 325.244 186.326 325.244C185.571 325.244 184.885 325.141 184.267 324.935C183.718 324.729 183.204 324.352 182.723 323.803C181.008 323.597 179.327 323.254 177.681 322.774C176.034 322.362 174.387 321.882 172.741 321.333C171.094 320.853 169.447 320.372 167.801 319.892C166.154 319.48 164.473 319.206 162.758 319.069C162.346 318.588 161.866 318.211 161.317 317.937C160.768 317.731 160.356 317.353 160.082 316.805C159.739 316.805 159.499 316.839 159.361 316.907C159.224 317.045 158.984 317.113 158.641 317.113C157.475 316.153 156.205 315.329 154.833 314.643C153.529 313.957 152.157 313.305 150.716 312.688C149.344 312.07 147.972 311.419 146.6 310.732C145.296 310.115 144.061 309.292 142.895 308.262H142.38C141.831 308.331 141.351 308.194 140.939 307.851C140.596 307.576 140.15 307.439 139.601 307.439C139.258 307.439 138.984 307.473 138.778 307.542C138.572 306.993 138.263 306.547 137.852 306.204C137.44 305.861 136.994 305.518 136.514 305.175C136.102 304.901 135.691 304.592 135.279 304.249C134.867 303.974 134.558 303.597 134.353 303.117C132.637 302.499 130.956 301.744 129.31 300.852C127.732 300.029 126.325 298.931 125.09 297.559C123.718 297.422 122.586 297.01 121.694 296.324C120.802 295.569 119.979 294.643 119.224 293.545C117.577 292.997 116.068 292.276 114.696 291.384C113.323 290.492 111.951 289.566 110.579 288.605C109.275 287.645 107.869 286.787 106.359 286.033C104.919 285.209 103.272 284.626 101.419 284.283C101.351 283.803 101.145 283.46 100.802 283.254C100.459 282.979 100.047 282.773 99.5669 282.636C99.1552 282.43 98.7435 282.259 98.3319 282.122C97.9202 281.984 97.6115 281.71 97.4056 281.298C97.1998 281.298 96.994 281.298 96.7881 281.298C96.5823 281.23 96.3765 281.195 96.1706 281.195C95.9648 281.195 95.7247 281.23 95.4502 281.298C95.2444 281.298 95.0385 281.298 94.8327 281.298L94.9356 280.99C94.9356 280.715 94.8327 280.544 94.6269 280.475C94.4897 280.406 94.2838 280.338 94.0094 280.269C93.7349 280.201 93.4948 280.098 93.289 279.96C93.0831 279.823 92.9802 279.514 92.9802 279.034H92.6715C91.9167 279.034 91.2306 278.897 90.6131 278.623C89.9956 278.348 89.3095 278.142 88.5548 278.005C88.4176 278.76 88.349 279.48 88.349 280.166V282.019C88.349 285.106 88.692 288.365 89.3781 291.796C90.0642 295.158 91.1277 298.177 92.5685 300.852C94.0094 301.401 95.2444 302.122 96.2735 303.014C97.3027 303.906 98.2976 304.935 99.2581 306.101C99.3267 307.954 98.6406 309.497 97.1998 310.732C95.8276 312.036 94.2152 312.688 92.3627 312.688C91.3335 312.688 90.373 312.413 89.481 311.865C88.6577 311.384 87.9716 310.664 87.4227 309.703C87.0111 309.703 86.6337 309.772 86.2906 309.909C85.9476 310.115 85.5359 310.218 85.0556 310.218C84.8498 310.218 84.644 310.184 84.4381 310.115C83.752 308.949 83.0659 307.919 82.3798 307.027C81.7623 306.136 81.3506 304.935 81.1448 303.425C80.3901 303.082 79.9098 302.465 79.704 301.573C79.5668 300.681 79.1894 299.961 78.5719 299.412C78.2975 296.324 77.9201 293.237 77.4398 290.149C77.0281 287.062 76.8223 283.974 76.8223 280.887C76.8223 280.201 76.8566 279.514 76.9252 278.828C76.9938 278.074 77.0625 277.319 77.1311 276.564C76.9938 276.221 76.788 275.912 76.5136 275.638C76.3077 275.295 76.1362 274.952 75.999 274.609C74.6268 274.952 73.1859 275.295 71.6765 275.638C70.2357 275.912 68.7605 276.05 67.2511 276.05C66.2905 276.05 65.1241 275.912 63.7519 275.638C62.3797 275.295 61.3162 274.849 60.5615 274.3C60.0126 273.957 59.6353 273.339 59.4294 272.448C59.155 271.487 59.0178 270.664 59.0178 269.978C59.0178 268.811 59.2236 267.645 59.6353 266.478C60.0469 265.243 60.5958 264.18 61.2819 263.288C64.6439 261.916 67.7657 260.235 70.6473 258.245C73.5976 256.255 76.4793 254.094 79.2923 251.761C79.3609 251.075 79.4638 250.389 79.6011 249.703C79.8069 249.017 79.9098 248.296 79.9098 247.542C79.9098 246.718 79.704 245.929 79.2923 245.175C79.704 244.763 79.9098 244.248 79.9098 243.631C79.9098 242.945 80.0813 242.327 80.4244 241.778V241.161C80.4244 240.886 80.3901 240.612 80.3215 240.338C80.3215 240.063 80.2186 239.789 80.0127 239.514C80.493 236.838 80.8704 234.197 81.1448 231.59C81.4193 228.914 81.5565 226.169 81.5565 223.356C81.5565 223.151 81.6594 222.602 81.8652 221.71C82.1397 220.749 82.3112 220.097 82.3798 219.754C82.6543 218.176 82.8258 216.632 82.8944 215.123C83.0316 213.545 83.2031 211.967 83.409 210.389C83.4776 209.84 83.6148 209.12 83.8206 208.228C84.0265 207.336 84.1294 206.718 84.1294 206.375C84.1294 205.895 84.0265 205.586 83.8206 205.449C83.6834 205.243 83.5462 204.934 83.409 204.523C83.8206 202.945 84.0265 201.367 84.0265 199.788C84.0951 198.142 84.2323 196.529 84.4381 194.951C85.6045 194.471 86.5308 193.991 87.2169 193.511C87.903 193.03 88.8979 192.79 90.2015 192.79H90.4073C90.5445 193.613 90.8533 194.402 91.3335 195.157C91.8138 195.843 92.2941 196.564 92.7744 197.318C93.3233 198.005 93.8035 198.691 94.2152 199.377C94.6269 199.994 94.8327 200.612 94.8327 201.229C94.8327 202.396 94.7298 203.665 94.524 205.037C94.3181 206.409 94.1466 207.679 94.0094 208.845C93.6663 211.933 93.3576 214.986 93.0831 218.005C92.8087 220.955 92.397 223.974 91.8481 227.061C92.054 228.022 92.1569 228.914 92.1569 229.737C92.1569 230.972 92.054 232.207 91.8481 233.442C91.6423 234.677 91.5394 235.946 91.5394 237.25C91.5394 237.868 91.5737 238.519 91.6423 239.205C91.7795 239.892 91.9854 240.509 92.2598 241.058C94.5926 240.44 96.6852 239.171 98.5377 237.25C98.8121 236.976 99.0866 236.633 99.361 236.221C99.7041 235.741 100.047 235.363 100.39 235.089C101.076 234.54 101.797 234.06 102.551 233.648C103.375 233.168 104.164 232.687 104.919 232.207C106.702 231.041 108.418 229.84 110.064 228.605C111.78 227.301 113.495 226.032 115.21 224.797C120.287 221.092 125.193 217.25 129.927 213.271C134.73 209.222 139.396 204.969 143.924 200.509C144.13 199.342 144.541 198.416 145.159 197.73C145.776 197.044 146.325 196.221 146.806 195.26C148.109 194.78 149.241 194.059 150.202 193.099C150.613 193.236 151.025 193.339 151.437 193.408C151.917 193.408 152.363 193.408 152.775 193.408C153.255 193.408 153.701 193.442 154.113 193.511C154.593 193.511 155.005 193.613 155.348 193.819C155.416 194.848 155.519 195.775 155.656 196.598C155.794 197.421 156.205 198.21 156.891 198.965C156.891 199.102 156.891 199.24 156.891 199.377C156.96 199.514 156.994 199.651 156.994 199.788C156.994 200.543 156.788 201.161 156.377 201.641C155.965 202.121 155.725 202.704 155.656 203.391L150.305 208.742C148.521 210.526 146.874 212.447 145.365 214.506C144.816 214.574 144.336 214.746 143.924 215.02C143.512 215.295 143.101 215.603 142.689 215.946C142.346 216.221 141.968 216.495 141.557 216.77C141.145 217.044 140.699 217.25 140.219 217.387C138.984 219.034 137.577 220.543 135.999 221.916C134.421 223.219 132.809 224.488 131.162 225.723C129.516 226.958 127.869 228.228 126.222 229.531C124.644 230.766 123.169 232.139 121.797 233.648C120.356 234.334 118.949 235.157 117.577 236.118C116.274 237.01 115.21 238.142 114.387 239.514H113.872C113.529 239.514 113.255 239.617 113.049 239.823C112.843 239.96 112.569 240.029 112.226 240.029C108.521 243.254 104.678 246.307 100.699 249.188C96.7195 252.001 92.9116 255.089 89.2752 258.451V261.024C90.4416 261.71 91.7109 262.362 93.0831 262.979C94.4553 263.528 95.7933 264.146 97.0969 264.832C98.4691 265.518 99.7384 266.273 100.905 267.096C102.14 267.851 103.203 268.777 104.095 269.875C104.232 269.806 104.404 269.772 104.61 269.772C105.227 269.772 105.708 269.978 106.051 270.389C106.394 270.732 106.977 270.835 107.8 270.698C108.075 271.796 108.692 272.585 109.653 273.065C110.613 273.545 111.574 273.957 112.534 274.3C113.358 275.123 114.112 275.912 114.799 276.667C115.485 277.353 116.479 277.799 117.783 278.005C117.92 278.279 118.023 278.588 118.092 278.931C118.16 279.274 118.298 279.583 118.504 279.858C119.807 280.269 121.042 280.852 122.209 281.607C123.444 282.362 124.644 283.151 125.811 283.974C126.977 284.729 128.143 285.484 129.31 286.238C130.545 286.924 131.848 287.473 133.221 287.885C133.426 288.571 133.804 289.051 134.353 289.326C134.97 289.6 135.45 290.012 135.793 290.561H137.646C137.852 290.904 138.126 291.247 138.469 291.59C138.812 291.864 139.053 292.276 139.19 292.825C139.739 292.962 140.356 293.168 141.042 293.443C141.728 293.648 142.346 293.923 142.895 294.266C143.101 294.472 143.238 294.712 143.306 294.986C143.444 295.261 143.649 295.501 143.924 295.707C144.336 296.05 144.953 296.324 145.776 296.53C146.668 296.667 147.423 296.907 148.041 297.25C149.276 297.937 150.476 298.691 151.643 299.515C152.809 300.407 154.044 301.23 155.348 301.985L159.361 304.146C160.047 304.489 160.665 304.866 161.214 305.278C161.831 305.69 162.449 306.067 163.066 306.41C164.301 306.959 165.605 307.302 166.977 307.439C168.418 307.645 169.722 308.022 170.888 308.571C171.231 308.777 171.471 309.017 171.608 309.292C171.746 309.635 171.986 309.909 172.329 310.115C172.878 310.458 173.735 310.698 174.902 310.835C176.068 310.973 177.029 311.213 177.783 311.556C178.744 311.967 179.67 312.345 180.562 312.688C181.523 313.1 182.483 313.58 183.444 314.129C185.502 314.266 187.526 314.506 189.516 314.849C191.574 315.192 193.598 315.535 195.588 315.878C197.578 316.221 199.567 316.53 201.557 316.805C203.615 317.079 205.674 317.182 207.732 317.113C207.732 317.251 207.801 317.319 207.938 317.319C208.144 317.388 208.315 317.422 208.453 317.422C208.933 318.177 209.345 318.932 209.688 319.686C210.031 320.441 210.202 321.23 210.202 322.053ZM169.962 284.9C169.619 285.449 169.207 285.964 168.727 286.444C168.247 286.856 167.801 287.302 167.389 287.782C166.909 287.988 166.36 288.091 165.742 288.091C165.193 288.091 164.644 288.091 164.096 288.091C163.615 288.022 163.135 288.022 162.655 288.091C162.243 288.091 161.9 288.228 161.626 288.503C161.077 288.365 160.665 288.125 160.391 287.782C160.116 287.37 159.636 287.13 158.95 287.062C158.675 286.993 158.401 286.993 158.126 287.062C157.097 285.895 156.137 284.66 155.245 283.357C154.421 282.053 153.632 280.818 152.878 279.652C152.809 277.113 152.603 274.54 152.26 271.933C152.192 271.315 152.089 270.698 151.951 270.08C151.814 269.463 151.711 268.88 151.643 268.331C151.643 267.645 151.677 266.993 151.746 266.375C151.883 265.689 151.986 265.072 152.054 264.523C152.329 262.533 152.637 260.578 152.981 258.657C153.324 256.736 153.632 254.78 153.907 252.79C154.181 251.007 154.318 249.154 154.318 247.233C154.318 245.243 154.01 243.391 153.392 241.675L153.289 241.161C153.427 240.612 153.564 240.166 153.701 239.823C153.907 239.411 154.044 238.965 154.113 238.485C154.25 237.73 154.078 237.181 153.598 236.838C153.804 236.29 154.147 235.946 154.627 235.809C155.107 235.603 155.382 235.192 155.451 234.574C155.519 234.3 155.519 234.025 155.451 233.751C155.999 233.545 156.548 233.374 157.097 233.236C157.715 233.031 158.298 232.996 158.847 233.133C159.739 233.271 160.528 233.579 161.214 234.06C161.9 234.471 162.552 234.952 163.169 235.501C164.267 238.794 164.713 242.293 164.507 245.998C164.301 249.634 163.958 253.305 163.478 257.01C162.998 260.715 162.689 264.351 162.552 267.919C162.415 271.418 162.963 274.677 164.198 277.696L164.404 277.799C164.747 277.868 165.022 277.765 165.228 277.49C165.433 277.147 165.708 277.01 166.051 277.079C166.325 277.216 166.497 277.285 166.566 277.285C166.84 278.657 167.286 279.96 167.903 281.195C168.521 282.43 169.207 283.665 169.962 284.9ZM234.182 286.033C234.182 287.199 233.873 288.228 233.255 289.12C232.707 289.943 232.501 290.973 232.638 292.208C231.677 292.756 230.888 293.477 230.271 294.369C229.653 295.261 229.07 296.187 228.521 297.148C223.993 300.098 219.122 302.465 213.907 304.249C208.761 306.101 203.444 307.027 197.955 307.027C197.612 307.027 197.303 306.856 197.029 306.513C196.754 306.238 196.48 305.93 196.205 305.587C195.931 305.244 195.622 304.901 195.279 304.557C195.005 304.283 194.662 304.146 194.25 304.146C193.77 304.146 193.392 304.249 193.118 304.455C193.118 304.317 193.118 304.18 193.118 304.043C193.187 303.974 193.221 303.871 193.221 303.734C193.221 302.911 193.118 302.053 192.912 301.161C192.706 300.338 192.603 299.515 192.603 298.691C192.603 297.731 192.775 296.942 193.118 296.324H194.353C195.039 296.324 195.691 296.29 196.308 296.221C196.995 296.084 197.715 296.015 198.47 296.015C199.224 296.015 199.91 296.221 200.528 296.633C204.302 296.496 207.869 295.81 211.231 294.575C214.662 293.271 218.127 292.002 221.626 290.767C222.175 290.012 222.484 289.189 222.552 288.297C222.689 287.336 222.964 286.444 223.375 285.621C221.592 284.111 219.773 282.945 217.921 282.122C216.137 281.23 214.044 280.921 211.643 281.195C210.202 280.303 208.658 279.789 207.012 279.652C205.434 279.514 203.821 279.309 202.175 279.034C201.763 278.966 201.317 278.897 200.837 278.828C200.425 278.691 199.979 278.623 199.499 278.623C199.156 278.623 198.813 278.725 198.47 278.931C198.195 279.068 198.127 279.309 198.264 279.652C197.921 279.103 197.44 278.794 196.823 278.725C196.274 278.588 195.794 278.314 195.382 277.902C193.187 277.765 191.265 277.388 189.619 276.77C187.972 276.084 186.154 275.329 184.164 274.506C183.615 274.3 183.066 274.163 182.518 274.094C182.037 273.957 181.557 273.751 181.077 273.477C179.842 272.859 178.847 272.036 178.092 271.007C177.337 269.978 176.754 268.845 176.343 267.61C175.862 266.307 175.519 264.969 175.313 263.597C175.108 262.224 174.902 260.955 174.696 259.789C175.313 258.691 175.897 257.559 176.446 256.393C176.926 255.226 177.337 253.991 177.681 252.688C178.092 252.482 178.504 252.31 178.916 252.173C179.327 252.036 179.773 251.864 180.253 251.658C180.185 251.521 180.151 251.35 180.151 251.144C180.151 250.801 180.253 250.458 180.459 250.115C180.734 249.772 180.802 249.429 180.665 249.085C182.175 247.713 183.615 246.307 184.988 244.866C186.428 243.356 187.663 241.71 188.693 239.926C189.722 239.583 190.545 239.068 191.163 238.382C191.78 237.696 192.398 237.01 193.015 236.324C193.633 235.569 194.319 234.917 195.073 234.368C195.828 233.751 196.789 233.374 197.955 233.236C198.23 232.756 198.607 232.379 199.087 232.104C199.567 231.761 200.048 231.452 200.528 231.178C201.008 230.904 201.454 230.595 201.866 230.252C202.278 229.909 202.586 229.428 202.792 228.811C203.89 228.811 204.885 228.605 205.777 228.193C206.737 227.782 207.664 227.336 208.555 226.856C209.447 226.375 210.339 225.929 211.231 225.518C212.192 225.106 213.221 224.9 214.319 224.9C214.593 224.9 214.868 224.934 215.142 225.003C215.417 225.003 215.725 225.037 216.068 225.106C216.549 225.586 216.857 226.169 216.995 226.856C217.2 227.473 217.338 228.159 217.406 228.914C217.475 229.669 217.509 230.423 217.509 231.178C217.578 231.933 217.715 232.619 217.921 233.236C217.303 234.403 216.617 235.569 215.863 236.735C215.176 237.902 214.25 238.794 213.084 239.411H212.878C212.398 239.48 211.952 239.377 211.54 239.103C211.128 238.828 210.648 238.691 210.099 238.691C209.756 238.691 209.482 238.794 209.276 239L208.761 239.514C208.624 239.651 208.418 239.789 208.144 239.926C207.938 240.063 207.629 240.063 207.218 239.926C206.257 240.269 205.88 240.852 206.085 241.675C204.782 241.813 203.684 242.224 202.792 242.91C201.9 243.528 201.077 244.248 200.322 245.072C199.567 245.826 198.813 246.547 198.058 247.233C197.303 247.85 196.411 248.194 195.382 248.262C194.216 250.32 192.775 252.139 191.06 253.717C189.413 255.295 188.041 257.079 186.943 259.068C187.149 259.617 187.286 260.2 187.355 260.818C187.423 261.435 187.526 262.087 187.663 262.773C188.281 263.597 189.001 264.317 189.825 264.935C190.717 265.552 191.574 266.17 192.398 266.787H192.706C194.079 266.787 195.348 267.062 196.514 267.61C197.681 268.091 198.916 268.331 200.219 268.331C200.905 268.331 201.489 268.194 201.969 267.919C203.753 268.331 205.502 268.674 207.218 268.948C209.001 269.223 210.785 269.429 212.569 269.566C213.461 269.703 214.353 269.772 215.245 269.772C216.206 269.772 217.098 269.875 217.921 270.08C218.676 270.286 219.43 270.561 220.185 270.904C220.94 271.178 221.694 271.487 222.449 271.83C224.027 272.516 225.502 273.271 226.875 274.094C228.315 274.918 229.585 275.912 230.683 277.079C231.78 278.177 232.638 279.48 233.255 280.99C233.873 282.43 234.182 284.111 234.182 286.033ZM286.978 240.955C286.909 241.984 286.635 242.773 286.155 243.322C285.743 243.871 285.537 244.557 285.537 245.38C285.537 245.929 285.64 246.41 285.846 246.821C285.366 247.027 285.125 247.405 285.125 247.953H284.714C284.165 247.953 283.616 248.091 283.067 248.365C282.587 248.64 282.072 248.777 281.523 248.777C279.739 248.777 278.23 248.331 276.995 247.439C275.76 246.478 274.422 245.689 272.981 245.072C272.638 244.935 272.295 244.866 271.952 244.866H271.026C270.546 244.866 270.202 244.797 269.997 244.66C269.928 244.523 269.859 244.351 269.791 244.145C269.791 243.871 269.722 243.665 269.585 243.528C269.516 243.459 269.208 243.356 268.659 243.219C268.11 243.013 267.492 242.808 266.806 242.602C266.189 242.396 265.571 242.19 264.954 241.984C264.336 241.71 263.925 241.504 263.719 241.367C263.376 241.161 263.067 240.818 262.792 240.338C262.587 239.789 262.244 239.651 261.763 239.926C261.832 239.72 261.866 239.514 261.866 239.308C261.866 238.965 261.763 238.622 261.557 238.279C261.42 237.868 261.146 237.662 260.734 237.662C260.597 237.662 260.425 237.696 260.22 237.765C260.082 237.833 259.911 237.868 259.705 237.868C259.568 237.868 259.431 237.799 259.293 237.662C258.744 236.976 258.161 236.29 257.544 235.603C256.446 234.437 255.314 233.408 254.147 232.516C252.981 231.624 252.089 230.389 251.472 228.811C250.237 228.193 249.173 227.439 248.281 226.547L245.605 223.871C244.713 222.979 243.753 222.19 242.724 221.504C241.695 220.749 240.425 220.235 238.916 219.96V219.24C238.916 218.348 239.053 217.49 239.328 216.667C239.602 215.843 239.739 215.02 239.739 214.197C239.739 213.785 239.705 213.476 239.636 213.271C240.597 212.927 241.214 212.344 241.489 211.521C241.763 210.629 241.9 209.737 241.9 208.845C242.587 208.09 243.478 207.644 244.576 207.507C245.674 207.37 246.669 207.301 247.561 207.301H248.59C248.933 207.301 249.276 207.336 249.619 207.404C251.266 208.365 252.569 209.566 253.53 211.006C254.559 212.447 255.348 214.06 255.897 215.843C256.858 216.598 257.681 217.49 258.367 218.519C259.122 219.548 260.151 220.269 261.455 220.681C262.003 222.053 262.724 223.288 263.616 224.386C264.508 225.415 265.468 226.41 266.497 227.37C267.527 228.331 268.522 229.326 269.482 230.355C270.511 231.315 271.437 232.379 272.261 233.545C273.427 234.025 274.696 234.506 276.069 234.986C277.441 235.398 278.779 235.878 280.082 236.427C281.455 236.976 282.724 237.627 283.89 238.382C285.125 239.068 286.155 239.926 286.978 240.955ZM397.099 298.485C396.687 299.034 396.172 299.412 395.555 299.617C394.937 299.823 394.32 299.995 393.702 300.132C393.085 300.269 392.433 300.407 391.747 300.544C391.129 300.75 390.581 301.058 390.1 301.47C389.963 301.539 389.86 301.607 389.791 301.676C389.791 301.744 389.723 301.779 389.586 301.779C389.38 301.779 389.174 301.607 388.968 301.264C388.831 300.99 388.591 300.784 388.248 300.647C386.464 301.607 384.543 302.431 382.484 303.117C380.426 303.871 378.368 304.626 376.309 305.381C374.32 306.204 372.364 307.062 370.443 307.954C368.522 308.914 366.841 310.081 365.4 311.453C364.302 311.59 363.17 311.83 362.004 312.173C360.906 312.585 360.083 313.34 359.534 314.437H359.225C358.951 314.437 358.745 314.335 358.608 314.129C358.471 313.992 358.265 313.923 357.99 313.923C357.51 313.923 357.201 314.06 357.064 314.335C356.927 314.609 356.824 314.883 356.755 315.158C356.755 315.501 356.721 315.81 356.652 316.084C356.584 316.359 356.378 316.496 356.035 316.496C355.898 316.496 355.76 316.359 355.623 316.084C355.486 315.878 355.143 315.81 354.594 315.878C352.055 317.251 349.414 318.623 346.669 319.995C343.925 321.436 341.558 323.254 339.568 325.45C339.431 325.312 339.259 325.244 339.054 325.244C338.916 325.244 338.814 325.244 338.745 325.244L338.642 325.347C338.505 325.347 338.402 325.312 338.333 325.244C338.265 325.175 338.196 325.141 338.127 325.141C336.549 326.513 334.868 327.748 333.084 328.846C331.369 330.012 329.62 331.144 327.836 332.242C326.052 333.34 324.302 334.438 322.587 335.535C320.872 336.702 319.259 338.005 317.75 339.446C316.789 339.515 315.829 339.721 314.868 340.064C313.908 340.407 312.947 340.75 311.987 341.093C311.095 341.436 310.168 341.745 309.208 342.019C308.247 342.362 307.287 342.534 306.326 342.534C304.542 342.534 303.067 341.745 301.901 340.167C301.695 340.304 301.489 340.407 301.283 340.475C301.146 340.544 300.975 340.578 300.769 340.578C300.22 340.578 299.705 340.338 299.225 339.858C298.813 339.446 298.23 339.309 297.475 339.446C296.583 338.486 295.932 337.251 295.52 335.741C295.177 334.3 294.731 332.962 294.182 331.727C294.319 329.052 294.765 326.444 295.52 323.906C296.343 321.436 296.858 318.863 297.064 316.187C297.681 315.57 298.161 314.849 298.505 314.026C298.848 313.271 299.156 312.448 299.431 311.556C299.774 310.732 300.117 309.909 300.46 309.086C300.803 308.262 301.283 307.576 301.901 307.027C302.312 304.969 302.999 303.014 303.959 301.161C304.92 299.309 305.571 297.319 305.915 295.192C306.463 294.849 306.909 294.437 307.252 293.957C307.664 293.477 308.11 293.031 308.59 292.619V292.002C308.59 291.453 308.453 291.041 308.179 290.767C308.659 289.532 309.174 288.365 309.722 287.268C310.34 286.17 310.923 285.072 311.472 283.974C312.021 282.876 312.501 281.744 312.913 280.578C313.325 279.412 313.599 278.142 313.736 276.77C314.285 276.29 314.697 275.707 314.971 275.02C315.246 274.266 315.486 273.545 315.692 272.859C315.966 272.104 316.24 271.418 316.515 270.801C316.858 270.183 317.407 269.703 318.162 269.36C318.093 269.223 318.059 269.051 318.059 268.845C318.059 268.159 318.23 267.542 318.573 266.993C318.985 266.444 319.191 265.861 319.191 265.243C319.191 264.9 319.088 264.557 318.882 264.214C320.254 261.333 321.592 258.519 322.896 255.775C324.199 252.962 325.194 249.977 325.88 246.821C326.566 246.478 326.978 245.964 327.115 245.278C327.253 244.591 327.561 243.974 328.042 243.425V242.91C328.042 241.744 328.282 240.44 328.762 239C329.311 237.559 329.963 236.358 330.717 235.398C331.06 232.996 331.438 230.492 331.849 227.885C332.33 225.209 333.05 222.773 334.011 220.578C333.874 220.097 333.668 219.617 333.393 219.137C333.187 218.656 333.016 218.142 332.879 217.593C331.163 218.554 329.208 219.411 327.012 220.166C326.601 220.303 326.155 220.44 325.674 220.578C325.194 220.646 324.783 220.783 324.439 220.989C324.028 221.126 323.788 221.47 323.719 222.018C323.65 222.499 323.616 222.91 323.616 223.253C322.793 223.253 322.141 223.425 321.661 223.768C321.18 224.111 320.7 224.523 320.22 225.003C319.808 225.415 319.362 225.826 318.882 226.238C318.402 226.581 317.784 226.821 317.03 226.958C316.206 227.782 315.52 228.434 314.971 228.914C314.422 229.326 313.633 229.737 312.604 230.149C312.261 230.286 311.918 230.561 311.575 230.972L310.546 232.207C310.203 232.619 309.86 232.962 309.517 233.236C309.242 233.511 308.933 233.614 308.59 233.545C308.385 234.163 308.076 234.677 307.664 235.089C307.321 235.501 306.944 235.912 306.532 236.324C306.12 236.667 305.777 237.079 305.503 237.559C305.228 238.039 305.125 238.657 305.194 239.411C304.92 239.686 304.68 239.823 304.474 239.823C304.268 239.823 304.028 239.686 303.753 239.411C303.616 240.235 303.342 240.921 302.93 241.47C302.587 241.95 302.175 242.396 301.695 242.808C301.215 243.219 300.7 243.631 300.151 244.043C299.602 244.454 299.088 244.9 298.607 245.38C297.99 245.312 297.441 245.175 296.961 244.969C296.549 244.763 296.103 244.557 295.623 244.351C295.143 244.145 294.628 244.008 294.079 243.94C293.599 243.802 292.981 243.768 292.227 243.837C292.295 243.425 292.227 243.116 292.021 242.91C291.815 242.705 291.541 242.533 291.197 242.396C291.197 241.847 291.197 241.161 291.197 240.338C291.266 239.514 291.3 238.691 291.3 237.868C291.369 236.976 291.472 236.152 291.609 235.398C291.746 234.643 291.952 234.025 292.227 233.545C292.638 232.859 293.29 232.241 294.182 231.693C295.143 231.144 296.137 230.595 297.167 230.046C298.264 229.428 299.294 228.811 300.254 228.193C301.283 227.507 302.107 226.684 302.724 225.723C302.793 225.792 302.93 225.826 303.136 225.826C303.685 225.826 304.131 225.689 304.474 225.415C304.817 224.797 305.263 224.351 305.812 224.077C306.429 223.802 306.978 223.391 307.458 222.842C307.664 222.636 307.767 222.396 307.767 222.121C307.836 221.778 307.973 221.504 308.179 221.298C308.385 221.092 308.762 220.886 309.311 220.681C309.928 220.475 310.409 220.2 310.752 219.857C311.163 219.514 311.472 219.137 311.678 218.725C311.952 218.313 312.261 217.936 312.604 217.593C313.153 217.181 313.736 216.873 314.354 216.667C315.04 216.461 315.692 216.186 316.309 215.843C316.927 215.432 317.475 214.951 317.956 214.403C318.505 213.854 318.916 213.202 319.191 212.447C320.563 211.83 321.901 211.212 323.204 210.595C324.508 209.909 325.777 209.188 327.012 208.433C327.699 208.022 328.35 207.576 328.968 207.096C329.585 206.547 330.203 206.032 330.82 205.552C331.506 205.072 332.193 204.66 332.879 204.317C333.633 203.974 334.422 203.802 335.246 203.802C336.275 203.802 337.064 204.008 337.613 204.42C338.162 204.763 338.642 205.174 339.054 205.655C339.534 206.066 340.014 206.512 340.494 206.993C341.043 207.473 341.729 207.816 342.553 208.022C343.239 209.12 343.685 210.32 343.891 211.624C344.165 212.859 344.337 214.162 344.405 215.535C344.474 216.838 344.474 218.142 344.405 219.446C344.405 220.749 344.508 222.018 344.714 223.253C344.302 224.42 343.822 225.552 343.273 226.65C342.724 227.747 342.45 228.914 342.45 230.149C342.45 230.629 342.484 231.041 342.553 231.384H341.318C341.043 233.648 340.529 235.878 339.774 238.073C339.019 240.2 338.162 242.327 337.201 244.454L334.422 250.732C333.53 252.79 332.776 254.917 332.158 257.113C332.021 257.73 331.781 258.108 331.438 258.245C331.095 258.314 330.855 258.588 330.717 259.068C330.374 259.823 330.1 260.646 329.894 261.538C329.688 262.43 329.414 263.288 329.071 264.111C328.385 265.895 327.699 267.61 327.012 269.257C326.326 270.904 325.606 272.516 324.851 274.094V275.123C324.851 275.466 324.954 275.638 325.16 275.638C322.964 278.657 321.489 282.087 320.734 285.93C320.186 286.341 319.774 286.856 319.499 287.473C319.294 288.022 318.951 288.503 318.47 288.914C317.99 290.904 317.338 292.859 316.515 294.78C315.76 296.633 314.971 298.485 314.148 300.338C313.325 302.19 312.535 304.043 311.781 305.895C311.026 307.817 310.443 309.772 310.031 311.762C309.276 312.448 308.659 313.271 308.179 314.232C307.767 315.192 307.39 316.221 307.047 317.319C306.772 318.417 306.498 319.515 306.223 320.612C306.017 321.71 305.777 322.705 305.503 323.597L304.474 327.302V329.36C304.474 329.703 304.439 330.081 304.371 330.492C304.302 330.904 304.096 331.179 303.753 331.316C303.89 331.796 304.062 332.173 304.268 332.448C304.542 332.722 304.611 333.1 304.474 333.58C304.748 334.129 305.228 334.438 305.915 334.506C306.669 334.643 307.321 334.815 307.87 335.021C308.419 334.884 308.728 334.575 308.796 334.095C308.865 333.614 309.036 333.203 309.311 332.86C309.928 332.036 310.855 331.144 312.09 330.184C313.393 329.223 314.765 328.228 316.206 327.199C317.716 326.17 319.156 325.175 320.529 324.215C321.969 323.323 323.136 322.499 324.028 321.745H325.88C328.35 320.166 330.82 318.623 333.29 317.113C335.76 315.672 338.333 314.369 341.009 313.202C341.695 312.311 342.518 311.624 343.479 311.144C344.508 310.664 345.537 310.184 346.567 309.703C347.664 309.292 348.693 308.846 349.654 308.365C350.683 307.885 351.507 307.199 352.124 306.307C352.879 306.17 353.702 305.998 354.594 305.792C355.486 305.587 356.138 305.106 356.549 304.352H356.961C357.167 304.352 357.373 304.386 357.579 304.455C357.784 304.592 357.922 304.798 357.99 305.072C358.471 304.935 358.745 304.626 358.814 304.146C358.951 303.666 359.191 303.254 359.534 302.911C361.524 302.156 363.548 301.367 365.606 300.544C367.664 299.72 369.688 298.794 371.678 297.765C372.639 297.765 373.702 297.628 374.869 297.353C376.104 297.079 377.03 296.461 377.647 295.501C377.785 295.569 377.956 295.604 378.162 295.604C378.917 295.604 379.637 295.501 380.323 295.295C381.078 295.021 381.833 294.746 382.587 294.472C383.342 294.129 384.097 293.82 384.851 293.545C385.606 293.271 386.395 293.099 387.219 293.031H387.424C387.562 293.031 387.596 292.859 387.527 292.516C387.527 292.105 387.527 291.864 387.527 291.796C387.527 291.521 387.665 291.418 387.939 291.487C388.145 291.418 388.488 291.384 388.968 291.384C389.723 291.384 390.409 291.556 391.026 291.899C391.713 292.173 392.364 292.516 392.982 292.928C393.599 293.34 394.217 293.786 394.834 294.266C395.452 294.678 396.104 294.986 396.79 295.192C396.653 295.741 396.584 296.187 396.584 296.53C396.584 296.873 396.618 297.216 396.687 297.559C396.824 297.834 396.961 298.142 397.099 298.485ZM476.653 298.485C476.241 299.034 475.727 299.412 475.109 299.617C474.492 299.823 473.874 299.995 473.257 300.132C472.639 300.269 471.987 300.407 471.301 300.544C470.684 300.75 470.135 301.058 469.655 301.47C469.517 301.539 469.415 301.607 469.346 301.676C469.346 301.744 469.277 301.779 469.14 301.779C468.934 301.779 468.728 301.607 468.523 301.264C468.385 300.99 468.145 300.784 467.802 300.647C466.018 301.607 464.097 302.431 462.039 303.117C459.981 303.871 457.922 304.626 455.864 305.381C453.874 306.204 451.919 307.062 449.998 307.954C448.077 308.914 446.396 310.081 444.955 311.453C443.857 311.59 442.725 311.83 441.558 312.173C440.461 312.585 439.637 313.34 439.089 314.437H438.78C438.505 314.437 438.299 314.335 438.162 314.129C438.025 313.992 437.819 313.923 437.545 313.923C437.064 313.923 436.756 314.06 436.619 314.335C436.481 314.609 436.378 314.883 436.31 315.158C436.31 315.501 436.275 315.81 436.207 316.084C436.138 316.359 435.932 316.496 435.589 316.496C435.452 316.496 435.315 316.359 435.178 316.084C435.04 315.878 434.697 315.81 434.149 315.878C431.61 317.251 428.968 318.623 426.224 319.995C423.479 321.436 421.112 323.254 419.123 325.45C418.985 325.312 418.814 325.244 418.608 325.244C418.471 325.244 418.368 325.244 418.299 325.244L418.196 325.347C418.059 325.347 417.956 325.312 417.888 325.244C417.819 325.175 417.75 325.141 417.682 325.141C416.104 326.513 414.423 327.748 412.639 328.846C410.924 330.012 409.174 331.144 407.39 332.242C405.606 333.34 403.857 334.438 402.141 335.535C400.426 336.702 398.814 338.005 397.304 339.446C396.344 339.515 395.383 339.721 394.423 340.064C393.462 340.407 392.502 340.75 391.541 341.093C390.649 341.436 389.723 341.745 388.762 342.019C387.802 342.362 386.841 342.534 385.881 342.534C384.097 342.534 382.622 341.745 381.455 340.167C381.249 340.304 381.044 340.407 380.838 340.475C380.701 340.544 380.529 340.578 380.323 340.578C379.774 340.578 379.26 340.338 378.779 339.858C378.368 339.446 377.785 339.309 377.03 339.446C376.138 338.486 375.486 337.251 375.074 335.741C374.731 334.3 374.285 332.962 373.737 331.727C373.874 329.052 374.32 326.444 375.074 323.906C375.898 321.436 376.412 318.863 376.618 316.187C377.236 315.57 377.716 314.849 378.059 314.026C378.402 313.271 378.711 312.448 378.985 311.556C379.328 310.732 379.671 309.909 380.014 309.086C380.357 308.262 380.838 307.576 381.455 307.027C381.867 304.969 382.553 303.014 383.514 301.161C384.474 299.309 385.126 297.319 385.469 295.192C386.018 294.849 386.464 294.437 386.807 293.957C387.219 293.477 387.665 293.031 388.145 292.619V292.002C388.145 291.453 388.008 291.041 387.733 290.767C388.213 289.532 388.728 288.365 389.277 287.268C389.894 286.17 390.478 285.072 391.026 283.974C391.575 282.876 392.056 281.744 392.467 280.578C392.879 279.412 393.153 278.142 393.291 276.77C393.84 276.29 394.251 275.707 394.526 275.02C394.8 274.266 395.04 273.545 395.246 272.859C395.521 272.104 395.795 271.418 396.069 270.801C396.412 270.183 396.961 269.703 397.716 269.36C397.647 269.223 397.613 269.051 397.613 268.845C397.613 268.159 397.785 267.542 398.128 266.993C398.539 266.444 398.745 265.861 398.745 265.243C398.745 264.9 398.642 264.557 398.436 264.214C399.809 261.333 401.147 258.519 402.45 255.775C403.754 252.962 404.749 249.977 405.435 246.821C406.121 246.478 406.533 245.964 406.67 245.278C406.807 244.591 407.116 243.974 407.596 243.425V242.91C407.596 241.744 407.836 240.44 408.316 239C408.865 237.559 409.517 236.358 410.272 235.398C410.615 232.996 410.992 230.492 411.404 227.885C411.884 225.209 412.605 222.773 413.565 220.578C413.428 220.097 413.222 219.617 412.948 219.137C412.742 218.656 412.57 218.142 412.433 217.593C410.718 218.554 408.762 219.411 406.567 220.166C406.155 220.303 405.709 220.44 405.229 220.578C404.749 220.646 404.337 220.783 403.994 220.989C403.582 221.126 403.342 221.47 403.274 222.018C403.205 222.499 403.171 222.91 403.171 223.253C402.347 223.253 401.695 223.425 401.215 223.768C400.735 224.111 400.255 224.523 399.774 225.003C399.363 225.415 398.917 225.826 398.436 226.238C397.956 226.581 397.339 226.821 396.584 226.958C395.761 227.782 395.075 228.434 394.526 228.914C393.977 229.326 393.188 229.737 392.159 230.149C391.816 230.286 391.472 230.561 391.129 230.972L390.1 232.207C389.757 232.619 389.414 232.962 389.071 233.236C388.797 233.511 388.488 233.614 388.145 233.545C387.939 234.163 387.63 234.677 387.219 235.089C386.876 235.501 386.498 235.912 386.086 236.324C385.675 236.667 385.332 237.079 385.057 237.559C384.783 238.039 384.68 238.657 384.749 239.411C384.474 239.686 384.234 239.823 384.028 239.823C383.822 239.823 383.582 239.686 383.308 239.411C383.171 240.235 382.896 240.921 382.484 241.47C382.141 241.95 381.73 242.396 381.249 242.808C380.769 243.219 380.255 243.631 379.706 244.043C379.157 244.454 378.642 244.9 378.162 245.38C377.544 245.312 376.996 245.175 376.515 244.969C376.104 244.763 375.658 244.557 375.177 244.351C374.697 244.145 374.182 244.008 373.634 243.94C373.153 243.802 372.536 243.768 371.781 243.837C371.85 243.425 371.781 243.116 371.575 242.91C371.369 242.705 371.095 242.533 370.752 242.396C370.752 241.847 370.752 241.161 370.752 240.338C370.821 239.514 370.855 238.691 370.855 237.868C370.923 236.976 371.026 236.152 371.164 235.398C371.301 234.643 371.507 234.025 371.781 233.545C372.193 232.859 372.845 232.241 373.737 231.693C374.697 231.144 375.692 230.595 376.721 230.046C377.819 229.428 378.848 228.811 379.809 228.193C380.838 227.507 381.661 226.684 382.279 225.723C382.347 225.792 382.484 225.826 382.69 225.826C383.239 225.826 383.685 225.689 384.028 225.415C384.371 224.797 384.817 224.351 385.366 224.077C385.984 223.802 386.532 223.391 387.013 222.842C387.219 222.636 387.321 222.396 387.321 222.121C387.39 221.778 387.527 221.504 387.733 221.298C387.939 221.092 388.316 220.886 388.865 220.681C389.483 220.475 389.963 220.2 390.306 219.857C390.718 219.514 391.026 219.137 391.232 218.725C391.507 218.313 391.816 217.936 392.159 217.593C392.707 217.181 393.291 216.873 393.908 216.667C394.594 216.461 395.246 216.186 395.864 215.843C396.481 215.432 397.03 214.951 397.51 214.403C398.059 213.854 398.471 213.202 398.745 212.447C400.117 211.83 401.455 211.212 402.759 210.595C404.063 209.909 405.332 209.188 406.567 208.433C407.253 208.022 407.905 207.576 408.522 207.096C409.14 206.547 409.757 206.032 410.375 205.552C411.061 205.072 411.747 204.66 412.433 204.317C413.188 203.974 413.977 203.802 414.8 203.802C415.829 203.802 416.618 204.008 417.167 204.42C417.716 204.763 418.196 205.174 418.608 205.655C419.088 206.066 419.569 206.512 420.049 206.993C420.598 207.473 421.284 207.816 422.107 208.022C422.793 209.12 423.239 210.32 423.445 211.624C423.72 212.859 423.891 214.162 423.96 215.535C424.028 216.838 424.028 218.142 423.96 219.446C423.96 220.749 424.063 222.018 424.269 223.253C423.857 224.42 423.377 225.552 422.828 226.65C422.279 227.747 422.004 228.914 422.004 230.149C422.004 230.629 422.039 231.041 422.107 231.384H420.872C420.598 233.648 420.083 235.878 419.329 238.073C418.574 240.2 417.716 242.327 416.756 244.454L413.977 250.732C413.085 252.79 412.33 254.917 411.713 257.113C411.575 257.73 411.335 258.108 410.992 258.245C410.649 258.314 410.409 258.588 410.272 259.068C409.929 259.823 409.654 260.646 409.449 261.538C409.243 262.43 408.968 263.288 408.625 264.111C407.939 265.895 407.253 267.61 406.567 269.257C405.881 270.904 405.16 272.516 404.406 274.094V275.123C404.406 275.466 404.509 275.638 404.714 275.638C402.519 278.657 401.044 282.087 400.289 285.93C399.74 286.341 399.328 286.856 399.054 287.473C398.848 288.022 398.505 288.503 398.025 288.914C397.545 290.904 396.893 292.859 396.069 294.78C395.315 296.633 394.526 298.485 393.702 300.338C392.879 302.19 392.09 304.043 391.335 305.895C390.581 307.817 389.997 309.772 389.586 311.762C388.831 312.448 388.213 313.271 387.733 314.232C387.321 315.192 386.944 316.221 386.601 317.319C386.327 318.417 386.052 319.515 385.778 320.612C385.572 321.71 385.332 322.705 385.057 323.597L384.028 327.302V329.36C384.028 329.703 383.994 330.081 383.925 330.492C383.857 330.904 383.651 331.179 383.308 331.316C383.445 331.796 383.616 332.173 383.822 332.448C384.097 332.722 384.165 333.1 384.028 333.58C384.303 334.129 384.783 334.438 385.469 334.506C386.224 334.643 386.876 334.815 387.424 335.021C387.973 334.884 388.282 334.575 388.351 334.095C388.419 333.614 388.591 333.203 388.865 332.86C389.483 332.036 390.409 331.144 391.644 330.184C392.948 329.223 394.32 328.228 395.761 327.199C397.27 326.17 398.711 325.175 400.083 324.215C401.524 323.323 402.69 322.499 403.582 321.745H405.435C407.905 320.166 410.375 318.623 412.845 317.113C415.315 315.672 417.888 314.369 420.564 313.202C421.25 312.311 422.073 311.624 423.034 311.144C424.063 310.664 425.092 310.184 426.121 309.703C427.219 309.292 428.248 308.846 429.209 308.365C430.238 307.885 431.061 307.199 431.679 306.307C432.433 306.17 433.257 305.998 434.149 305.792C435.04 305.587 435.692 305.106 436.104 304.352H436.516C436.721 304.352 436.927 304.386 437.133 304.455C437.339 304.592 437.476 304.798 437.545 305.072C438.025 304.935 438.299 304.626 438.368 304.146C438.505 303.666 438.745 303.254 439.089 302.911C441.078 302.156 443.102 301.367 445.161 300.544C447.219 299.72 449.243 298.794 451.233 297.765C452.193 297.765 453.257 297.628 454.423 297.353C455.658 297.079 456.584 296.461 457.202 295.501C457.339 295.569 457.511 295.604 457.716 295.604C458.471 295.604 459.192 295.501 459.878 295.295C460.632 295.021 461.387 294.746 462.142 294.472C462.897 294.129 463.651 293.82 464.406 293.545C465.161 293.271 465.95 293.099 466.773 293.031H466.979C467.116 293.031 467.15 292.859 467.082 292.516C467.082 292.105 467.082 291.864 467.082 291.796C467.082 291.521 467.219 291.418 467.493 291.487C467.699 291.418 468.042 291.384 468.523 291.384C469.277 291.384 469.963 291.556 470.581 291.899C471.267 292.173 471.919 292.516 472.536 292.928C473.154 293.34 473.771 293.786 474.389 294.266C475.006 294.678 475.658 294.986 476.344 295.192C476.207 295.741 476.138 296.187 476.138 296.53C476.138 296.873 476.173 297.216 476.241 297.559C476.379 297.834 476.516 298.142 476.653 298.485Z" fill="white"/>
</svg>
