<svg width="72" height="72" viewBox="0 0 72 72" fill="none" xmlns="http://www.w3.org/2000/svg">
<circle cx="36" cy="36" r="36" fill="#319795"/>
<path d="M29.5471 45.2482C29.5471 45.3546 29.5229 45.4561 29.4746 45.5527C29.2812 45.6591 29.0782 45.7316 28.8655 45.7702C28.6625 45.8186 28.4595 45.8428 28.2565 45.8428C28.1598 45.8428 28.0535 45.8379 27.9375 45.8283C27.8311 45.8283 27.7345 45.8186 27.6474 45.7993C27.6184 45.7896 27.5846 45.7702 27.5459 45.7412C27.5073 45.7122 27.4686 45.6977 27.4299 45.6977C27.3333 45.6977 27.2414 45.7122 27.1544 45.7412C27.0674 45.7799 26.9756 45.7993 26.8789 45.7993C26.8306 45.7993 26.7822 45.7848 26.7339 45.7557C26.6952 45.7267 26.6517 45.7074 26.6034 45.6977C26.5357 45.6784 26.468 45.6736 26.4004 45.6832C26.3327 45.6929 26.2602 45.6977 26.1829 45.6977C26.0765 45.6977 25.9798 45.6832 25.8928 45.6542C25.8155 45.6252 25.743 45.5721 25.6753 45.4947C25.4336 45.4657 25.1968 45.4174 24.9648 45.3497C24.7328 45.2917 24.5007 45.224 24.2687 45.1467C24.0367 45.079 23.8047 45.0114 23.5727 44.9437C23.3407 44.8857 23.1038 44.847 22.8621 44.8277C22.8041 44.76 22.7365 44.7068 22.6591 44.6682C22.5818 44.6392 22.5238 44.586 22.4851 44.5087C22.4368 44.5087 22.4029 44.5135 22.3836 44.5232C22.3643 44.5425 22.3304 44.5522 22.2821 44.5522C22.1177 44.4168 21.9389 44.3008 21.7456 44.2041C21.5619 44.1075 21.3685 44.0156 21.1655 43.9286C20.9722 43.8416 20.7788 43.7498 20.5855 43.6531C20.4018 43.5661 20.2278 43.4501 20.0634 43.3051H19.9909C19.9136 43.3148 19.8459 43.2954 19.7879 43.2471C19.7396 43.2084 19.6768 43.1891 19.5994 43.1891C19.5511 43.1891 19.5124 43.1939 19.4834 43.2036C19.4544 43.1262 19.4109 43.0634 19.3529 43.0151C19.2949 42.9667 19.2321 42.9184 19.1644 42.8701C19.1064 42.8314 19.0484 42.7879 18.9904 42.7395C18.9324 42.7009 18.8889 42.6477 18.8599 42.58C18.6182 42.493 18.3813 42.3867 18.1493 42.261C17.927 42.145 17.7288 41.9903 17.5548 41.797C17.3614 41.7777 17.2019 41.7196 17.0762 41.623C16.9506 41.5166 16.8346 41.3861 16.7282 41.2314C16.4962 41.1541 16.2835 41.0526 16.0902 40.9269C15.8968 40.8013 15.7035 40.6707 15.5101 40.5354C15.3265 40.4001 15.1283 40.2792 14.9156 40.1729C14.7126 40.0569 14.4806 39.9747 14.2196 39.9264C14.2099 39.8587 14.1809 39.8104 14.1326 39.7814C14.0842 39.7427 14.0262 39.7137 13.9585 39.6943C13.9005 39.6653 13.8425 39.6412 13.7845 39.6218C13.7265 39.6025 13.683 39.5638 13.654 39.5058C13.625 39.5058 13.596 39.5058 13.567 39.5058C13.538 39.4962 13.509 39.4913 13.48 39.4913C13.451 39.4913 13.4172 39.4962 13.3785 39.5058C13.3495 39.5058 13.3205 39.5058 13.2915 39.5058L13.306 39.4623C13.306 39.4237 13.2915 39.3995 13.2625 39.3898C13.2432 39.3802 13.2142 39.3705 13.1755 39.3608C13.1368 39.3512 13.103 39.3367 13.074 39.3173C13.045 39.298 13.0305 39.2545 13.0305 39.1868H12.987C12.8806 39.1868 12.784 39.1675 12.697 39.1288C12.61 39.0901 12.5133 39.0611 12.4069 39.0418C12.3876 39.1481 12.3779 39.2497 12.3779 39.3463V39.6073C12.3779 40.0424 12.4263 40.5016 12.5229 40.9849C12.6196 41.4586 12.7695 41.884 12.9725 42.261C13.1755 42.3384 13.3495 42.4399 13.4945 42.5655C13.6395 42.6912 13.7797 42.8362 13.915 43.0006C13.9247 43.2616 13.828 43.4791 13.625 43.6531C13.4317 43.8368 13.2045 43.9286 12.9435 43.9286C12.7985 43.9286 12.6631 43.89 12.5374 43.8126C12.4214 43.7449 12.3248 43.6434 12.2474 43.5081C12.1894 43.5081 12.1363 43.5178 12.0879 43.5371C12.0396 43.5661 11.9816 43.5806 11.9139 43.5806C11.8849 43.5806 11.8559 43.5758 11.8269 43.5661C11.7302 43.4018 11.6336 43.2567 11.5369 43.1311C11.4499 43.0054 11.3919 42.8362 11.3629 42.6235C11.2565 42.5752 11.1889 42.4882 11.1599 42.3625C11.1405 42.2368 11.0874 42.1353 11.0003 42.058C10.9617 41.623 10.9085 41.1879 10.8408 40.7529C10.7828 40.3179 10.7538 39.8829 10.7538 39.4478C10.7538 39.3512 10.7587 39.2545 10.7683 39.1578C10.778 39.0515 10.7877 38.9451 10.7973 38.8388C10.778 38.7905 10.749 38.747 10.7103 38.7083C10.6813 38.6599 10.6572 38.6116 10.6378 38.5633C10.4445 38.6116 10.2415 38.6599 10.0288 38.7083C9.82577 38.747 9.61792 38.7663 9.40524 38.7663C9.2699 38.7663 9.10555 38.747 8.91221 38.7083C8.71886 38.6599 8.56902 38.5971 8.46268 38.5198C8.38534 38.4714 8.33217 38.3844 8.30317 38.2588C8.2645 38.1234 8.24516 38.0074 8.24516 37.9107C8.24516 37.7464 8.27417 37.582 8.33217 37.4177C8.39017 37.2437 8.46751 37.0938 8.56419 36.9682C9.03788 36.7748 9.47775 36.538 9.88377 36.2576C10.2995 35.9773 10.7055 35.6727 11.1019 35.3441C11.1115 35.2474 11.126 35.1507 11.1454 35.054C11.1744 34.9574 11.1889 34.8559 11.1889 34.7495C11.1889 34.6335 11.1599 34.5223 11.1019 34.416C11.1599 34.358 11.1889 34.2855 11.1889 34.1985C11.1889 34.1018 11.213 34.0148 11.2614 33.9375V33.8505C11.2614 33.8118 11.2565 33.7731 11.2469 33.7345C11.2469 33.6958 11.2324 33.6571 11.2034 33.6184C11.271 33.2414 11.3242 32.8692 11.3629 32.5019C11.4015 32.1248 11.4209 31.7382 11.4209 31.3418C11.4209 31.3128 11.4354 31.2355 11.4644 31.1098C11.503 30.9744 11.5272 30.8826 11.5369 30.8343C11.5756 30.6119 11.5997 30.3944 11.6094 30.1817C11.6287 29.9594 11.6529 29.737 11.6819 29.5147C11.6916 29.4373 11.7109 29.3358 11.7399 29.2102C11.7689 29.0845 11.7834 28.9975 11.7834 28.9491C11.7834 28.8815 11.7689 28.838 11.7399 28.8186C11.7206 28.7896 11.7012 28.7461 11.6819 28.6881C11.7399 28.4658 11.7689 28.2434 11.7689 28.0211C11.7786 27.7891 11.7979 27.5619 11.8269 27.3395C11.9912 27.2719 12.1218 27.2042 12.2184 27.1365C12.3151 27.0688 12.4553 27.035 12.639 27.035H12.668C12.6873 27.151 12.7308 27.2622 12.7985 27.3685C12.8661 27.4652 12.9338 27.5667 13.0015 27.6731C13.0788 27.7697 13.1465 27.8664 13.2045 27.9631C13.2625 28.0501 13.2915 28.1371 13.2915 28.2241C13.2915 28.3884 13.277 28.5673 13.248 28.7606C13.219 28.954 13.1948 29.1328 13.1755 29.2972C13.1272 29.7322 13.0837 30.1624 13.045 30.5877C13.0063 31.0034 12.9483 31.4288 12.871 31.8638C12.9 31.9992 12.9145 32.1248 12.9145 32.2409C12.9145 32.4149 12.9 32.5889 12.871 32.7629C12.842 32.9369 12.8275 33.1157 12.8275 33.2994C12.8275 33.3864 12.8323 33.4783 12.842 33.5749C12.8613 33.6716 12.8903 33.7586 12.929 33.836C13.2577 33.749 13.5525 33.5701 13.8135 33.2994C13.8522 33.2608 13.8909 33.2124 13.9295 33.1544C13.9779 33.0867 14.0262 33.0336 14.0745 32.9949C14.1712 32.9176 14.2727 32.8499 14.3791 32.7919C14.4951 32.7242 14.6063 32.6565 14.7126 32.5889C14.9639 32.4245 15.2056 32.2554 15.4376 32.0813C15.6793 31.8977 15.921 31.7188 16.1627 31.5448C16.8781 31.0228 17.5693 30.4814 18.2363 29.9207C18.913 29.3503 19.5704 28.751 20.2085 28.1226C20.2375 27.9582 20.2955 27.8277 20.3825 27.7311C20.4695 27.6344 20.5468 27.5184 20.6145 27.383C20.7982 27.3154 20.9577 27.2139 21.093 27.0785C21.151 27.0978 21.209 27.1123 21.267 27.122C21.3347 27.122 21.3975 27.122 21.4555 27.122C21.5232 27.122 21.586 27.1268 21.644 27.1365C21.7117 27.1365 21.7697 27.151 21.8181 27.18C21.8277 27.325 21.8422 27.4555 21.8616 27.5715C21.8809 27.6876 21.9389 27.7987 22.0356 27.9051C22.0356 27.9244 22.0356 27.9437 22.0356 27.9631C22.0452 27.9824 22.0501 28.0017 22.0501 28.0211C22.0501 28.1274 22.0211 28.2144 21.9631 28.2821C21.9051 28.3498 21.8712 28.4319 21.8616 28.5286L21.1075 29.2827C20.8562 29.534 20.6241 29.8047 20.4115 30.0947C20.3341 30.1044 20.2665 30.1285 20.2085 30.1672C20.1505 30.2059 20.0924 30.2494 20.0344 30.2977C19.9861 30.3364 19.9329 30.3751 19.8749 30.4137C19.8169 30.4524 19.7541 30.4814 19.6864 30.5007C19.5124 30.7328 19.3142 30.9454 19.0919 31.1388C18.8695 31.3225 18.6424 31.5013 18.4103 31.6753C18.1783 31.8493 17.9463 32.0282 17.7143 32.2119C17.4919 32.3859 17.2841 32.5792 17.0907 32.7919C16.8877 32.8886 16.6896 33.0046 16.4962 33.1399C16.3125 33.2656 16.1627 33.4251 16.0467 33.6184H15.9742C15.9258 33.6184 15.8872 33.6329 15.8582 33.6619C15.8292 33.6813 15.7905 33.691 15.7422 33.691C15.2201 34.1453 14.6788 34.5755 14.1181 34.9815C13.5573 35.3779 13.0208 35.8129 12.5084 36.2866V36.6491C12.6728 36.7458 12.8516 36.8377 13.045 36.9247C13.2383 37.002 13.4268 37.089 13.6105 37.1857C13.8039 37.2824 13.9827 37.3887 14.1471 37.5047C14.3211 37.611 14.4709 37.7416 14.5966 37.8962C14.6159 37.8866 14.6401 37.8817 14.6691 37.8817C14.7561 37.8817 14.8238 37.9107 14.8721 37.9687C14.9204 38.0171 15.0026 38.0316 15.1186 38.0122C15.1573 38.1669 15.2443 38.2781 15.3796 38.3458C15.515 38.4134 15.6503 38.4714 15.7857 38.5198C15.9017 38.6358 16.008 38.747 16.1047 38.8533C16.2014 38.95 16.3415 39.0128 16.5252 39.0418C16.5445 39.0805 16.559 39.124 16.5687 39.1723C16.5784 39.2206 16.5977 39.2642 16.6267 39.3028C16.8104 39.3608 16.9844 39.443 17.1488 39.5493C17.3228 39.6557 17.4919 39.7669 17.6563 39.8829C17.8206 39.9892 17.985 40.0955 18.1493 40.2019C18.3233 40.2986 18.507 40.3759 18.7004 40.4339C18.7294 40.5306 18.7825 40.5982 18.8599 40.6369C18.9469 40.6756 19.0145 40.7336 19.0629 40.8109H19.3239C19.3529 40.8593 19.3916 40.9076 19.4399 40.9559C19.4882 40.9946 19.5221 41.0526 19.5414 41.1299C19.6187 41.1493 19.7058 41.1783 19.8024 41.2169C19.8991 41.246 19.9861 41.2846 20.0634 41.333C20.0924 41.362 20.1118 41.3958 20.1214 41.4345C20.1408 41.4731 20.1698 41.507 20.2085 41.536C20.2665 41.5843 20.3535 41.623 20.4695 41.652C20.5951 41.6713 20.7015 41.7051 20.7885 41.7535C20.9625 41.8502 21.1317 41.9565 21.296 42.0725C21.4604 42.1982 21.6344 42.3142 21.8181 42.4205L22.3836 42.725C22.4803 42.7734 22.5673 42.8266 22.6446 42.8846C22.7316 42.9426 22.8186 42.9957 22.9056 43.0441C23.0796 43.1214 23.2633 43.1697 23.4567 43.1891C23.6597 43.2181 23.8434 43.2713 24.0077 43.3486C24.056 43.3776 24.0899 43.4114 24.1092 43.4501C24.1285 43.4984 24.1624 43.5371 24.2107 43.5661C24.2881 43.6144 24.4089 43.6483 24.5732 43.6676C24.7376 43.6869 24.8729 43.7208 24.9793 43.7691C25.1146 43.8271 25.2451 43.8803 25.3708 43.9286C25.5061 43.9866 25.6415 44.0543 25.7768 44.1316C26.0668 44.151 26.352 44.1848 26.6324 44.2331C26.9224 44.2815 27.2076 44.3298 27.4879 44.3782C27.7683 44.4265 28.0486 44.47 28.329 44.5087C28.619 44.5473 28.909 44.5618 29.199 44.5522C29.199 44.5715 29.2087 44.5812 29.2281 44.5812C29.2571 44.5908 29.2812 44.5957 29.3006 44.5957C29.3682 44.702 29.4262 44.8084 29.4746 44.9147C29.5229 45.021 29.5471 45.1322 29.5471 45.2482ZM23.8772 40.0134C23.8289 40.0907 23.7709 40.1632 23.7032 40.2309C23.6355 40.2889 23.5727 40.3517 23.5147 40.4194C23.447 40.4484 23.3697 40.4629 23.2827 40.4629C23.2053 40.4629 23.128 40.4629 23.0506 40.4629C22.983 40.4532 22.9153 40.4532 22.8476 40.4629C22.7896 40.4629 22.7413 40.4822 22.7026 40.5209C22.6253 40.5016 22.5673 40.4677 22.5286 40.4194C22.4899 40.3614 22.4223 40.3276 22.3256 40.3179C22.2869 40.3082 22.2483 40.3082 22.2096 40.3179C22.0646 40.1535 21.9292 39.9795 21.8036 39.7959C21.6876 39.6122 21.5764 39.4382 21.47 39.2738C21.4604 38.9161 21.4314 38.5536 21.383 38.1862C21.3734 38.0992 21.3589 38.0122 21.3395 37.9252C21.3202 37.8382 21.3057 37.7561 21.296 37.6787C21.296 37.582 21.3009 37.4902 21.3105 37.4032C21.3299 37.3065 21.3444 37.2195 21.354 37.1422C21.3927 36.8618 21.4362 36.5863 21.4845 36.3156C21.5329 36.0449 21.5764 35.7694 21.615 35.4891C21.6537 35.2377 21.6731 34.9767 21.6731 34.706C21.6731 34.4257 21.6295 34.1646 21.5425 33.923L21.528 33.8505C21.5474 33.7731 21.5667 33.7103 21.586 33.6619C21.615 33.6039 21.6344 33.5411 21.6441 33.4734C21.6634 33.3671 21.6392 33.2898 21.5715 33.2414C21.6005 33.1641 21.6489 33.1157 21.7166 33.0964C21.7842 33.0674 21.8229 33.0094 21.8326 32.9224C21.8422 32.8837 21.8422 32.8451 21.8326 32.8064C21.9099 32.7774 21.9872 32.7532 22.0646 32.7339C22.1516 32.7049 22.2338 32.7001 22.3111 32.7194C22.4368 32.7387 22.5479 32.7822 22.6446 32.8499C22.7413 32.9079 22.8331 32.9756 22.9201 33.0529C23.0748 33.5169 23.1376 34.01 23.1086 34.532C23.0796 35.0444 23.0313 35.5616 22.9636 36.0836C22.896 36.6056 22.8525 37.118 22.8331 37.6207C22.8138 38.1137 22.8911 38.5729 23.0651 38.9983L23.0941 39.0128C23.1425 39.0225 23.1812 39.008 23.2102 38.9693C23.2392 38.921 23.2778 38.9016 23.3262 38.9113C23.3648 38.9306 23.389 38.9403 23.3987 38.9403C23.4373 39.1336 23.5002 39.3173 23.5872 39.4913C23.6742 39.6653 23.7709 39.8394 23.8772 40.0134ZM32.9258 40.1729C32.9258 40.3372 32.8823 40.4822 32.7953 40.6079C32.7179 40.7239 32.6889 40.8689 32.7083 41.0429C32.5729 41.1203 32.4618 41.2218 32.3748 41.3475C32.2878 41.4731 32.2056 41.6036 32.1282 41.739C31.4902 42.1547 30.8038 42.4882 30.0691 42.7395C29.3441 43.0006 28.5948 43.1311 27.8215 43.1311C27.7731 43.1311 27.7296 43.1069 27.691 43.0586C27.6523 43.0199 27.6136 42.9764 27.5749 42.9281C27.5363 42.8797 27.4928 42.8314 27.4444 42.7831C27.4058 42.7444 27.3574 42.725 27.2994 42.725C27.2318 42.725 27.1786 42.7395 27.1399 42.7686C27.1399 42.7492 27.1399 42.7299 27.1399 42.7105C27.1496 42.7009 27.1544 42.6864 27.1544 42.667C27.1544 42.551 27.1399 42.4302 27.1109 42.3045C27.0819 42.1885 27.0674 42.0725 27.0674 41.9565C27.0674 41.8212 27.0916 41.71 27.1399 41.623H27.3139C27.4106 41.623 27.5024 41.6181 27.5894 41.6085C27.6861 41.5891 27.7876 41.5795 27.894 41.5795C28.0003 41.5795 28.097 41.6085 28.184 41.6665C28.7157 41.6471 29.2184 41.5505 29.6921 41.3765C30.1754 41.1928 30.6636 41.0139 31.1567 40.8399C31.234 40.7336 31.2775 40.6176 31.2872 40.4919C31.3065 40.3566 31.3452 40.2309 31.4032 40.1149C31.1518 39.9022 30.8957 39.7379 30.6346 39.6218C30.3833 39.4962 30.0884 39.4527 29.7501 39.4913C29.5471 39.3657 29.3296 39.2932 29.0975 39.2738C28.8752 39.2545 28.648 39.2255 28.416 39.1868C28.358 39.1771 28.2952 39.1675 28.2275 39.1578C28.1695 39.1385 28.1066 39.1288 28.039 39.1288C27.9906 39.1288 27.9423 39.1433 27.894 39.1723C27.8553 39.1916 27.8456 39.2255 27.865 39.2738C27.8166 39.1965 27.749 39.153 27.6619 39.1433C27.5846 39.124 27.5169 39.0853 27.4589 39.0273C27.1496 39.008 26.8789 38.9548 26.6469 38.8678C26.4149 38.7711 26.1587 38.6648 25.8783 38.5488C25.801 38.5198 25.7237 38.5004 25.6463 38.4908C25.5786 38.4714 25.511 38.4424 25.4433 38.4038C25.2693 38.3168 25.1291 38.2007 25.0228 38.0557C24.9164 37.9107 24.8343 37.7512 24.7763 37.5772C24.7086 37.3935 24.6602 37.205 24.6312 37.0117C24.6022 36.8183 24.5732 36.6395 24.5442 36.4751C24.6312 36.3205 24.7134 36.1609 24.7908 35.9966C24.8584 35.8323 24.9164 35.6582 24.9648 35.4746C25.0228 35.4456 25.0808 35.4214 25.1388 35.4021C25.1968 35.3827 25.2596 35.3586 25.3273 35.3296C25.3176 35.3102 25.3128 35.2861 25.3128 35.2571C25.3128 35.2087 25.3273 35.1604 25.3563 35.112C25.395 35.0637 25.4046 35.0154 25.3853 34.967C25.598 34.7737 25.801 34.5755 25.9943 34.3725C26.1974 34.1598 26.3714 33.9278 26.5164 33.6764C26.6614 33.6281 26.7774 33.5556 26.8644 33.4589C26.9514 33.3623 27.0384 33.2656 27.1254 33.1689C27.2124 33.0626 27.3091 32.9707 27.4154 32.8934C27.5218 32.8064 27.6571 32.7532 27.8215 32.7339C27.8601 32.6662 27.9133 32.613 27.981 32.5744C28.0486 32.526 28.1163 32.4825 28.184 32.4439C28.2517 32.4052 28.3145 32.3617 28.3725 32.3134C28.4305 32.265 28.474 32.1974 28.503 32.1103C28.6577 32.1103 28.7979 32.0813 28.9235 32.0233C29.0589 31.9653 29.1894 31.9025 29.3151 31.8348C29.4407 31.7672 29.5664 31.7043 29.6921 31.6463C29.8274 31.5883 29.9724 31.5593 30.1271 31.5593C30.1658 31.5593 30.2044 31.5641 30.2431 31.5738C30.2818 31.5738 30.3253 31.5786 30.3736 31.5883C30.4413 31.656 30.4848 31.7382 30.5041 31.8348C30.5331 31.9218 30.5525 32.0185 30.5621 32.1248C30.5718 32.2312 30.5766 32.3375 30.5766 32.4439C30.5863 32.5502 30.6056 32.6469 30.6346 32.7339C30.5476 32.8982 30.451 33.0626 30.3446 33.2269C30.248 33.3913 30.1174 33.5169 29.9531 33.6039H29.9241C29.8564 33.6136 29.7936 33.5991 29.7356 33.5604C29.6776 33.5218 29.6099 33.5024 29.5326 33.5024C29.4842 33.5024 29.4456 33.5169 29.4166 33.5459L29.3441 33.6184C29.3247 33.6378 29.2957 33.6571 29.2571 33.6764C29.2281 33.6958 29.1845 33.6958 29.1265 33.6764C28.9912 33.7248 28.938 33.807 28.967 33.923C28.7834 33.9423 28.6287 34.0003 28.503 34.097C28.3773 34.184 28.2613 34.2855 28.155 34.4015C28.0486 34.5078 27.9423 34.6093 27.836 34.706C27.7296 34.793 27.6039 34.8414 27.4589 34.851C27.2946 35.141 27.0916 35.3972 26.8499 35.6196C26.6179 35.8419 26.4245 36.0933 26.2699 36.3736C26.2989 36.451 26.3182 36.5331 26.3279 36.6201C26.3375 36.7072 26.352 36.799 26.3714 36.8957C26.4584 37.0117 26.5599 37.1132 26.6759 37.2002C26.8016 37.2872 26.9224 37.3742 27.0384 37.4612H27.0819C27.2753 37.4612 27.4541 37.4999 27.6184 37.5772C27.7828 37.6449 27.9568 37.6787 28.1405 37.6787C28.2372 37.6787 28.3193 37.6594 28.387 37.6207C28.6383 37.6787 28.8849 37.7271 29.1265 37.7657C29.3779 37.8044 29.6292 37.8334 29.8806 37.8527C30.0063 37.8721 30.1319 37.8817 30.2576 37.8817C30.393 37.8817 30.5186 37.8962 30.6346 37.9252C30.741 37.9542 30.8473 37.9929 30.9537 38.0412C31.06 38.0799 31.1663 38.1234 31.2727 38.1717C31.495 38.2684 31.7029 38.3748 31.8962 38.4908C32.0992 38.6068 32.2781 38.747 32.4328 38.9113C32.5874 39.066 32.7083 39.2497 32.7953 39.4623C32.8823 39.6653 32.9258 39.9022 32.9258 40.1729ZM40.3648 33.8215C40.3551 33.9665 40.3165 34.0776 40.2488 34.155C40.1908 34.2323 40.1618 34.329 40.1618 34.445C40.1618 34.5223 40.1763 34.59 40.2053 34.648C40.1376 34.677 40.1038 34.7302 40.1038 34.8075H40.0458C39.9684 34.8075 39.8911 34.8269 39.8138 34.8655C39.7461 34.9042 39.6736 34.9235 39.5962 34.9235C39.3449 34.9235 39.1322 34.8607 38.9582 34.735C38.7842 34.5997 38.5957 34.4885 38.3927 34.4015C38.3443 34.3822 38.296 34.3725 38.2476 34.3725H38.1171C38.0495 34.3725 38.0011 34.3628 37.9721 34.3435C37.9625 34.3242 37.9528 34.3 37.9431 34.271C37.9431 34.2323 37.9335 34.2033 37.9141 34.184C37.9045 34.1743 37.861 34.1598 37.7836 34.1405C37.7063 34.1115 37.6193 34.0825 37.5226 34.0535C37.4356 34.0245 37.3486 33.9955 37.2616 33.9665C37.1746 33.9278 37.1166 33.8988 37.0876 33.8795C37.0392 33.8505 36.9957 33.8021 36.9571 33.7345C36.9281 33.6571 36.8797 33.6378 36.8121 33.6764C36.8217 33.6474 36.8266 33.6184 36.8266 33.5894C36.8266 33.5411 36.8121 33.4928 36.7831 33.4444C36.7637 33.3864 36.725 33.3574 36.667 33.3574C36.6477 33.3574 36.6235 33.3623 36.5945 33.3719C36.5752 33.3816 36.551 33.3864 36.522 33.3864C36.5027 33.3864 36.4834 33.3768 36.464 33.3574C36.3867 33.2608 36.3045 33.1641 36.2175 33.0674C36.0628 32.9031 35.9033 32.7581 35.739 32.6324C35.5746 32.5067 35.449 32.3327 35.362 32.1103C35.1879 32.0233 35.0381 31.917 34.9124 31.7913L34.5354 31.4143C34.4097 31.2886 34.2744 31.1775 34.1294 31.0808C33.9844 30.9744 33.8055 30.9019 33.5928 30.8633V30.7618C33.5928 30.6361 33.6122 30.5152 33.6508 30.3992C33.6895 30.2832 33.7088 30.1672 33.7088 30.0512C33.7088 29.9932 33.704 29.9497 33.6943 29.9207C33.8297 29.8724 33.9167 29.7902 33.9554 29.6742C33.994 29.5485 34.0134 29.4228 34.0134 29.2972C34.11 29.1908 34.2357 29.128 34.3904 29.1086C34.5451 29.0893 34.6852 29.0796 34.8109 29.0796H34.9559C35.0043 29.0796 35.0526 29.0845 35.1009 29.0941C35.333 29.2295 35.5166 29.3987 35.652 29.6017C35.797 29.8047 35.9082 30.0319 35.9855 30.2832C36.1208 30.3896 36.2368 30.5152 36.3335 30.6603C36.4399 30.8053 36.5849 30.9068 36.7686 30.9648C36.8459 31.1581 36.9474 31.3321 37.0731 31.4868C37.1987 31.6318 37.3341 31.772 37.4791 31.9073C37.6241 32.0427 37.7643 32.1829 37.8996 32.3279C38.0446 32.4632 38.1751 32.613 38.2912 32.7774C38.4555 32.8451 38.6343 32.9127 38.8277 32.9804C39.021 33.0384 39.2095 33.1061 39.3932 33.1834C39.5866 33.2608 39.7654 33.3526 39.9298 33.4589C40.1038 33.5556 40.2488 33.6764 40.3648 33.8215ZM55.8808 41.9275C55.8228 42.0048 55.7503 42.058 55.6633 42.087C55.5763 42.116 55.4893 42.1402 55.4023 42.1595C55.3153 42.1788 55.2234 42.1982 55.1268 42.2175C55.0398 42.2465 54.9624 42.29 54.8947 42.348C54.8754 42.3577 54.8609 42.3674 54.8512 42.377C54.8512 42.3867 54.8416 42.3915 54.8222 42.3915C54.7932 42.3915 54.7642 42.3674 54.7352 42.319C54.7159 42.2804 54.6821 42.2513 54.6337 42.232C54.3824 42.3674 54.1117 42.4834 53.8217 42.58C53.5317 42.6864 53.2416 42.7927 52.9516 42.8991C52.6713 43.0151 52.3958 43.1359 52.1251 43.2616C51.8544 43.3969 51.6175 43.5613 51.4145 43.7546C51.2598 43.774 51.1003 43.8078 50.936 43.8561C50.7813 43.9141 50.6653 44.0205 50.588 44.1751H50.5445C50.5058 44.1751 50.4768 44.1606 50.4575 44.1316C50.4381 44.1123 50.4091 44.1026 50.3704 44.1026C50.3028 44.1026 50.2593 44.122 50.2399 44.1606C50.2206 44.1993 50.2061 44.238 50.1964 44.2767C50.1964 44.325 50.1916 44.3685 50.1819 44.4072C50.1723 44.4458 50.1433 44.4652 50.0949 44.4652C50.0756 44.4652 50.0563 44.4458 50.0369 44.4072C50.0176 44.3782 49.9693 44.3685 49.8919 44.3782C49.5342 44.5715 49.162 44.7648 48.7753 44.9582C48.3887 45.1612 48.0551 45.4174 47.7748 45.7267C47.7554 45.7074 47.7313 45.6977 47.7023 45.6977C47.6829 45.6977 47.6684 45.6977 47.6588 45.6977L47.6443 45.7122C47.6249 45.7122 47.6104 45.7074 47.6008 45.6977C47.5911 45.6881 47.5814 45.6832 47.5718 45.6832C47.3494 45.8766 47.1126 46.0506 46.8612 46.2053C46.6195 46.3696 46.373 46.5291 46.1217 46.6838C45.8703 46.8385 45.6238 46.9932 45.3821 47.1478C45.1404 47.3122 44.9133 47.4959 44.7006 47.6989C44.5652 47.7085 44.4299 47.7375 44.2945 47.7859C44.1592 47.8342 44.0239 47.8826 43.8885 47.9309C43.7628 47.9792 43.6323 48.0227 43.497 48.0614C43.3617 48.1097 43.2263 48.1339 43.091 48.1339C42.8396 48.1339 42.6318 48.0227 42.4674 47.8004C42.4384 47.8197 42.4094 47.8342 42.3804 47.8439C42.3611 47.8536 42.3369 47.8584 42.3079 47.8584C42.2306 47.8584 42.1581 47.8246 42.0904 47.7569C42.0324 47.6989 41.9502 47.6795 41.8439 47.6989C41.7182 47.5635 41.6264 47.3895 41.5684 47.1768C41.52 46.9738 41.4572 46.7853 41.3799 46.6113C41.3992 46.2343 41.462 45.8669 41.5684 45.5092C41.6844 45.1612 41.7569 44.7987 41.7859 44.4217C41.8729 44.3347 41.9406 44.2331 41.9889 44.1171C42.0372 44.0108 42.0807 43.8948 42.1194 43.7691C42.1677 43.6531 42.2161 43.5371 42.2644 43.4211C42.3128 43.3051 42.3804 43.2084 42.4674 43.1311C42.5254 42.8411 42.6221 42.5655 42.7574 42.3045C42.8928 42.0435 42.9846 41.7632 43.033 41.4635C43.1103 41.4151 43.1731 41.3571 43.2215 41.2895C43.2795 41.2218 43.3423 41.1589 43.41 41.1009V41.0139C43.41 40.9366 43.3907 40.8786 43.352 40.8399C43.4197 40.6659 43.4922 40.5016 43.5695 40.3469C43.6565 40.1922 43.7387 40.0375 43.816 39.8829C43.8934 39.7282 43.961 39.5687 44.019 39.4043C44.077 39.24 44.1157 39.0611 44.135 38.8678C44.2124 38.8001 44.2704 38.7179 44.309 38.6213C44.3477 38.5149 44.3816 38.4134 44.4106 38.3168C44.4492 38.2104 44.4879 38.1137 44.5266 38.0267C44.5749 37.9397 44.6522 37.8721 44.7586 37.8237C44.7489 37.8044 44.7441 37.7802 44.7441 37.7512C44.7441 37.6545 44.7682 37.5675 44.8166 37.4902C44.8746 37.4129 44.9036 37.3307 44.9036 37.2437C44.9036 37.1953 44.8891 37.147 44.8601 37.0987C45.0534 36.6926 45.2419 36.2963 45.4256 35.9096C45.6093 35.5132 45.7495 35.0927 45.8462 34.648C45.9428 34.5997 46.0008 34.5272 46.0202 34.4305C46.0395 34.3338 46.083 34.2468 46.1507 34.1695V34.097C46.1507 33.9326 46.1845 33.749 46.2522 33.5459C46.3295 33.3429 46.4214 33.1737 46.5277 33.0384C46.576 32.7001 46.6292 32.3472 46.6872 31.9798C46.7549 31.6028 46.8564 31.2596 46.9917 30.9503C46.9724 30.8826 46.9434 30.8149 46.9047 30.7473C46.8757 30.6796 46.8516 30.6071 46.8322 30.5297C46.5905 30.6651 46.315 30.7859 46.0057 30.8923C45.9477 30.9116 45.8848 30.9309 45.8171 30.9503C45.7495 30.9599 45.6915 30.9793 45.6431 31.0083C45.5851 31.0276 45.5513 31.0759 45.5416 31.1533C45.532 31.221 45.5271 31.279 45.5271 31.3273C45.4111 31.3273 45.3193 31.3515 45.2516 31.3998C45.1839 31.4481 45.1163 31.5061 45.0486 31.5738C44.9906 31.6318 44.9278 31.6898 44.8601 31.7478C44.7924 31.7962 44.7054 31.83 44.5991 31.8493C44.4831 31.9653 44.3864 32.0572 44.309 32.1248C44.2317 32.1829 44.1205 32.2409 43.9755 32.2989C43.9272 32.3182 43.8789 32.3569 43.8305 32.4149L43.6855 32.5889C43.6372 32.6469 43.5888 32.6952 43.5405 32.7339C43.5018 32.7726 43.4583 32.7871 43.41 32.7774C43.381 32.8644 43.3375 32.9369 43.2795 32.9949C43.2311 33.0529 43.178 33.1109 43.12 33.1689C43.062 33.2173 43.0136 33.2753 42.975 33.3429C42.9363 33.4106 42.9218 33.4976 42.9315 33.6039C42.8928 33.6426 42.859 33.6619 42.83 33.6619C42.8009 33.6619 42.7671 33.6426 42.7284 33.6039C42.7091 33.72 42.6704 33.8166 42.6124 33.894C42.5641 33.9616 42.5061 34.0245 42.4384 34.0825C42.3708 34.1405 42.2982 34.1985 42.2209 34.2565C42.1436 34.3145 42.0711 34.3773 42.0034 34.445C41.9164 34.4353 41.8391 34.416 41.7714 34.387C41.7134 34.358 41.6505 34.329 41.5829 34.3C41.5152 34.271 41.4427 34.2517 41.3654 34.242C41.2977 34.2227 41.2107 34.2178 41.1043 34.2275C41.114 34.1695 41.1043 34.126 41.0753 34.097C41.0463 34.068 41.0077 34.0438 40.9593 34.0245C40.9593 33.9471 40.9593 33.8505 40.9593 33.7345C40.969 33.6184 40.9738 33.5024 40.9738 33.3864C40.9835 33.2608 40.998 33.1447 41.0173 33.0384C41.0367 32.9321 41.0657 32.8451 41.1043 32.7774C41.1623 32.6807 41.2542 32.5937 41.3799 32.5164C41.5152 32.439 41.6554 32.3617 41.8004 32.2844C41.9551 32.1974 42.1001 32.1103 42.2354 32.0233C42.3804 31.9267 42.4964 31.8107 42.5834 31.6753C42.5931 31.685 42.6124 31.6898 42.6414 31.6898C42.7188 31.6898 42.7816 31.6705 42.83 31.6318C42.8783 31.5448 42.9411 31.482 43.0185 31.4433C43.1055 31.4046 43.1828 31.3466 43.2505 31.2693C43.2795 31.2403 43.294 31.2065 43.294 31.1678C43.3036 31.1194 43.323 31.0808 43.352 31.0518C43.381 31.0228 43.4342 30.9938 43.5115 30.9648C43.5985 30.9358 43.6662 30.8971 43.7145 30.8488C43.7725 30.8004 43.816 30.7473 43.845 30.6893C43.8837 30.6312 43.9272 30.5781 43.9755 30.5297C44.0529 30.4717 44.135 30.4282 44.222 30.3992C44.3187 30.3702 44.4106 30.3316 44.4976 30.2832C44.5846 30.2252 44.6619 30.1576 44.7296 30.0802C44.8069 30.0029 44.8649 29.911 44.9036 29.8047C45.0969 29.7177 45.2854 29.6307 45.4691 29.5437C45.6528 29.447 45.8316 29.3455 46.0057 29.2392C46.1023 29.1812 46.1942 29.1183 46.2812 29.0506C46.3682 28.9733 46.4552 28.9008 46.5422 28.8331C46.6389 28.7655 46.7355 28.7075 46.8322 28.6591C46.9386 28.6108 47.0497 28.5866 47.1657 28.5866C47.3107 28.5866 47.4219 28.6156 47.4993 28.6736C47.5766 28.722 47.6443 28.78 47.7023 28.8476C47.7699 28.9056 47.8376 28.9685 47.9053 29.0361C47.9826 29.1038 48.0793 29.1522 48.1953 29.1812C48.292 29.3358 48.3548 29.505 48.3838 29.6887C48.4225 29.8627 48.4467 30.0464 48.4563 30.2397C48.466 30.4234 48.466 30.6071 48.4563 30.7908C48.4563 30.9744 48.4708 31.1533 48.4998 31.3273C48.4418 31.4916 48.3742 31.6511 48.2968 31.8058C48.2195 31.9605 48.1808 32.1248 48.1808 32.2989C48.1808 32.3665 48.1856 32.4245 48.1953 32.4729H48.0213C47.9826 32.7919 47.9101 33.1061 47.8038 33.4154C47.6974 33.7151 47.5766 34.0148 47.4413 34.3145L47.0497 35.1991C46.9241 35.4891 46.8177 35.7888 46.7307 36.0981C46.7114 36.1851 46.6775 36.2383 46.6292 36.2576C46.5809 36.2673 46.547 36.306 46.5277 36.3736C46.4794 36.48 46.4407 36.596 46.4117 36.7217C46.3827 36.8473 46.344 36.9682 46.2957 37.0842C46.199 37.3355 46.1023 37.5772 46.0057 37.8092C45.909 38.0412 45.8075 38.2684 45.7011 38.4908V38.6358C45.7011 38.6841 45.7156 38.7083 45.7446 38.7083C45.4353 39.1336 45.2274 39.617 45.1211 40.1584C45.0438 40.2164 44.9858 40.2889 44.9471 40.3759C44.9181 40.4532 44.8698 40.5209 44.8021 40.5789C44.7344 40.8593 44.6426 41.1348 44.5266 41.4055C44.4202 41.6665 44.309 41.9275 44.193 42.1885C44.077 42.4495 43.9659 42.7105 43.8595 42.9716C43.7532 43.2422 43.671 43.5178 43.613 43.7981C43.5067 43.8948 43.4197 44.0108 43.352 44.1461C43.294 44.2815 43.2408 44.4265 43.1925 44.5812C43.1538 44.7358 43.1151 44.8905 43.0765 45.0452C43.0475 45.1999 43.0136 45.3401 42.975 45.4657L42.83 45.9878V46.2778C42.83 46.3261 42.8251 46.3793 42.8155 46.4373C42.8058 46.4953 42.7768 46.534 42.7284 46.5533C42.7478 46.621 42.7719 46.6741 42.8009 46.7128C42.8396 46.7515 42.8493 46.8047 42.83 46.8723C42.8686 46.9497 42.9363 46.9932 43.033 47.0028C43.1393 47.0222 43.2311 47.0463 43.3085 47.0753C43.3858 47.056 43.4293 47.0125 43.439 46.9448C43.4487 46.8772 43.4728 46.8192 43.5115 46.7708C43.5985 46.6548 43.729 46.5291 43.903 46.3938C44.0867 46.2584 44.28 46.1183 44.4831 45.9733C44.6957 45.8283 44.8988 45.6881 45.0921 45.5527C45.2951 45.4271 45.4595 45.3111 45.5851 45.2047H45.8462C46.1942 44.9824 46.5422 44.7648 46.8902 44.5522C47.2382 44.3492 47.6008 44.1655 47.9778 44.0011C48.0745 43.8755 48.1905 43.7788 48.3258 43.7111C48.4708 43.6434 48.6158 43.5758 48.7608 43.5081C48.9155 43.4501 49.0605 43.3873 49.1959 43.3196C49.3409 43.2519 49.4569 43.1552 49.5439 43.0296C49.6502 43.0102 49.7662 42.9861 49.8919 42.9571C50.0176 42.9281 50.1094 42.8604 50.1674 42.754H50.2254C50.2544 42.754 50.2834 42.7589 50.3124 42.7686C50.3414 42.7879 50.3608 42.8169 50.3704 42.8556C50.4381 42.8362 50.4768 42.7927 50.4865 42.725C50.5058 42.6574 50.5396 42.5994 50.588 42.551C50.8683 42.4447 51.1535 42.3335 51.4435 42.2175C51.7335 42.1015 52.0187 41.971 52.2991 41.826C52.4344 41.826 52.5843 41.8067 52.7486 41.768C52.9226 41.7293 53.0531 41.6423 53.1401 41.507C53.1595 41.5166 53.1836 41.5215 53.2126 41.5215C53.319 41.5215 53.4205 41.507 53.5172 41.478C53.6235 41.4393 53.7298 41.4006 53.8362 41.362C53.9425 41.3136 54.0489 41.2701 54.1552 41.2314C54.2615 41.1928 54.3727 41.1686 54.4887 41.1589H54.5177C54.5371 41.1589 54.5419 41.1348 54.5322 41.0864C54.5322 41.0284 54.5322 40.9946 54.5322 40.9849C54.5322 40.9463 54.5516 40.9318 54.5902 40.9414C54.6192 40.9318 54.6676 40.9269 54.7352 40.9269C54.8416 40.9269 54.9383 40.9511 55.0253 40.9994C55.1219 41.0381 55.2138 41.0864 55.3008 41.1444C55.3878 41.2024 55.4748 41.2653 55.5618 41.333C55.6488 41.391 55.7406 41.4345 55.8373 41.4635C55.818 41.5408 55.8083 41.6036 55.8083 41.652C55.8083 41.7003 55.8131 41.7487 55.8228 41.797C55.8421 41.8357 55.8615 41.8792 55.8808 41.9275ZM67.0901 41.9275C67.0321 42.0048 66.9595 42.058 66.8725 42.087C66.7855 42.116 66.6985 42.1402 66.6115 42.1595C66.5245 42.1788 66.4327 42.1982 66.336 42.2175C66.249 42.2465 66.1717 42.29 66.104 42.348C66.0847 42.3577 66.0702 42.3674 66.0605 42.377C66.0605 42.3867 66.0508 42.3915 66.0315 42.3915C66.0025 42.3915 65.9735 42.3674 65.9445 42.319C65.9251 42.2804 65.8913 42.2513 65.843 42.232C65.5916 42.3674 65.3209 42.4834 65.0309 42.58C64.7409 42.6864 64.4509 42.7927 64.1609 42.8991C63.8805 43.0151 63.605 43.1359 63.3343 43.2616C63.0636 43.3969 62.8268 43.5613 62.6238 43.7546C62.4691 43.774 62.3096 43.8078 62.1452 43.8561C61.9906 43.9141 61.8745 44.0205 61.7972 44.1751H61.7537C61.715 44.1751 61.686 44.1606 61.6667 44.1316C61.6474 44.1123 61.6184 44.1026 61.5797 44.1026C61.512 44.1026 61.4685 44.122 61.4492 44.1606C61.4298 44.1993 61.4153 44.238 61.4057 44.2767C61.4057 44.325 61.4008 44.3685 61.3912 44.4072C61.3815 44.4458 61.3525 44.4652 61.3042 44.4652C61.2848 44.4652 61.2655 44.4458 61.2462 44.4072C61.2268 44.3782 61.1785 44.3685 61.1012 44.3782C60.7435 44.5715 60.3713 44.7648 59.9846 44.9582C59.5979 45.1612 59.2644 45.4174 58.984 45.7267C58.9647 45.7074 58.9405 45.6977 58.9115 45.6977C58.8922 45.6977 58.8777 45.6977 58.868 45.6977L58.8535 45.7122C58.8342 45.7122 58.8197 45.7074 58.81 45.6977C58.8003 45.6881 58.7907 45.6832 58.781 45.6832C58.5587 45.8766 58.3218 46.0506 58.0705 46.2053C57.8288 46.3696 57.5823 46.5291 57.3309 46.6838C57.0796 46.8385 56.833 46.9932 56.5914 47.1478C56.3497 47.3122 56.1225 47.4959 55.9098 47.6989C55.7745 47.7085 55.6391 47.7375 55.5038 47.7859C55.3684 47.8342 55.2331 47.8826 55.0978 47.9309C54.9721 47.9792 54.8416 48.0227 54.7062 48.0614C54.5709 48.1097 54.4356 48.1339 54.3002 48.1339C54.0489 48.1339 53.841 48.0227 53.6767 47.8004C53.6477 47.8197 53.6187 47.8342 53.5897 47.8439C53.5703 47.8536 53.5462 47.8584 53.5172 47.8584C53.4398 47.8584 53.3673 47.8246 53.2996 47.7569C53.2416 47.6989 53.1595 47.6795 53.0531 47.6989C52.9275 47.5635 52.8356 47.3895 52.7776 47.1768C52.7293 46.9738 52.6664 46.7853 52.5891 46.6113C52.6084 46.2343 52.6713 45.8669 52.7776 45.5092C52.8936 45.1612 52.9661 44.7987 52.9951 44.4217C53.0821 44.3347 53.1498 44.2331 53.1981 44.1171C53.2465 44.0108 53.29 43.8948 53.3286 43.7691C53.377 43.6531 53.4253 43.5371 53.4737 43.4211C53.522 43.3051 53.5897 43.2084 53.6767 43.1311C53.7347 42.8411 53.8313 42.5655 53.9667 42.3045C54.102 42.0435 54.1939 41.7632 54.2422 41.4635C54.3195 41.4151 54.3824 41.3571 54.4307 41.2895C54.4887 41.2218 54.5516 41.1589 54.6192 41.1009V41.0139C54.6192 40.9366 54.5999 40.8786 54.5612 40.8399C54.6289 40.6659 54.7014 40.5016 54.7787 40.3469C54.8657 40.1922 54.9479 40.0375 55.0253 39.8829C55.1026 39.7282 55.1703 39.5687 55.2283 39.4043C55.2863 39.24 55.3249 39.0611 55.3443 38.8678C55.4216 38.8001 55.4796 38.7179 55.5183 38.6213C55.557 38.5149 55.5908 38.4134 55.6198 38.3168C55.6585 38.2104 55.6971 38.1137 55.7358 38.0267C55.7841 37.9397 55.8615 37.8721 55.9678 37.8237C55.9582 37.8044 55.9533 37.7802 55.9533 37.7512C55.9533 37.6545 55.9775 37.5675 56.0258 37.4902C56.0838 37.4129 56.1128 37.3307 56.1128 37.2437C56.1128 37.1953 56.0983 37.147 56.0693 37.0987C56.2627 36.6926 56.4512 36.2963 56.6349 35.9096C56.8185 35.5132 56.9587 35.0927 57.0554 34.648C57.1521 34.5997 57.2101 34.5272 57.2294 34.4305C57.2487 34.3338 57.2922 34.2468 57.3599 34.1695V34.097C57.3599 33.9326 57.3937 33.749 57.4614 33.5459C57.5388 33.3429 57.6306 33.1737 57.7369 33.0384C57.7853 32.7001 57.8384 32.3472 57.8964 31.9798C57.9641 31.6028 58.0656 31.2596 58.201 30.9503C58.1816 30.8826 58.1526 30.8149 58.114 30.7473C58.085 30.6796 58.0608 30.6071 58.0415 30.5297C57.7998 30.6651 57.5243 30.7859 57.2149 30.8923C57.1569 30.9116 57.0941 30.9309 57.0264 30.9503C56.9587 30.9599 56.9007 30.9793 56.8524 31.0083C56.7944 31.0276 56.7605 31.0759 56.7509 31.1533C56.7412 31.221 56.7364 31.279 56.7364 31.3273C56.6204 31.3273 56.5285 31.3515 56.4609 31.3998C56.3932 31.4481 56.3255 31.5061 56.2578 31.5738C56.1998 31.6318 56.137 31.6898 56.0693 31.7478C56.0017 31.7962 55.9146 31.83 55.8083 31.8493C55.6923 31.9653 55.5956 32.0572 55.5183 32.1248C55.441 32.1829 55.3298 32.2409 55.1848 32.2989C55.1364 32.3182 55.0881 32.3569 55.0398 32.4149L54.8947 32.5889C54.8464 32.6469 54.7981 32.6952 54.7497 32.7339C54.7111 32.7726 54.6676 32.7871 54.6192 32.7774C54.5902 32.8644 54.5467 32.9369 54.4887 32.9949C54.4404 33.0529 54.3872 33.1109 54.3292 33.1689C54.2712 33.2173 54.2229 33.2753 54.1842 33.3429C54.1455 33.4106 54.131 33.4976 54.1407 33.6039C54.102 33.6426 54.0682 33.6619 54.0392 33.6619C54.0102 33.6619 53.9764 33.6426 53.9377 33.6039C53.9183 33.72 53.8797 33.8166 53.8217 33.894C53.7733 33.9616 53.7153 34.0245 53.6477 34.0825C53.58 34.1405 53.5075 34.1985 53.4302 34.2565C53.3528 34.3145 53.2803 34.3773 53.2126 34.445C53.1256 34.4353 53.0483 34.416 52.9806 34.387C52.9226 34.358 52.8598 34.329 52.7921 34.3C52.7244 34.271 52.6519 34.2517 52.5746 34.242C52.5069 34.2227 52.4199 34.2178 52.3136 34.2275C52.3232 34.1695 52.3136 34.126 52.2846 34.097C52.2556 34.068 52.2169 34.0438 52.1686 34.0245C52.1686 33.9471 52.1686 33.8505 52.1686 33.7345C52.1782 33.6184 52.1831 33.5024 52.1831 33.3864C52.1927 33.2608 52.2072 33.1447 52.2266 33.0384C52.2459 32.9321 52.2749 32.8451 52.3136 32.7774C52.3716 32.6807 52.4634 32.5937 52.5891 32.5164C52.7244 32.439 52.8646 32.3617 53.0096 32.2844C53.1643 32.1974 53.3093 32.1103 53.4447 32.0233C53.5897 31.9267 53.7057 31.8107 53.7927 31.6753C53.8023 31.685 53.8217 31.6898 53.8507 31.6898C53.928 31.6898 53.9909 31.6705 54.0392 31.6318C54.0875 31.5448 54.1504 31.482 54.2277 31.4433C54.3147 31.4046 54.392 31.3466 54.4597 31.2693C54.4887 31.2403 54.5032 31.2065 54.5032 31.1678C54.5129 31.1194 54.5322 31.0808 54.5612 31.0518C54.5902 31.0228 54.6434 30.9938 54.7207 30.9648C54.8077 30.9358 54.8754 30.8971 54.9237 30.8488C54.9818 30.8004 55.0253 30.7473 55.0543 30.6893C55.0929 30.6312 55.1364 30.5781 55.1848 30.5297C55.2621 30.4717 55.3443 30.4282 55.4313 30.3992C55.528 30.3702 55.6198 30.3316 55.7068 30.2832C55.7938 30.2252 55.8711 30.1576 55.9388 30.0802C56.0162 30.0029 56.0742 29.911 56.1128 29.8047C56.3062 29.7177 56.4947 29.6307 56.6784 29.5437C56.862 29.447 57.0409 29.3455 57.2149 29.2392C57.3116 29.1812 57.4034 29.1183 57.4904 29.0506C57.5774 28.9733 57.6644 28.9008 57.7514 28.8331C57.8481 28.7655 57.9448 28.7075 58.0415 28.6591C58.1478 28.6108 58.259 28.5866 58.375 28.5866C58.52 28.5866 58.6312 28.6156 58.7085 28.6736C58.7858 28.722 58.8535 28.78 58.9115 28.8476C58.9792 28.9056 59.0469 28.9685 59.1145 29.0361C59.1919 29.1038 59.2885 29.1522 59.4045 29.1812C59.5012 29.3358 59.5641 29.505 59.5931 29.6887C59.6317 29.8627 59.6559 30.0464 59.6656 30.2397C59.6752 30.4234 59.6752 30.6071 59.6656 30.7908C59.6656 30.9744 59.6801 31.1533 59.7091 31.3273C59.6511 31.4916 59.5834 31.6511 59.5061 31.8058C59.4287 31.9605 59.39 32.1248 59.39 32.2989C59.39 32.3665 59.3949 32.4245 59.4045 32.4729H59.2305C59.1919 32.7919 59.1194 33.1061 59.013 33.4154C58.9067 33.7151 58.7858 34.0148 58.6505 34.3145L58.259 35.1991C58.1333 35.4891 58.027 35.7888 57.9399 36.0981C57.9206 36.1851 57.8868 36.2383 57.8384 36.2576C57.7901 36.2673 57.7563 36.306 57.7369 36.3736C57.6886 36.48 57.6499 36.596 57.6209 36.7217C57.5919 36.8473 57.5533 36.9682 57.5049 37.0842C57.4082 37.3355 57.3116 37.5772 57.2149 37.8092C57.1182 38.0412 57.0167 38.2684 56.9104 38.4908V38.6358C56.9104 38.6841 56.9249 38.7083 56.9539 38.7083C56.6445 39.1336 56.4367 39.617 56.3303 40.1584C56.253 40.2164 56.195 40.2889 56.1563 40.3759C56.1273 40.4532 56.079 40.5209 56.0113 40.5789C55.9437 40.8593 55.8518 41.1348 55.7358 41.4055C55.6295 41.6665 55.5183 41.9275 55.4023 42.1885C55.2863 42.4495 55.1751 42.7105 55.0688 42.9716C54.9624 43.2422 54.8802 43.5178 54.8222 43.7981C54.7159 43.8948 54.6289 44.0108 54.5612 44.1461C54.5032 44.2815 54.4501 44.4265 54.4017 44.5812C54.363 44.7358 54.3244 44.8905 54.2857 45.0452C54.2567 45.1999 54.2229 45.3401 54.1842 45.4657L54.0392 45.9878V46.2778C54.0392 46.3261 54.0344 46.3793 54.0247 46.4373C54.015 46.4953 53.986 46.534 53.9377 46.5533C53.957 46.621 53.9812 46.6741 54.0102 46.7128C54.0489 46.7515 54.0585 46.8047 54.0392 46.8723C54.0779 46.9497 54.1455 46.9932 54.2422 47.0028C54.3485 47.0222 54.4404 47.0463 54.5177 47.0753C54.5951 47.056 54.6386 47.0125 54.6482 46.9448C54.6579 46.8772 54.6821 46.8192 54.7207 46.7708C54.8077 46.6548 54.9383 46.5291 55.1123 46.3938C55.2959 46.2584 55.4893 46.1183 55.6923 45.9733C55.905 45.8283 56.108 45.6881 56.3013 45.5527C56.5044 45.4271 56.6687 45.3111 56.7944 45.2047H57.0554C57.4034 44.9824 57.7514 44.7648 58.0995 44.5522C58.4475 44.3492 58.81 44.1655 59.187 44.0011C59.2837 43.8755 59.3997 43.7788 59.5351 43.7111C59.6801 43.6434 59.8251 43.5758 59.9701 43.5081C60.1248 43.4501 60.2698 43.3873 60.4051 43.3196C60.5501 43.2519 60.6661 43.1552 60.7531 43.0296C60.8595 43.0102 60.9755 42.9861 61.1012 42.9571C61.2268 42.9281 61.3187 42.8604 61.3767 42.754H61.4347C61.4637 42.754 61.4927 42.7589 61.5217 42.7686C61.5507 42.7879 61.57 42.8169 61.5797 42.8556C61.6474 42.8362 61.686 42.7927 61.6957 42.725C61.715 42.6574 61.7489 42.5994 61.7972 42.551C62.0776 42.4447 62.3627 42.3335 62.6528 42.2175C62.9428 42.1015 63.228 41.971 63.5083 41.826C63.6437 41.826 63.7935 41.8067 63.9578 41.768C64.1319 41.7293 64.2624 41.6423 64.3494 41.507C64.3687 41.5166 64.3929 41.5215 64.4219 41.5215C64.5282 41.5215 64.6297 41.507 64.7264 41.478C64.8327 41.4393 64.9391 41.4006 65.0454 41.362C65.1518 41.3136 65.2581 41.2701 65.3644 41.2314C65.4708 41.1928 65.582 41.1686 65.698 41.1589H65.727C65.7463 41.1589 65.7511 41.1348 65.7415 41.0864C65.7415 41.0284 65.7415 40.9946 65.7415 40.9849C65.7415 40.9463 65.7608 40.9318 65.7995 40.9414C65.8285 40.9318 65.8768 40.9269 65.9445 40.9269C66.0508 40.9269 66.1475 40.9511 66.2345 40.9994C66.3312 41.0381 66.423 41.0864 66.51 41.1444C66.597 41.2024 66.684 41.2653 66.771 41.333C66.858 41.391 66.9499 41.4345 67.0466 41.4635C67.0272 41.5408 67.0175 41.6036 67.0175 41.652C67.0175 41.7003 67.0224 41.7487 67.0321 41.797C67.0514 41.8357 67.0707 41.8792 67.0901 41.9275Z" fill="white"/>
</svg>
