<svg width="209" height="75" viewBox="0 0 209 75" fill="none" xmlns="http://www.w3.org/2000/svg">
<path d="M8.24057 25H3.91038V6.44387H8.24057V25ZM11.6872 25V11.7929H14.1325C14.3787 11.7929 14.5825 11.8481 14.7438 11.9585C14.9136 12.0689 15.0325 12.2344 15.1004 12.4552L15.3297 13.2193C15.5844 12.9816 15.8476 12.7608 16.1193 12.5571C16.391 12.3533 16.6797 12.1835 16.9853 12.0476C17.2995 11.9033 17.6348 11.7929 17.9915 11.7165C18.3565 11.6316 18.7514 11.5891 19.1759 11.5891C19.8976 11.5891 20.5344 11.7165 21.0863 11.9712C21.6466 12.2175 22.1179 12.5656 22.4999 13.0156C22.882 13.4571 23.1707 13.9877 23.366 14.6075C23.5613 15.2189 23.6589 15.8854 23.6589 16.6071V25H19.7108V16.6071C19.7108 15.9618 19.5622 15.4608 19.265 15.1042C18.9679 14.7392 18.5306 14.5566 17.9532 14.5566C17.5202 14.5566 17.1127 14.65 16.7306 14.8368C16.3485 15.0236 15.9834 15.2741 15.6353 15.5882V25H11.6872ZM26.4628 25V11.7929H28.9081C29.1543 11.7929 29.3581 11.8481 29.5194 11.9585C29.6892 12.0689 29.8081 12.2344 29.876 12.4552L30.1052 13.2193C30.36 12.9816 30.6232 12.7608 30.8949 12.5571C31.1666 12.3533 31.4552 12.1835 31.7609 12.0476C32.075 11.9033 32.4104 11.7929 32.767 11.7165C33.1321 11.6316 33.5269 11.5891 33.9515 11.5891C34.6732 11.5891 35.31 11.7165 35.8618 11.9712C36.4222 12.2175 36.8934 12.5656 37.2755 13.0156C37.6576 13.4571 37.9463 13.9877 38.1416 14.6075C38.3368 15.2189 38.4345 15.8854 38.4345 16.6071V25H34.4864V16.6071C34.4864 15.9618 34.3378 15.4608 34.0406 15.1042C33.7434 14.7392 33.3062 14.5566 32.7288 14.5566C32.2958 14.5566 31.8883 14.65 31.5062 14.8368C31.1241 15.0236 30.759 15.2741 30.4109 15.5882V25H26.4628ZM47.1223 11.5891C48.1242 11.5891 49.0369 11.7462 49.8605 12.0604C50.6841 12.3745 51.3888 12.8245 51.9747 13.4104C52.569 13.9962 53.0275 14.7094 53.3501 15.55C53.6813 16.3821 53.8468 17.3203 53.8468 18.3646C53.8468 19.4175 53.6813 20.3684 53.3501 21.2175C53.0275 22.058 52.569 22.7755 51.9747 23.3698C51.3888 23.9557 50.6841 24.4099 49.8605 24.7325C49.0369 25.0467 48.1242 25.2038 47.1223 25.2038C46.1119 25.2038 45.1907 25.0467 44.3586 24.7325C43.5351 24.4099 42.8218 23.9557 42.219 23.3698C41.6247 22.7755 41.1619 22.058 40.8308 21.2175C40.5082 20.3684 40.3468 19.4175 40.3468 18.3646C40.3468 17.3203 40.5082 16.3821 40.8308 15.55C41.1619 14.7094 41.6247 13.9962 42.219 13.4104C42.8218 12.8245 43.5351 12.3745 44.3586 12.0604C45.1907 11.7462 46.1119 11.5891 47.1223 11.5891ZM47.1223 22.2745C48.0308 22.2745 48.6973 21.9561 49.1218 21.3193C49.5549 20.6741 49.7714 19.6976 49.7714 18.3901C49.7714 17.0825 49.5549 16.1104 49.1218 15.4736C48.6973 14.8368 48.0308 14.5184 47.1223 14.5184C46.1884 14.5184 45.5049 14.8368 45.0718 15.4736C44.6388 16.1104 44.4223 17.0825 44.4223 18.3901C44.4223 19.6976 44.6388 20.6741 45.0718 21.3193C45.5049 21.9561 46.1884 22.2745 47.1223 22.2745ZM62.8268 25H59.2353L54.1155 11.7929H57.4013C57.6815 11.7929 57.915 11.8608 58.1018 11.9967C58.2971 12.1241 58.4287 12.2854 58.4966 12.4807L60.3306 18.4028C60.4749 18.8868 60.6108 19.358 60.7381 19.8165C60.874 20.275 60.9886 20.7335 61.082 21.192C61.1754 20.7335 61.29 20.275 61.4259 19.8165C61.5617 19.358 61.7061 18.8868 61.8589 18.4028L63.7693 12.4807C63.8372 12.2854 63.9646 12.1241 64.1513 11.9967C64.3381 11.8608 64.5589 11.7929 64.8136 11.7929H67.9466L62.8268 25ZM78.7144 25C78.3408 25 78.0564 24.9491 77.8611 24.8472C77.6743 24.7453 77.5172 24.533 77.3899 24.2104L77.1097 23.4844C76.7785 23.7646 76.4601 24.0108 76.1545 24.2231C75.8488 24.4354 75.5304 24.6179 75.1993 24.7708C74.8766 24.9151 74.5285 25.0212 74.155 25.0892C73.7899 25.1656 73.3823 25.2038 72.9323 25.2038C72.3295 25.2038 71.7818 25.1274 71.2894 24.9745C70.7969 24.8132 70.3766 24.5797 70.0285 24.2741C69.6889 23.9684 69.4257 23.5906 69.2389 23.1406C69.0521 22.6821 68.9587 22.1557 68.9587 21.5613C68.9587 21.0943 69.0776 20.6146 69.3153 20.1222C69.5531 19.6297 69.9649 19.184 70.5507 18.7849C71.1366 18.3774 71.9262 18.0377 72.9196 17.766C73.913 17.4943 75.1653 17.3415 76.6766 17.3075V16.7472C76.6766 15.9745 76.5153 15.4184 76.1927 15.0788C75.8785 14.7307 75.4285 14.5566 74.8427 14.5566C74.3757 14.5566 73.9936 14.6075 73.6965 14.7094C73.3993 14.8113 73.1318 14.9259 72.8941 15.0533C72.6649 15.1807 72.4399 15.2953 72.2191 15.3972C71.9983 15.4991 71.7351 15.55 71.4295 15.55C71.1578 15.55 70.9243 15.4863 70.729 15.359C70.5422 15.2231 70.3936 15.0575 70.2833 14.8623L69.57 13.6269C70.3682 12.9222 71.2512 12.4 72.2191 12.0604C73.1955 11.7123 74.2399 11.5382 75.3521 11.5382C76.1502 11.5382 76.8677 11.6698 77.5045 11.933C78.1498 12.1877 78.6932 12.5486 79.1347 13.0156C79.5847 13.4741 79.9285 14.0217 80.1663 14.6585C80.404 15.2953 80.5229 15.9915 80.5229 16.7472V25H78.7144ZM74.1804 22.5929C74.6899 22.5929 75.1356 22.5038 75.5177 22.3255C75.8998 22.1472 76.2861 21.8585 76.6766 21.4594V19.6255C75.887 19.6594 75.2375 19.7274 74.7281 19.8292C74.2186 19.9311 73.8153 20.0585 73.5182 20.2113C73.221 20.3642 73.013 20.5382 72.8941 20.7335C72.7837 20.9288 72.7285 21.141 72.7285 21.3703C72.7285 21.8203 72.8516 22.1387 73.0979 22.3255C73.3441 22.5038 73.705 22.5929 74.1804 22.5929ZM87.9622 25.2038C87.3339 25.2038 86.7778 25.1146 86.2938 24.9363C85.8183 24.7495 85.415 24.4906 85.0839 24.1594C84.7613 23.8198 84.515 23.4123 84.3452 22.9368C84.1754 22.4613 84.0905 21.9307 84.0905 21.3448V14.5184H82.9698C82.766 14.5184 82.5919 14.4547 82.4476 14.3274C82.3032 14.1915 82.2311 13.9962 82.2311 13.7415V12.2005L84.3325 11.7929L85.1094 8.57075C85.2113 8.16321 85.4999 7.95943 85.9754 7.95943H88.0386V11.8184H91.2481V14.5184H88.0386V21.0774C88.0386 21.383 88.1108 21.6377 88.2551 21.8415C88.408 22.0368 88.6245 22.1344 88.9047 22.1344C89.049 22.1344 89.1679 22.1217 89.2613 22.0962C89.3632 22.0623 89.4481 22.0283 89.516 21.9943C89.5924 21.9519 89.6603 21.9179 89.7198 21.8925C89.7877 21.8585 89.8641 21.8415 89.949 21.8415C90.0679 21.8415 90.1613 21.8712 90.2292 21.9307C90.3056 21.9816 90.382 22.0665 90.4584 22.1854L91.6556 24.0575C91.1462 24.4396 90.5731 24.7283 89.9363 24.9236C89.2995 25.1104 88.6415 25.2038 87.9622 25.2038ZM99.1797 11.5891C100.054 11.5891 100.852 11.725 101.574 11.9967C102.304 12.2684 102.928 12.6632 103.446 13.1811C103.973 13.6991 104.38 14.3358 104.669 15.0915C104.966 15.8387 105.115 16.6877 105.115 17.6387C105.115 17.9358 105.102 18.1778 105.076 18.3646C105.051 18.5514 105.004 18.7 104.936 18.8104C104.868 18.9208 104.775 18.9972 104.656 19.0396C104.546 19.0821 104.401 19.1033 104.223 19.1033H96.6071C96.7344 20.2071 97.0698 21.0094 97.6132 21.5104C98.1566 22.0028 98.8571 22.2491 99.7146 22.2491C100.173 22.2491 100.568 22.1939 100.899 22.0835C101.23 21.9731 101.523 21.85 101.778 21.7142C102.041 21.5783 102.279 21.4552 102.491 21.3448C102.712 21.2344 102.941 21.1792 103.179 21.1792C103.493 21.1792 103.731 21.2939 103.892 21.5231L105.038 22.9368C104.631 23.4038 104.189 23.7858 103.714 24.083C103.247 24.3717 102.763 24.6009 102.262 24.7708C101.769 24.9321 101.273 25.0425 100.772 25.1019C100.279 25.1698 99.808 25.2038 99.358 25.2038C98.4325 25.2038 97.5623 25.0552 96.7472 24.758C95.9406 24.4524 95.2316 24.0024 94.6203 23.408C94.0174 22.8137 93.5377 22.075 93.1811 21.192C92.833 20.309 92.659 19.2816 92.659 18.1099C92.659 17.2269 92.8075 16.3906 93.1047 15.6009C93.4104 14.8113 93.8434 14.1193 94.4038 13.525C94.9726 12.9307 95.6561 12.4594 96.4542 12.1113C97.2608 11.7632 98.1693 11.5891 99.1797 11.5891ZM99.2561 14.3146C98.5005 14.3146 97.9104 14.5311 97.4858 14.9642C97.0613 15.3887 96.7811 16.0042 96.6453 16.8108H101.574C101.574 16.4967 101.532 16.191 101.447 15.8939C101.37 15.5967 101.239 15.3335 101.052 15.1042C100.874 14.8665 100.636 14.6755 100.339 14.5311C100.042 14.3868 99.6807 14.3146 99.2561 14.3146ZM118.282 17.7915H120.192V20.0075C120.192 20.2028 120.125 20.3726 119.989 20.517C119.861 20.6613 119.675 20.7335 119.428 20.7335H118.282V25H114.843V20.7335H107.38C107.134 20.7335 106.909 20.6571 106.705 20.5042C106.51 20.3514 106.387 20.1604 106.336 19.9311L105.928 17.9825L114.512 6.44387H118.282V17.7915ZM114.843 12.9519C114.843 12.6547 114.852 12.3363 114.869 11.9967C114.894 11.6486 114.928 11.292 114.971 10.9269L110.067 17.7915H114.843V12.9519ZM120.755 6.44387H124.372C124.745 6.44387 125.055 6.52877 125.302 6.69858C125.556 6.8684 125.722 7.0934 125.798 7.37358L128.345 17.0528C128.43 17.367 128.515 17.7024 128.6 18.059C128.685 18.4156 128.749 18.7892 128.791 19.1797C128.876 18.7807 128.969 18.4071 129.071 18.059C129.173 17.7024 129.271 17.367 129.364 17.0528L132.37 7.37358C132.446 7.13585 132.608 6.92358 132.854 6.73679C133.109 6.54151 133.414 6.44387 133.771 6.44387H135.044C135.418 6.44387 135.724 6.52877 135.961 6.69858C136.208 6.8599 136.377 7.0849 136.471 7.37358L139.451 17.0528C139.544 17.35 139.642 17.6684 139.744 18.008C139.846 18.3392 139.935 18.6958 140.011 19.0778C140.079 18.7042 140.147 18.3476 140.215 18.008C140.292 17.6684 140.368 17.35 140.444 17.0528L142.992 7.37358C143.06 7.12736 143.221 6.91085 143.476 6.72406C143.73 6.53726 144.036 6.44387 144.393 6.44387H147.78L142.049 25H138.152L134.662 13.4995C134.603 13.3212 134.539 13.1259 134.471 12.9137C134.412 12.7014 134.352 12.4764 134.293 12.2387C134.234 12.4764 134.17 12.7014 134.102 12.9137C134.043 13.1259 133.983 13.3212 133.924 13.4995L130.383 25H126.486L120.755 6.44387ZM157.169 25C156.796 25 156.511 24.9491 156.316 24.8472C156.129 24.7453 155.972 24.533 155.845 24.2104L155.565 23.4844C155.233 23.7646 154.915 24.0108 154.609 24.2231C154.304 24.4354 153.985 24.6179 153.654 24.7708C153.331 24.9151 152.983 25.0212 152.61 25.0892C152.245 25.1656 151.837 25.2038 151.387 25.2038C150.784 25.2038 150.237 25.1274 149.744 24.9745C149.252 24.8132 148.831 24.5797 148.483 24.2741C148.144 23.9684 147.881 23.5906 147.694 23.1406C147.507 22.6821 147.414 22.1557 147.414 21.5613C147.414 21.0943 147.532 20.6146 147.77 20.1222C148.008 19.6297 148.42 19.184 149.006 18.7849C149.591 18.3774 150.381 18.0377 151.374 17.766C152.368 17.4943 153.62 17.3415 155.131 17.3075V16.7472C155.131 15.9745 154.97 15.4184 154.648 15.0788C154.333 14.7307 153.883 14.5566 153.298 14.5566C152.831 14.5566 152.448 14.6075 152.151 14.7094C151.854 14.8113 151.587 14.9259 151.349 15.0533C151.12 15.1807 150.895 15.2953 150.674 15.3972C150.453 15.4991 150.19 15.55 149.884 15.55C149.613 15.55 149.379 15.4863 149.184 15.359C148.997 15.2231 148.848 15.0575 148.738 14.8623L148.025 13.6269C148.823 12.9222 149.706 12.4 150.674 12.0604C151.65 11.7123 152.695 11.5382 153.807 11.5382C154.605 11.5382 155.323 11.6698 155.959 11.933C156.605 12.1877 157.148 12.5486 157.59 13.0156C158.04 13.4741 158.383 14.0217 158.621 14.6585C158.859 15.2953 158.978 15.9915 158.978 16.7472V25H157.169ZM152.635 22.5929C153.145 22.5929 153.59 22.5038 153.973 22.3255C154.355 22.1472 154.741 21.8585 155.131 21.4594V19.6255C154.342 19.6594 153.692 19.7274 153.183 19.8292C152.673 19.9311 152.27 20.0585 151.973 20.2113C151.676 20.3642 151.468 20.5382 151.349 20.7335C151.239 20.9288 151.183 21.141 151.183 21.3703C151.183 21.8203 151.306 22.1387 151.553 22.3255C151.799 22.5038 152.16 22.5929 152.635 22.5929ZM166.417 25.2038C165.789 25.2038 165.233 25.1146 164.749 24.9363C164.273 24.7495 163.87 24.4906 163.539 24.1594C163.216 23.8198 162.97 23.4123 162.8 22.9368C162.63 22.4613 162.545 21.9307 162.545 21.3448V14.5184H161.425C161.221 14.5184 161.047 14.4547 160.902 14.3274C160.758 14.1915 160.686 13.9962 160.686 13.7415V12.2005L162.787 11.7929L163.564 8.57075C163.666 8.16321 163.955 7.95943 164.43 7.95943H166.493V11.8184H169.703V14.5184H166.493V21.0774C166.493 21.383 166.566 21.6377 166.71 21.8415C166.863 22.0368 167.079 22.1344 167.359 22.1344C167.504 22.1344 167.623 22.1217 167.716 22.0962C167.818 22.0623 167.903 22.0283 167.971 21.9943C168.047 21.9519 168.115 21.9179 168.175 21.8925C168.243 21.8585 168.319 21.8415 168.404 21.8415C168.523 21.8415 168.616 21.8712 168.684 21.9307C168.76 21.9816 168.837 22.0665 168.913 22.1854L170.11 24.0575C169.601 24.4396 169.028 24.7283 168.391 24.9236C167.754 25.1104 167.096 25.2038 166.417 25.2038ZM177.635 11.5891C178.509 11.5891 179.307 11.725 180.029 11.9967C180.759 12.2684 181.383 12.6632 181.901 13.1811C182.427 13.6991 182.835 14.3358 183.124 15.0915C183.421 15.8387 183.569 16.6877 183.569 17.6387C183.569 17.9358 183.557 18.1778 183.531 18.3646C183.506 18.5514 183.459 18.7 183.391 18.8104C183.323 18.9208 183.23 18.9972 183.111 19.0396C183.001 19.0821 182.856 19.1033 182.678 19.1033H175.062C175.189 20.2071 175.525 21.0094 176.068 21.5104C176.611 22.0028 177.312 22.2491 178.169 22.2491C178.628 22.2491 179.023 22.1939 179.354 22.0835C179.685 21.9731 179.978 21.85 180.233 21.7142C180.496 21.5783 180.734 21.4552 180.946 21.3448C181.167 21.2344 181.396 21.1792 181.634 21.1792C181.948 21.1792 182.185 21.2939 182.347 21.5231L183.493 22.9368C183.085 23.4038 182.644 23.7858 182.168 24.083C181.702 24.3717 181.218 24.6009 180.717 24.7708C180.224 24.9321 179.727 25.0425 179.227 25.1019C178.734 25.1698 178.263 25.2038 177.813 25.2038C176.887 25.2038 176.017 25.0552 175.202 24.758C174.395 24.4524 173.686 24.0024 173.075 23.408C172.472 22.8137 171.993 22.075 171.636 21.192C171.288 20.309 171.114 19.2816 171.114 18.1099C171.114 17.2269 171.262 16.3906 171.56 15.6009C171.865 14.8113 172.298 14.1193 172.859 13.525C173.427 12.9307 174.111 12.4594 174.909 12.1113C175.716 11.7632 176.624 11.5891 177.635 11.5891ZM177.711 14.3146C176.955 14.3146 176.365 14.5311 175.941 14.9642C175.516 15.3887 175.236 16.0042 175.1 16.8108H180.029C180.029 16.4967 179.986 16.191 179.902 15.8939C179.825 15.5967 179.693 15.3335 179.507 15.1042C179.328 14.8665 179.091 14.6755 178.793 14.5311C178.496 14.3868 178.135 14.3146 177.711 14.3146ZM185.835 25V11.7929H188.178C188.374 11.7929 188.535 11.8099 188.662 11.8439C188.798 11.8778 188.909 11.933 188.994 12.0094C189.087 12.0774 189.155 12.1708 189.197 12.2896C189.248 12.4085 189.291 12.5528 189.325 12.7226L189.541 13.958C190.025 13.2108 190.569 12.6208 191.171 12.1877C191.774 11.7547 192.432 11.5382 193.145 11.5382C193.748 11.5382 194.232 11.6825 194.597 11.9712L194.088 14.875C194.054 15.0533 193.986 15.1807 193.884 15.2571C193.782 15.325 193.646 15.359 193.477 15.359C193.332 15.359 193.162 15.342 192.967 15.308C192.772 15.2656 192.526 15.2443 192.228 15.2443C191.193 15.2443 190.377 15.7962 189.783 16.9V25H185.835Z" fill="#049C9D"/>
<path d="M36.8743 60.7229C36.8743 60.9053 36.8329 61.0794 36.75 61.2452C36.4183 61.4277 36.0701 61.552 35.7052 61.6184C35.357 61.7013 35.0087 61.7427 34.6605 61.7427C34.4947 61.7427 34.3122 61.7344 34.1132 61.7179C33.9308 61.7179 33.765 61.7013 33.6158 61.6681C33.566 61.6515 33.508 61.6184 33.4416 61.5686C33.3753 61.5189 33.309 61.494 33.2426 61.494C33.0768 61.494 32.9193 61.5189 32.77 61.5686C32.6208 61.6349 32.4632 61.6681 32.2974 61.6681C32.2145 61.6681 32.1316 61.6432 32.0486 61.5935C31.9823 61.5437 31.9077 61.5106 31.8248 61.494C31.7087 61.4608 31.5926 61.4525 31.4765 61.4691C31.3604 61.4857 31.2361 61.494 31.1034 61.494C30.921 61.494 30.7552 61.4691 30.6059 61.4194C30.4732 61.3696 30.3489 61.2784 30.2328 61.1457C29.8182 61.096 29.4119 61.0131 29.0139 60.897C28.6159 60.7975 28.2179 60.6814 27.8199 60.5488C27.4219 60.4327 27.024 60.3166 26.626 60.2005C26.228 60.101 25.8217 60.0347 25.4071 60.0015C25.3076 59.8854 25.1915 59.7942 25.0589 59.7279C24.9262 59.6781 24.8267 59.5869 24.7604 59.4543C24.6774 59.4543 24.6194 59.4626 24.5862 59.4791C24.5531 59.5123 24.495 59.5289 24.4121 59.5289C24.1302 59.2967 23.8234 59.0977 23.4917 58.9319C23.1767 58.7661 22.845 58.6085 22.4968 58.4593C22.1651 58.31 21.8334 58.1525 21.5018 57.9867C21.1867 57.8374 20.8882 57.6384 20.6063 57.3897H20.4819C20.3492 57.4062 20.2332 57.3731 20.1337 57.2902C20.0507 57.2238 19.943 57.1907 19.8103 57.1907C19.7274 57.1907 19.661 57.199 19.6113 57.2155C19.5615 57.0829 19.4869 56.9751 19.3874 56.8922C19.2879 56.8093 19.1801 56.7263 19.064 56.6434C18.9645 56.5771 18.8651 56.5025 18.7656 56.4195C18.6661 56.3532 18.5914 56.262 18.5417 56.1459C18.1271 55.9967 17.7208 55.8143 17.3228 55.5987C16.9414 55.3997 16.6015 55.1344 16.303 54.8027C15.9713 54.7695 15.6977 54.67 15.4821 54.5042C15.2665 54.3218 15.0675 54.0979 14.8851 53.8326C14.4871 53.6999 14.1223 53.5258 13.7906 53.3102C13.4589 53.0946 13.1273 52.8708 12.7956 52.6386C12.4805 52.4064 12.1406 52.1991 11.7758 52.0167C11.4275 51.8177 11.0295 51.6768 10.5818 51.5939C10.5652 51.4778 10.5154 51.3949 10.4325 51.3451C10.3496 51.2788 10.2501 51.229 10.134 51.1959C10.0345 51.1461 9.93503 51.1047 9.83553 51.0715C9.73603 51.0383 9.66141 50.972 9.61166 50.8725C9.56191 50.8725 9.51216 50.8725 9.46241 50.8725C9.41266 50.8559 9.36291 50.8476 9.31316 50.8476C9.26341 50.8476 9.20537 50.8559 9.13904 50.8725C9.08929 50.8725 9.03954 50.8725 8.98979 50.8725L9.01467 50.7979C9.01467 50.7315 8.98979 50.6901 8.94004 50.6735C8.90688 50.6569 8.85713 50.6403 8.79079 50.6237C8.72446 50.6072 8.66642 50.5823 8.61667 50.5491C8.56692 50.516 8.54205 50.4413 8.54205 50.3252H8.46742C8.28501 50.3252 8.11918 50.2921 7.96993 50.2257C7.82068 50.1594 7.65485 50.1097 7.47244 50.0765C7.43927 50.2589 7.42269 50.433 7.42269 50.5989V51.0466C7.42269 51.7929 7.5056 52.5806 7.67143 53.4097C7.83726 54.2223 8.0943 54.9519 8.44255 55.5987C8.79079 55.7313 9.08929 55.9055 9.33804 56.1211C9.58679 56.3366 9.82724 56.5854 10.0594 56.8673C10.076 57.315 9.91016 57.6882 9.56191 57.9867C9.23025 58.3017 8.84054 58.4593 8.3928 58.4593C8.14405 58.4593 7.91189 58.3929 7.69631 58.2603C7.49731 58.1442 7.33148 57.9701 7.19881 57.7379C7.09931 57.7379 7.00811 57.7545 6.92519 57.7877C6.84228 57.8374 6.74278 57.8623 6.6267 57.8623C6.57695 57.8623 6.5272 57.854 6.47745 57.8374C6.31162 57.5555 6.14578 57.3067 5.97995 57.0912C5.8307 56.8756 5.73121 56.5854 5.68146 56.2206C5.49904 56.1376 5.38296 55.9884 5.33321 55.7728C5.30004 55.5572 5.20884 55.3831 5.05959 55.2504C4.99326 54.5042 4.90205 53.758 4.78597 53.0117C4.68647 52.2655 4.63672 51.5192 4.63672 50.773C4.63672 50.6072 4.64501 50.4413 4.66159 50.2755C4.67818 50.0931 4.69476 49.9107 4.71134 49.7283C4.67818 49.6453 4.62843 49.5707 4.56209 49.5044C4.51235 49.4215 4.47089 49.3386 4.43772 49.2556C4.10606 49.3386 3.75781 49.4215 3.39298 49.5044C3.04474 49.5707 2.6882 49.6039 2.32337 49.6039C2.09121 49.6039 1.80929 49.5707 1.47763 49.5044C1.14597 49.4215 0.88893 49.3137 0.706515 49.181C0.57385 49.0981 0.482643 48.9488 0.432894 48.7333C0.366561 48.5011 0.333395 48.3021 0.333395 48.1363C0.333395 47.8544 0.383144 47.5724 0.482643 47.2905C0.582142 46.992 0.714807 46.735 0.880638 46.5194C1.69321 46.1878 2.44774 45.7815 3.14424 45.3006C3.85731 44.8196 4.5538 44.2973 5.23371 43.7334C5.25029 43.5676 5.27517 43.4018 5.30834 43.236C5.35809 43.0701 5.38296 42.896 5.38296 42.7136C5.38296 42.5146 5.33321 42.3239 5.23371 42.1415C5.33321 42.042 5.38296 41.9176 5.38296 41.7683C5.38296 41.6025 5.42442 41.4533 5.50733 41.3206V41.1714C5.50733 41.105 5.49904 41.0387 5.48246 40.9724C5.48246 40.906 5.45758 40.8397 5.40783 40.7734C5.52392 40.1266 5.61512 39.4882 5.68146 38.858C5.74779 38.2113 5.78096 37.5479 5.78096 36.868C5.78096 36.8183 5.80583 36.6856 5.85558 36.47C5.92191 36.2379 5.96337 36.0803 5.97995 35.9974C6.04629 35.616 6.08774 35.2429 6.10433 34.8781C6.13749 34.4966 6.17895 34.1152 6.2287 33.7338C6.24528 33.6012 6.27845 33.427 6.3282 33.2114C6.37795 32.9959 6.40282 32.8466 6.40282 32.7637C6.40282 32.6476 6.37795 32.573 6.3282 32.5398C6.29503 32.4901 6.26187 32.4155 6.2287 32.316C6.3282 31.9345 6.37795 31.5531 6.37795 31.1717C6.39453 30.7737 6.4277 30.384 6.47745 30.0026C6.75936 29.8865 6.98323 29.7704 7.14906 29.6544C7.3149 29.5383 7.55535 29.4802 7.87043 29.4802H7.92018C7.95335 29.6792 8.02797 29.8699 8.14405 30.0524C8.26013 30.2182 8.37622 30.3923 8.4923 30.5747C8.62496 30.7406 8.74105 30.9064 8.84054 31.0722C8.94004 31.2215 8.98979 31.3707 8.98979 31.52C8.98979 31.8019 8.96492 32.1087 8.91517 32.4403C8.86542 32.772 8.82396 33.0788 8.79079 33.3607C8.70788 34.1069 8.63325 34.8449 8.56692 35.5745C8.50059 36.2876 8.40109 37.0173 8.26843 37.7635C8.31818 37.9957 8.34305 38.2113 8.34305 38.4103C8.34305 38.7088 8.31818 39.0073 8.26843 39.3058C8.21868 39.6042 8.1938 39.911 8.1938 40.2261C8.1938 40.3754 8.20209 40.5329 8.21868 40.6987C8.25184 40.8646 8.30159 41.0138 8.36792 41.1465C8.93175 40.9972 9.43754 40.6904 9.88528 40.2261C9.95161 40.1598 10.0179 40.0769 10.0843 39.9774C10.1672 39.8613 10.2501 39.7701 10.333 39.7037C10.4989 39.5711 10.673 39.455 10.8554 39.3555C11.0544 39.2394 11.2451 39.1233 11.4275 39.0073C11.8587 38.7253 12.2733 38.4351 12.6712 38.1366C13.0858 37.8216 13.5004 37.5148 13.915 37.2163C15.1421 36.3208 16.3278 35.3921 17.4721 34.4303C18.6329 33.4519 19.7605 32.4238 20.855 31.3458C20.9048 31.0639 21.0043 30.8401 21.1535 30.6742C21.3028 30.5084 21.4354 30.3094 21.5515 30.0772C21.8666 29.9612 22.1402 29.787 22.3724 29.5549C22.4719 29.588 22.5714 29.6129 22.6709 29.6295C22.787 29.6295 22.8948 29.6295 22.9943 29.6295C23.1103 29.6295 23.2181 29.6378 23.3176 29.6544C23.4337 29.6544 23.5332 29.6792 23.6161 29.729C23.6327 29.9777 23.6576 30.2016 23.6907 30.4006C23.7239 30.5996 23.8234 30.7903 23.9892 30.9727C23.9892 31.0059 23.9892 31.0391 23.9892 31.0722C24.0058 31.1054 24.0141 31.1386 24.0141 31.1717C24.0141 31.3541 23.9644 31.5034 23.8649 31.6195C23.7654 31.7356 23.7073 31.8765 23.6907 32.0423L22.3973 33.3358C21.9661 33.767 21.5681 34.2313 21.2033 34.7288C21.0706 34.7454 20.9545 34.7868 20.855 34.8532C20.7555 34.9195 20.656 34.9941 20.5565 35.0771C20.4736 35.1434 20.3824 35.2097 20.2829 35.276C20.1834 35.3424 20.0756 35.3921 19.9595 35.4253C19.661 35.8233 19.3211 36.1881 18.9397 36.5198C18.5583 36.8349 18.1686 37.1417 17.7706 37.4401C17.3726 37.7386 16.9746 38.0454 16.5766 38.3605C16.1952 38.659 15.8386 38.9907 15.507 39.3555C15.1587 39.5213 14.8188 39.7203 14.4871 39.9525C14.172 40.1681 13.915 40.4417 13.716 40.7734H13.5916C13.5087 40.7734 13.4424 40.7982 13.3926 40.848C13.3429 40.8812 13.2765 40.8977 13.1936 40.8977C12.2981 41.6771 11.3695 42.4151 10.4077 43.1116C9.44583 43.7915 8.52546 44.5377 7.64656 45.3503V45.9722C7.92847 46.138 8.23526 46.2955 8.56692 46.4448C8.89859 46.5775 9.22196 46.7267 9.53704 46.8925C9.8687 47.0584 10.1755 47.2408 10.4574 47.4398C10.7559 47.6222 11.0129 47.8461 11.2285 48.1114C11.2617 48.0948 11.3031 48.0865 11.3529 48.0865C11.5021 48.0865 11.6182 48.1363 11.7011 48.2358C11.7841 48.3187 11.925 48.3436 12.124 48.3104C12.1903 48.5757 12.3396 48.7664 12.5717 48.8825C12.8039 48.9986 13.0361 49.0981 13.2682 49.181C13.4672 49.38 13.6497 49.5707 13.8155 49.7531C13.9813 49.919 14.2218 50.0268 14.5369 50.0765C14.57 50.1428 14.5949 50.2175 14.6115 50.3004C14.6281 50.3833 14.6612 50.4579 14.711 50.5242C15.0261 50.6237 15.3246 50.7647 15.6065 50.9471C15.905 51.1295 16.1952 51.3202 16.4771 51.5192C16.759 51.7016 17.0409 51.8841 17.3228 52.0665C17.6213 52.2323 17.9364 52.365 18.2681 52.4645C18.3178 52.6303 18.409 52.7464 18.5417 52.8127C18.6909 52.8791 18.807 52.9785 18.8899 53.1112H19.3377C19.3874 53.1941 19.4538 53.277 19.5367 53.36C19.6196 53.4263 19.6776 53.5258 19.7108 53.6585C19.8435 53.6916 19.9927 53.7414 20.1585 53.8077C20.3244 53.8575 20.4736 53.9238 20.6063 54.0067C20.656 54.0565 20.6892 54.1145 20.7058 54.1808C20.7389 54.2472 20.7887 54.3052 20.855 54.3549C20.9545 54.4379 21.1038 54.5042 21.3028 54.5539C21.5184 54.5871 21.7008 54.6452 21.85 54.7281C22.1485 54.8939 22.4387 55.0763 22.7206 55.2753C23.0025 55.4909 23.301 55.6899 23.6161 55.8723L24.5862 56.3947C24.7521 56.4776 24.9013 56.5688 25.034 56.6683C25.1832 56.7678 25.3325 56.859 25.4817 56.9419C25.7802 57.0746 26.0953 57.1575 26.427 57.1907C26.7752 57.2404 27.0903 57.3316 27.3722 57.4643C27.4551 57.514 27.5132 57.5721 27.5463 57.6384C27.5795 57.7213 27.6375 57.7877 27.7204 57.8374C27.8531 57.9203 28.0604 57.9784 28.3423 58.0115C28.6242 58.0447 28.8564 58.1027 29.0388 58.1857C29.271 58.2852 29.4948 58.3764 29.7104 58.4593C29.9426 58.5588 30.1748 58.6749 30.4069 58.8075C30.9044 58.8407 31.3936 58.8987 31.8745 58.9816C32.372 59.0646 32.8612 59.1475 33.3421 59.2304C33.823 59.3133 34.304 59.3879 34.7849 59.4543C35.2824 59.5206 35.7799 59.5455 36.2773 59.5289C36.2773 59.5621 36.2939 59.5786 36.3271 59.5786C36.3768 59.5952 36.4183 59.6035 36.4515 59.6035C36.5675 59.7859 36.667 59.9683 36.75 60.1508C36.8329 60.3332 36.8743 60.5239 36.8743 60.7229ZM27.1483 51.7431C27.0654 51.8758 26.9659 52.0001 26.8498 52.1162C26.7337 52.2157 26.626 52.3235 26.5265 52.4396C26.4104 52.4893 26.2777 52.5142 26.1285 52.5142C25.9958 52.5142 25.8631 52.5142 25.7305 52.5142C25.6144 52.4976 25.4983 52.4976 25.3822 52.5142C25.2827 52.5142 25.1998 52.5474 25.1335 52.6137C25.0008 52.5806 24.9013 52.5225 24.835 52.4396C24.7686 52.3401 24.6526 52.2821 24.4867 52.2655C24.4204 52.2489 24.3541 52.2489 24.2877 52.2655C24.039 51.9836 23.8068 51.6851 23.5912 51.37C23.3922 51.0549 23.2015 50.7564 23.0191 50.4745C23.0025 49.8609 22.9528 49.2391 22.8699 48.6089C22.8533 48.4596 22.8284 48.3104 22.7953 48.1611C22.7621 48.0119 22.7372 47.8709 22.7206 47.7383C22.7206 47.5724 22.7289 47.4149 22.7455 47.2657C22.7787 47.0998 22.8035 46.9506 22.8201 46.8179C22.8865 46.337 22.9611 45.8644 23.044 45.4001C23.1269 44.9357 23.2015 44.4631 23.2679 43.9822C23.3342 43.551 23.3674 43.1033 23.3674 42.639C23.3674 42.1581 23.2927 41.7103 23.1435 41.2957L23.1186 41.1714C23.1518 41.0387 23.185 40.9309 23.2181 40.848C23.2679 40.7485 23.301 40.6407 23.3176 40.5246C23.3508 40.3422 23.3093 40.2095 23.1933 40.1266C23.243 39.994 23.3259 39.911 23.442 39.8779C23.5581 39.8281 23.6244 39.7286 23.641 39.5794C23.6576 39.513 23.6576 39.4467 23.641 39.3804C23.7737 39.3306 23.9063 39.2892 24.039 39.256C24.1882 39.2063 24.3292 39.198 24.4619 39.2311C24.6774 39.2643 24.8681 39.3389 25.034 39.455C25.1998 39.5545 25.3573 39.6706 25.5066 39.8032C25.7719 40.5992 25.8797 41.445 25.83 42.3405C25.7802 43.2194 25.6973 44.1066 25.5812 45.0021C25.4651 45.8975 25.3905 46.7765 25.3573 47.6388C25.3242 48.4845 25.4568 49.2722 25.7553 50.0019L25.8051 50.0268C25.888 50.0433 25.9543 50.0185 26.0041 49.9521C26.0538 49.8692 26.1202 49.836 26.2031 49.8526C26.2694 49.8858 26.3109 49.9024 26.3275 49.9024C26.3938 50.234 26.5016 50.5491 26.6508 50.8476C26.8001 51.1461 26.9659 51.4446 27.1483 51.7431ZM42.6701 52.0167C42.6701 52.2986 42.5955 52.5474 42.4463 52.763C42.3136 52.962 42.2639 53.2107 42.297 53.5092C42.0649 53.6419 41.8742 53.816 41.7249 54.0316C41.5757 54.2472 41.4347 54.471 41.302 54.7032C40.2075 55.4163 39.0301 55.9884 37.7698 56.4195C36.5261 56.8673 35.2409 57.0912 33.9142 57.0912C33.8313 57.0912 33.7567 57.0497 33.6904 56.9668C33.624 56.9005 33.5577 56.8258 33.4914 56.7429C33.425 56.66 33.3504 56.5771 33.2675 56.4942C33.2012 56.4278 33.1183 56.3947 33.0188 56.3947C32.9027 56.3947 32.8115 56.4195 32.7451 56.4693C32.7451 56.4361 32.7451 56.403 32.7451 56.3698C32.7617 56.3532 32.77 56.3283 32.77 56.2952C32.77 56.0962 32.7451 55.8889 32.6954 55.6733C32.6456 55.4743 32.6208 55.2753 32.6208 55.0763C32.6208 54.8442 32.6622 54.6534 32.7451 54.5042H33.0436C33.2095 54.5042 33.367 54.4959 33.5163 54.4793C33.6821 54.4462 33.8562 54.4296 34.0386 54.4296C34.221 54.4296 34.3869 54.4793 34.5361 54.5788C35.4482 54.5457 36.3105 54.3798 37.1231 54.0813C37.9522 53.7662 38.7897 53.4595 39.6354 53.161C39.7681 52.9785 39.8427 52.7796 39.8593 52.564C39.8925 52.3318 39.9588 52.1162 40.0583 51.9172C39.6271 51.5524 39.1877 51.2705 38.7399 51.0715C38.3088 50.8559 37.803 50.7813 37.2226 50.8476C36.8743 50.632 36.5012 50.5077 36.1032 50.4745C35.7218 50.4413 35.3321 50.3916 34.9341 50.3252C34.8346 50.3087 34.7268 50.2921 34.6107 50.2755C34.5112 50.2423 34.4034 50.2257 34.2874 50.2257C34.2045 50.2257 34.1215 50.2506 34.0386 50.3004C33.9723 50.3335 33.9557 50.3916 33.9889 50.4745C33.906 50.3418 33.7899 50.2672 33.6406 50.2506C33.508 50.2175 33.3919 50.1511 33.2924 50.0516C32.7617 50.0185 32.2974 49.9273 31.8994 49.778C31.5014 49.6122 31.0619 49.4298 30.581 49.2308C30.4484 49.181 30.3157 49.1478 30.183 49.1313C30.067 49.0981 29.9509 49.0483 29.8348 48.982C29.5363 48.8328 29.2958 48.6338 29.1134 48.385C28.931 48.1363 28.7901 47.8627 28.6906 47.5642C28.5745 47.2491 28.4916 46.9257 28.4418 46.594C28.3921 46.2624 28.3423 45.9556 28.2926 45.6737C28.4418 45.4083 28.5828 45.1347 28.7154 44.8528C28.8315 44.5709 28.931 44.2724 29.0139 43.9573C29.1134 43.9076 29.2129 43.8661 29.3124 43.8329C29.4119 43.7998 29.5197 43.7583 29.6358 43.7086C29.6192 43.6754 29.6109 43.634 29.6109 43.5842C29.6109 43.5013 29.6358 43.4184 29.6855 43.3355C29.7519 43.2525 29.7685 43.1696 29.7353 43.0867C30.1001 42.755 30.4484 42.4151 30.78 42.0668C31.1283 41.702 31.4268 41.304 31.6755 40.8729C31.9243 40.7899 32.1233 40.6656 32.2725 40.4997C32.4218 40.3339 32.571 40.1681 32.7203 40.0022C32.8695 39.8198 33.0353 39.6623 33.2178 39.5296C33.4002 39.3804 33.6323 39.2892 33.9142 39.256C33.9806 39.1399 34.0718 39.0487 34.1879 38.9824C34.304 38.8995 34.42 38.8248 34.5361 38.7585C34.6522 38.6922 34.76 38.6176 34.8595 38.5346C34.959 38.4517 35.0336 38.3356 35.0834 38.1864C35.3487 38.1864 35.5891 38.1366 35.8047 38.0371C36.0369 37.9376 36.2608 37.8299 36.4763 37.7138C36.6919 37.5977 36.9075 37.4899 37.1231 37.3904C37.3552 37.2909 37.604 37.2412 37.8693 37.2412C37.9357 37.2412 38.002 37.2494 38.0683 37.266C38.1347 37.266 38.2093 37.2743 38.2922 37.2909C38.4083 37.407 38.4829 37.5479 38.5161 37.7138C38.5658 37.863 38.599 38.0289 38.6156 38.2113C38.6321 38.3937 38.6404 38.5761 38.6404 38.7585C38.657 38.9409 38.6902 39.1068 38.7399 39.256C38.5907 39.5379 38.4249 39.8198 38.2424 40.1017C38.0766 40.3837 37.8527 40.5992 37.5708 40.7485H37.5211C37.405 40.7651 37.2972 40.7402 37.1977 40.6739C37.0982 40.6075 36.9821 40.5744 36.8495 40.5744C36.7665 40.5744 36.7002 40.5992 36.6505 40.649L36.5261 40.7734C36.4929 40.8065 36.4432 40.8397 36.3768 40.8729C36.3271 40.906 36.2525 40.906 36.153 40.8729C35.9208 40.9558 35.8296 41.0967 35.8793 41.2957C35.5643 41.3289 35.2989 41.4284 35.0834 41.5942C34.8678 41.7435 34.6688 41.9176 34.4864 42.1166C34.304 42.299 34.1215 42.4731 33.9391 42.639C33.7567 42.7882 33.5411 42.8711 33.2924 42.8877C33.0105 43.3852 32.6622 43.8247 32.2476 44.2061C31.8496 44.5875 31.518 45.0186 31.2527 45.4996C31.3024 45.6322 31.3356 45.7732 31.3522 45.9224C31.3687 46.0717 31.3936 46.2292 31.4268 46.395C31.576 46.594 31.7501 46.7682 31.9491 46.9174C32.1647 47.0667 32.372 47.2159 32.571 47.3652H32.6456C32.9773 47.3652 33.2841 47.4315 33.566 47.5642C33.8479 47.6802 34.1464 47.7383 34.4615 47.7383C34.6273 47.7383 34.7683 47.7051 34.8844 47.6388C35.3155 47.7383 35.7384 47.8212 36.153 47.8875C36.5841 47.9539 37.0153 48.0036 37.4465 48.0368C37.662 48.0699 37.8776 48.0865 38.0932 48.0865C38.3254 48.0865 38.5409 48.1114 38.7399 48.1611C38.9224 48.2109 39.1048 48.2772 39.2872 48.3601C39.4696 48.4265 39.652 48.5011 39.8344 48.584C40.2158 48.7498 40.5724 48.9323 40.904 49.1313C41.2523 49.3303 41.5591 49.5707 41.8244 49.8526C42.0897 50.118 42.297 50.433 42.4463 50.7979C42.5955 51.1461 42.6701 51.5524 42.6701 52.0167ZM59.6347 51.1212C59.5684 51.37 59.4606 51.5773 59.3113 51.7431C59.1621 51.9089 58.988 52.0582 58.789 52.1908C58.6065 52.3235 58.4075 52.4479 58.192 52.564C57.9764 52.6635 57.7691 52.7796 57.5701 52.9122H57.2467C56.5502 52.9122 56.0113 52.7464 55.6299 52.4147C55.265 52.0665 54.9831 51.6436 54.7841 51.1461C54.5851 50.632 54.4359 50.0848 54.3364 49.5044C54.2535 48.924 54.1457 48.3933 54.013 47.9124C53.814 48.0782 53.6482 48.2772 53.5155 48.5094C53.3829 48.725 53.2419 48.9406 53.0926 49.1561C52.96 49.3717 52.8024 49.5707 52.62 49.7531C52.4542 49.9355 52.2303 50.0599 51.9484 50.1262C51.8987 50.2423 51.8406 50.3584 51.7743 50.4745C51.7245 50.5906 51.6914 50.715 51.6748 50.8476C51.31 51.0466 50.9783 51.2788 50.6798 51.5441C50.3813 51.8094 50.0828 52.0831 49.7843 52.365C49.4858 52.6469 49.179 52.9205 48.8639 53.1858C48.5654 53.4346 48.2255 53.6419 47.8441 53.8077C47.8275 53.7911 47.7943 53.7828 47.7446 53.7828C47.5456 53.7828 47.3632 53.8326 47.1973 53.9321C47.0315 54.015 46.8491 54.0565 46.6501 54.0565C46.5174 54.0565 46.3931 54.0316 46.277 53.9818C46.1775 53.9321 46.0697 53.874 45.9536 53.8077C45.8541 53.7414 45.7463 53.6916 45.6302 53.6585C45.5142 53.6253 45.3898 53.617 45.2571 53.6336C45.0913 53.3351 44.8674 53.0615 44.5855 52.8127C44.3202 52.5474 44.1543 52.2489 44.088 51.9172C44.0548 51.768 44.03 51.6187 44.0134 51.4695C44.0134 51.3037 43.9968 51.1378 43.9636 50.972C43.9139 50.7232 43.8475 50.4745 43.7646 50.2257C43.6817 49.9604 43.6154 49.6951 43.5656 49.4298C43.6485 48.982 43.7315 48.4928 43.8144 47.9621C43.8807 47.4149 43.9636 46.876 44.0631 46.3453C44.1792 45.7981 44.3285 45.284 44.5109 44.8031C44.7099 44.3056 44.9586 43.8827 45.2571 43.5345L45.2322 43.3603C45.2322 43.095 45.282 42.8463 45.3815 42.6141C45.481 42.3819 45.5888 42.1581 45.7049 41.9425C45.8209 41.7269 45.9204 41.5113 46.0034 41.2957C46.0863 41.0801 46.1029 40.8397 46.0531 40.5744C46.2521 40.4749 46.4594 40.3919 46.675 40.3256C46.8906 40.2593 47.1144 40.2261 47.3466 40.2261C47.5622 40.2261 47.7612 40.2593 47.9436 40.3256C47.9104 40.4583 47.9685 40.5412 48.1177 40.5744V40.649C48.1177 40.9972 48.0762 41.3372 47.9933 41.6688C47.9104 42.0005 47.8109 42.3322 47.6948 42.6638C47.5788 42.9789 47.4627 43.3023 47.3466 43.634C47.2471 43.949 47.1725 44.2724 47.1227 44.6041C47.0564 44.6206 47.0066 44.6538 46.9735 44.7036C46.9569 44.7533 46.9403 44.8031 46.9237 44.8528C46.9071 44.9026 46.8823 44.944 46.8491 44.9772C46.8159 45.0104 46.7662 45.0269 46.6998 45.0269C46.6003 45.6073 46.4926 46.1878 46.3765 46.7682C46.277 47.332 46.2272 47.9041 46.2272 48.4845C46.2272 48.8328 46.2604 49.1893 46.3267 49.5541C46.3931 49.919 46.5174 50.2672 46.6998 50.5989L46.7993 50.574C46.9818 50.574 47.1227 50.6155 47.2222 50.6984C47.3383 50.7813 47.4875 50.8642 47.67 50.9471C47.8026 50.9139 47.927 50.8725 48.0431 50.8227C48.1592 50.7564 48.2089 50.6486 48.1923 50.4994C48.4079 50.4828 48.5903 50.433 48.7396 50.3501C48.8888 50.2506 49.0215 50.1428 49.1376 50.0268L49.5107 49.6785C49.6434 49.5624 49.8009 49.4795 49.9833 49.4298C49.9833 49.3303 50.0082 49.2556 50.0579 49.2059L50.2072 49.0566C50.2569 49.0069 50.2901 48.9571 50.3067 48.9074C50.3398 48.8411 50.3481 48.7498 50.3316 48.6338C50.5306 48.6172 50.6798 48.5674 50.7793 48.4845C50.8954 48.4016 50.9949 48.3104 51.0778 48.2109C51.1773 48.0948 51.2685 47.9787 51.3514 47.8627C51.4343 47.7466 51.5421 47.6471 51.6748 47.5642C51.7909 47.3154 51.9484 46.9837 52.1474 46.5692C52.363 46.1546 52.5703 45.7234 52.7693 45.2757C52.9849 44.8279 53.1673 44.4051 53.3165 44.0071C53.4823 43.5925 53.5653 43.2774 53.5653 43.0618C53.5653 42.9789 53.5404 42.9043 53.4906 42.838C53.4575 42.7716 53.4492 42.697 53.4658 42.6141V42.5395C53.5984 42.3736 53.7145 42.1912 53.814 41.9922C53.9301 41.7932 54.0462 41.6025 54.1623 41.4201C54.2949 41.2377 54.4359 41.0719 54.5851 40.9226C54.7344 40.7734 54.9251 40.6573 55.1572 40.5744C55.4226 40.6573 55.6879 40.7153 55.9532 40.7485C56.2352 40.7817 56.5005 40.848 56.7492 40.9475C56.7658 41.3621 56.8073 41.843 56.8736 42.3902C56.9399 42.9375 57.056 43.4018 57.2218 43.7832C57.2218 43.9988 57.2136 44.2061 57.197 44.4051C57.197 44.6041 57.197 44.8031 57.197 45.0021C57.197 45.3337 57.2053 45.6737 57.2218 46.0219C57.255 46.3702 57.3131 46.6935 57.396 46.992C57.2799 47.2408 57.2218 47.5061 57.2218 47.788C57.2218 48.1694 57.2799 48.5343 57.396 48.8825C57.5121 49.2142 57.595 49.5707 57.6447 49.9521C57.8603 50.2506 58.1422 50.3999 58.4905 50.3999C58.5734 50.3999 58.6397 50.3916 58.6895 50.375C58.7558 50.3584 58.8221 50.3335 58.8885 50.3004C59.0211 50.4496 59.1372 50.5989 59.2367 50.7481C59.3528 50.8808 59.4854 51.0052 59.6347 51.1212ZM84.385 52.0167C84.3021 52.2821 84.2772 52.5474 84.3104 52.8127C84.2607 52.8791 84.2026 52.9205 84.1363 52.9371C84.0699 52.9537 84.0036 52.9785 83.9373 53.0117C83.8709 53.0283 83.8129 53.0615 83.7632 53.1112C83.73 53.1444 83.73 53.219 83.7632 53.3351C83.2159 53.3683 82.6935 53.4843 82.1961 53.6833C81.6986 53.8823 81.2094 54.0979 80.7284 54.3301C80.4797 54.2472 80.2641 54.1477 80.0817 54.0316C79.8993 53.9155 79.6671 53.8409 79.3852 53.8077C79.1033 53.2439 78.838 52.6552 78.5892 52.0416C78.3571 51.4114 78.241 50.7813 78.241 50.1511C78.241 49.6868 78.3239 49.2639 78.4897 48.8825C78.4897 48.385 78.5312 47.8958 78.6141 47.4149C78.697 46.934 78.7882 46.4614 78.8877 45.997C79.0038 45.5161 79.1033 45.0352 79.1862 44.5543C79.2691 44.0734 79.3106 43.5842 79.3106 43.0867V42.5395C79.2774 42.5395 79.236 42.5809 79.1862 42.6638C79.1365 42.7302 79.0867 42.8131 79.037 42.9126C79.0038 42.9955 78.9706 43.0784 78.9375 43.1613C78.9043 43.2442 78.8794 43.294 78.8628 43.3106C78.5809 43.5262 78.3571 43.7998 78.1912 44.1314C78.042 44.4465 77.8761 44.745 77.6937 45.0269C77.4616 45.3752 77.2128 45.7151 76.9475 46.0468C76.6987 46.3785 76.3837 46.6355 76.0022 46.8179V46.8677C76.0022 46.9506 75.9774 47.0086 75.9276 47.0418C75.8779 47.075 75.8696 47.1579 75.9028 47.2905C75.4882 47.4232 75.0985 47.6139 74.7336 47.8627C74.3854 48.1114 74.0952 48.4265 73.863 48.8079C73.5314 48.8908 73.2163 49.0069 72.9178 49.1561C72.6359 49.2888 72.3457 49.438 72.0472 49.6039C71.9145 49.6702 71.7735 49.7531 71.6243 49.8526C71.4751 49.9521 71.3258 50.0185 71.1766 50.0516C71.0439 50.1014 70.8615 50.1345 70.6293 50.1511C70.4137 50.1677 70.1816 50.1843 69.9328 50.2009C69.7007 50.2175 69.4685 50.2257 69.2363 50.2257H68.6891C68.6062 50.2257 68.4984 50.1843 68.3657 50.1014C68.233 50.0185 68.0838 49.9273 67.918 49.8278C67.7687 49.7283 67.6112 49.637 67.4454 49.5541C67.2795 49.4546 67.122 49.3883 66.9727 49.3551C66.8401 48.924 66.6494 48.5426 66.4006 48.2109C66.1684 47.8627 65.9197 47.5144 65.6544 47.1662C65.5715 46.7682 65.4554 46.3536 65.3061 45.9224C65.1735 45.4913 64.933 45.1347 64.5848 44.8528C64.6677 44.7367 64.7091 44.6041 64.7091 44.4548C64.7091 44.2724 64.6677 44.0983 64.5848 43.9324C64.5018 43.7666 64.4604 43.5842 64.4604 43.3852C64.4604 43.2525 64.4687 43.153 64.4853 43.0867C64.3028 43.2857 64.1702 43.5427 64.0873 43.8578C64.0209 44.1563 63.9878 44.4299 63.9878 44.6787C63.9878 44.8777 64.0126 45.0601 64.0624 45.2259C63.8966 45.4581 63.7888 45.7483 63.739 46.0965C63.7059 46.4448 63.6893 46.7516 63.6893 47.0169C63.6893 47.3486 63.7141 47.6719 63.7639 47.987C63.4986 48.2524 63.3659 48.5757 63.3659 48.9571C63.3659 49.1727 63.4156 49.3634 63.5151 49.5293C63.5151 49.5956 63.4986 49.6453 63.4654 49.6785C63.4322 49.7117 63.3908 49.7365 63.341 49.7531C63.3079 49.7697 63.2664 49.7946 63.2167 49.8278C63.1835 49.8443 63.1669 49.8858 63.1669 49.9521C63.1669 50.035 63.1669 50.1262 63.1669 50.2257C63.1835 50.3252 63.1918 50.4247 63.1918 50.5242C63.1918 50.7564 63.1835 50.9969 63.1669 51.2456C63.1503 51.4944 63.142 51.7348 63.142 51.967C63.142 52.4479 63.1835 52.7961 63.2664 53.0117C63.3659 53.2107 63.482 53.36 63.6146 53.4595C63.7639 53.559 63.9214 53.6585 64.0873 53.758C64.2531 53.8575 64.4189 54.0482 64.5848 54.3301C64.535 54.4793 64.4438 54.6037 64.3111 54.7032C64.1951 54.7861 64.079 54.8773 63.9629 54.9768C63.8634 55.0597 63.7722 55.1592 63.6893 55.2753C63.6064 55.3914 63.5732 55.5572 63.5898 55.7728H63.4654C63.2498 55.7728 63.0425 55.806 62.8435 55.8723C62.6445 55.9386 62.4372 55.9718 62.2217 55.9718C62.1719 55.9718 62.1222 55.9635 62.0724 55.9469C62.0227 55.9469 61.9729 55.9469 61.9232 55.9469L61.6744 55.7977C61.5915 55.7479 61.5086 55.7231 61.4257 55.7231C61.3428 55.7231 61.235 55.7396 61.1023 55.7728C60.8701 55.0266 60.6877 54.2555 60.5551 53.4595C60.439 52.6635 60.3809 51.8841 60.3809 51.1212C60.3809 51.0383 60.3975 50.9554 60.4307 50.8725C60.4804 50.773 60.5468 50.7398 60.6297 50.773V50.3004C60.6297 49.7863 60.6711 49.2888 60.7541 48.8079C60.8536 48.3104 60.9033 47.7963 60.9033 47.2657C60.9033 47.1164 60.895 46.9672 60.8784 46.8179C60.8784 46.6687 60.8701 46.5277 60.8536 46.395C60.9365 46.1131 61.0194 45.8312 61.1023 45.5493C61.2018 45.2508 61.2515 44.944 61.2515 44.6289C61.2515 44.4963 61.2267 44.3387 61.1769 44.1563C61.3096 44.0568 61.4091 43.9324 61.4754 43.7832C61.5418 43.6174 61.5915 43.4432 61.6247 43.2608C61.6578 43.0618 61.6827 42.8711 61.6993 42.6887C61.7159 42.5063 61.7325 42.3405 61.749 42.1912C61.9149 41.8596 62.0061 41.503 62.0227 41.1216C62.0392 40.7402 62.1222 40.3837 62.2714 40.052C62.2548 39.9857 62.2465 39.8696 62.2465 39.7037C62.2465 39.3721 62.2963 39.0404 62.3958 38.7088C62.5119 38.3605 62.7357 38.0952 63.0674 37.9128C63.3659 38.0289 63.7141 38.0869 64.1121 38.0869C64.4936 38.0869 64.8584 38.0289 65.2066 37.9128C65.3061 37.9459 65.3973 37.9874 65.4802 38.0371C65.5632 38.0703 65.6461 38.1118 65.729 38.1615C65.8285 38.1947 65.928 38.2278 66.0275 38.261C66.127 38.2776 66.2431 38.2776 66.3757 38.261C66.5416 38.7419 66.6825 39.2311 66.7986 39.7286C66.9313 40.2261 67.0308 40.7319 67.0971 41.246C67.1303 41.4616 67.1386 41.6937 67.122 41.9425C67.122 42.1912 67.1386 42.4234 67.1717 42.639C67.1883 42.7716 67.2298 42.896 67.2961 43.0121C67.3624 43.1116 67.4288 43.2277 67.4951 43.3603C67.5614 43.493 67.6112 43.6422 67.6443 43.8081C67.6941 43.9739 67.7107 44.1812 67.6941 44.4299C67.8765 44.8611 68.0755 45.2757 68.2911 45.6737C68.5233 46.0551 68.772 46.4365 69.0373 46.8179C69.1866 46.8677 69.3192 46.934 69.4353 47.0169C69.5514 47.0832 69.626 47.1993 69.6592 47.3652C69.8084 47.3652 69.9411 47.39 70.0572 47.4398L70.4801 47.5642C71.1102 47.3652 71.6906 47.0998 72.2213 46.7682C72.7685 46.4365 73.3407 46.1546 73.9376 45.9224C74.6673 45.2093 75.2975 44.4217 75.8281 43.5593C76.3588 42.6804 76.8894 41.8098 77.4201 40.9475V40.4002C77.5196 40.3505 77.6025 40.2924 77.6689 40.2261C77.7518 40.1432 77.8513 40.0852 77.9674 40.052C77.9839 39.853 78.0254 39.6623 78.0917 39.4799C78.1746 39.2809 78.2576 39.0985 78.3405 38.9326C78.44 38.7502 78.5229 38.5761 78.5892 38.4103C78.6556 38.2278 78.6887 38.0371 78.6887 37.8381C78.6887 37.7221 78.6804 37.6226 78.6638 37.5396C78.9126 37.2909 79.2111 37.1665 79.5593 37.1665C79.891 37.1665 80.2227 37.2494 80.5543 37.4153C80.9026 37.5645 81.2259 37.7055 81.5244 37.8381C81.7068 38.2361 81.8395 38.659 81.9224 39.1068C82.0219 39.5379 82.0883 39.9857 82.1214 40.45C82.1546 40.9143 82.1712 41.3786 82.1712 41.843V43.6091C82.1546 43.7417 82.1048 43.8412 82.0219 43.9076C81.9556 43.9573 81.9058 44.0402 81.8727 44.1563V44.4051C81.8727 44.488 81.8644 44.5709 81.8478 44.6538C81.8478 45.0021 81.8063 45.3669 81.7234 45.7483C81.6405 46.2292 81.5327 46.7184 81.4001 47.2159C81.284 47.6968 81.2259 48.186 81.2259 48.6835C81.2259 48.8659 81.2342 49.0483 81.2508 49.2308C81.2674 49.4132 81.3006 49.5956 81.3503 49.778C81.2674 49.9273 81.2259 50.118 81.2259 50.3501C81.2259 50.6155 81.2674 50.8642 81.3503 51.0964C81.4498 51.3119 81.5659 51.5275 81.6986 51.7431C81.9307 51.7431 82.1629 51.7348 82.395 51.7182C82.6272 51.7016 82.8677 51.6934 83.1164 51.6934C83.3486 51.6934 83.5642 51.7182 83.7632 51.768C83.9622 51.8011 84.1694 51.8841 84.385 52.0167ZM100.703 51.1212C100.637 51.37 100.529 51.5773 100.379 51.7431C100.23 51.9089 100.056 52.0582 99.8571 52.1908C99.6747 52.3235 99.4757 52.4479 99.2601 52.564C99.0445 52.6635 98.8372 52.7796 98.6382 52.9122H98.3149C97.6184 52.9122 97.0794 52.7464 96.698 52.4147C96.3332 52.0665 96.0513 51.6436 95.8523 51.1461C95.6533 50.632 95.504 50.0848 95.4045 49.5044C95.3216 48.924 95.2138 48.3933 95.0812 47.9124C94.8822 48.0782 94.7163 48.2772 94.5837 48.5094C94.451 48.725 94.31 48.9406 94.1608 49.1561C94.0281 49.3717 93.8706 49.5707 93.6882 49.7531C93.5223 49.9355 93.2985 50.0599 93.0166 50.1262C92.9668 50.2423 92.9088 50.3584 92.8424 50.4745C92.7927 50.5906 92.7595 50.715 92.7429 50.8476C92.3781 51.0466 92.0464 51.2788 91.7479 51.5441C91.4494 51.8094 91.1509 52.0831 90.8525 52.365C90.554 52.6469 90.2472 52.9205 89.9321 53.1858C89.6336 53.4346 89.2936 53.6419 88.9122 53.8077C88.8956 53.7911 88.8625 53.7828 88.8127 53.7828C88.6137 53.7828 88.4313 53.8326 88.2655 53.9321C88.0997 54.015 87.9172 54.0565 87.7182 54.0565C87.5856 54.0565 87.4612 54.0316 87.3451 53.9818C87.2456 53.9321 87.1378 53.874 87.0217 53.8077C86.9222 53.7414 86.8145 53.6916 86.6984 53.6585C86.5823 53.6253 86.4579 53.617 86.3253 53.6336C86.1594 53.3351 85.9356 53.0615 85.6536 52.8127C85.3883 52.5474 85.2225 52.2489 85.1561 51.9172C85.123 51.768 85.0981 51.6187 85.0815 51.4695C85.0815 51.3037 85.0649 51.1378 85.0318 50.972C84.982 50.7232 84.9157 50.4745 84.8328 50.2257C84.7499 49.9604 84.6835 49.6951 84.6338 49.4298C84.7167 48.982 84.7996 48.4928 84.8825 47.9621C84.9489 47.4149 85.0318 46.876 85.1313 46.3453C85.2474 45.7981 85.3966 45.284 85.579 44.8031C85.778 44.3056 86.0268 43.8827 86.3253 43.5345L86.3004 43.3603C86.3004 43.095 86.3501 42.8463 86.4496 42.6141C86.5491 42.3819 86.6569 42.1581 86.773 41.9425C86.8891 41.7269 86.9886 41.5113 87.0715 41.2957C87.1544 41.0801 87.171 40.8397 87.1212 40.5744C87.3202 40.4749 87.5275 40.3919 87.7431 40.3256C87.9587 40.2593 88.1826 40.2261 88.4147 40.2261C88.6303 40.2261 88.8293 40.2593 89.0117 40.3256C88.9786 40.4583 89.0366 40.5412 89.1858 40.5744V40.649C89.1858 40.9972 89.1444 41.3372 89.0615 41.6688C88.9786 42.0005 88.8791 42.3322 88.763 42.6638C88.6469 42.9789 88.5308 43.3023 88.4147 43.634C88.3152 43.949 88.2406 44.2724 88.1909 44.6041C88.1245 44.6206 88.0748 44.6538 88.0416 44.7036C88.025 44.7533 88.0084 44.8031 87.9919 44.8528C87.9753 44.9026 87.9504 44.944 87.9172 44.9772C87.8841 45.0104 87.8343 45.0269 87.768 45.0269C87.6685 45.6073 87.5607 46.1878 87.4446 46.7682C87.3451 47.332 87.2954 47.9041 87.2954 48.4845C87.2954 48.8328 87.3285 49.1893 87.3949 49.5541C87.4612 49.919 87.5856 50.2672 87.768 50.5989L87.8675 50.574C88.0499 50.574 88.1909 50.6155 88.2904 50.6984C88.4064 50.7813 88.5557 50.8642 88.7381 50.9471C88.8708 50.9139 88.9951 50.8725 89.1112 50.8227C89.2273 50.7564 89.2771 50.6486 89.2605 50.4994C89.4761 50.4828 89.6585 50.433 89.8077 50.3501C89.957 50.2506 90.0896 50.1428 90.2057 50.0268L90.5788 49.6785C90.7115 49.5624 90.869 49.4795 91.0514 49.4298C91.0514 49.3303 91.0763 49.2556 91.1261 49.2059L91.2753 49.0566C91.3251 49.0069 91.3582 48.9571 91.3748 48.9074C91.408 48.8411 91.4163 48.7498 91.3997 48.6338C91.5987 48.6172 91.7479 48.5674 91.8474 48.4845C91.9635 48.4016 92.063 48.3104 92.1459 48.2109C92.2454 48.0948 92.3366 47.9787 92.4196 47.8627C92.5025 47.7466 92.6103 47.6471 92.7429 47.5642C92.859 47.3154 93.0166 46.9837 93.2155 46.5692C93.4311 46.1546 93.6384 45.7234 93.8374 45.2757C94.053 44.8279 94.2354 44.4051 94.3847 44.0071C94.5505 43.5925 94.6334 43.2774 94.6334 43.0618C94.6334 42.9789 94.6085 42.9043 94.5588 42.838C94.5256 42.7716 94.5173 42.697 94.5339 42.6141V42.5395C94.6666 42.3736 94.7827 42.1912 94.8822 41.9922C94.9982 41.7932 95.1143 41.6025 95.2304 41.4201C95.3631 41.2377 95.504 41.0719 95.6533 40.9226C95.8025 40.7734 95.9932 40.6573 96.2254 40.5744C96.4907 40.6573 96.756 40.7153 97.0214 40.7485C97.3033 40.7817 97.5686 40.848 97.8174 40.9475C97.834 41.3621 97.8754 41.843 97.9417 42.3902C98.0081 42.9375 98.1242 43.4018 98.29 43.7832C98.29 43.9988 98.2817 44.2061 98.2651 44.4051C98.2651 44.6041 98.2651 44.8031 98.2651 45.0021C98.2651 45.3337 98.2734 45.6737 98.29 46.0219C98.3232 46.3702 98.3812 46.6935 98.4641 46.992C98.348 47.2408 98.29 47.5061 98.29 47.788C98.29 48.1694 98.348 48.5343 98.4641 48.8825C98.5802 49.2142 98.6631 49.5707 98.7129 49.9521C98.9284 50.2506 99.2104 50.3999 99.5586 50.3999C99.6415 50.3999 99.7078 50.3916 99.7576 50.375C99.8239 50.3584 99.8903 50.3335 99.9566 50.3004C100.089 50.4496 100.205 50.5989 100.305 50.7481C100.421 50.8808 100.554 51.0052 100.703 51.1212ZM138.264 55.0266C138.164 55.1592 138.04 55.2504 137.891 55.3002C137.741 55.3499 137.592 55.3914 137.443 55.4246C137.294 55.4577 137.136 55.4909 136.97 55.5241C136.821 55.5738 136.688 55.6484 136.572 55.7479C136.539 55.7645 136.514 55.7811 136.498 55.7977C136.498 55.8143 136.481 55.8226 136.448 55.8226C136.398 55.8226 136.348 55.7811 136.299 55.6982C136.265 55.6319 136.207 55.5821 136.124 55.5489C135.693 55.7811 135.229 55.9801 134.731 56.1459C134.234 56.3283 133.736 56.5108 133.239 56.6932C132.758 56.8922 132.285 57.0995 131.821 57.315C131.357 57.5472 130.95 57.8291 130.602 58.1608C130.337 58.1939 130.063 58.252 129.781 58.3349C129.516 58.4344 129.317 58.6168 129.184 58.8821H129.11C129.043 58.8821 128.994 58.8573 128.961 58.8075C128.927 58.7744 128.878 58.7578 128.811 58.7578C128.695 58.7578 128.621 58.7909 128.587 58.8573C128.554 58.9236 128.529 58.9899 128.513 59.0563C128.513 59.1392 128.504 59.2138 128.488 59.2801C128.471 59.3465 128.422 59.3796 128.339 59.3796C128.305 59.3796 128.272 59.3465 128.239 59.2801C128.206 59.2304 128.123 59.2138 127.99 59.2304C127.377 59.5621 126.738 59.8937 126.075 60.2254C125.412 60.5736 124.84 61.0131 124.359 61.5437C124.326 61.5106 124.284 61.494 124.234 61.494C124.201 61.494 124.176 61.494 124.16 61.494L124.135 61.5189C124.102 61.5189 124.077 61.5106 124.06 61.494C124.044 61.4774 124.027 61.4691 124.01 61.4691C123.629 61.8008 123.223 62.0993 122.792 62.3646C122.377 62.6465 121.954 62.9201 121.523 63.1855C121.092 63.4508 120.669 63.7161 120.254 63.9815C119.84 64.2634 119.45 64.5785 119.085 64.9267C118.853 64.9433 118.621 64.993 118.389 65.0759C118.157 65.1589 117.924 65.2418 117.692 65.3247C117.477 65.4076 117.253 65.4822 117.021 65.5486C116.788 65.6315 116.556 65.6729 116.324 65.6729C115.893 65.6729 115.536 65.4822 115.255 65.1008C115.205 65.134 115.155 65.1589 115.105 65.1754C115.072 65.192 115.031 65.2003 114.981 65.2003C114.848 65.2003 114.724 65.1423 114.608 65.0262C114.508 64.9267 114.367 64.8935 114.185 64.9267C113.969 64.6945 113.812 64.396 113.712 64.0312C113.629 63.683 113.522 63.3596 113.389 63.0611C113.422 62.4144 113.53 61.7842 113.712 61.1706C113.911 60.5736 114.036 59.9518 114.085 59.305C114.235 59.1558 114.351 58.9816 114.434 58.7826C114.517 58.6002 114.591 58.4012 114.658 58.1857C114.74 57.9867 114.823 57.7877 114.906 57.5887C114.989 57.3897 115.105 57.2238 115.255 57.0912C115.354 56.5937 115.52 56.1211 115.752 55.6733C115.984 55.2256 116.142 54.7447 116.225 54.2306C116.357 54.1477 116.465 54.0482 116.548 53.9321C116.648 53.816 116.755 53.7082 116.871 53.6087V53.4595C116.871 53.3268 116.838 53.2273 116.772 53.161C116.888 52.8625 117.012 52.5806 117.145 52.3152C117.294 52.0499 117.435 51.7846 117.568 51.5192C117.701 51.2539 117.817 50.9803 117.916 50.6984C118.016 50.4165 118.082 50.1097 118.115 49.778C118.248 49.6619 118.347 49.521 118.414 49.3551C118.48 49.1727 118.538 48.9986 118.588 48.8328C118.654 48.6504 118.72 48.4845 118.787 48.3353C118.87 48.186 119.002 48.0699 119.185 47.987C119.168 47.9539 119.16 47.9124 119.16 47.8627C119.16 47.6968 119.201 47.5476 119.284 47.4149C119.384 47.2822 119.433 47.1413 119.433 46.992C119.433 46.9091 119.409 46.8262 119.359 46.7433C119.691 46.0468 120.014 45.3669 120.329 44.7036C120.644 44.0237 120.885 43.3023 121.05 42.5395C121.216 42.4565 121.316 42.3322 121.349 42.1663C121.382 42.0005 121.457 41.8513 121.573 41.7186V41.5942C121.573 41.3123 121.631 40.9972 121.747 40.649C121.88 40.3007 122.037 40.0105 122.219 39.7784C122.302 39.198 122.394 38.5927 122.493 37.9625C122.609 37.3158 122.783 36.7271 123.015 36.1964C122.982 36.0803 122.933 35.9643 122.866 35.8482C122.816 35.7321 122.775 35.6077 122.742 35.475C122.327 35.7072 121.855 35.9145 121.324 36.0969C121.224 36.1301 121.117 36.1632 121.001 36.1964C120.885 36.213 120.785 36.2462 120.702 36.2959C120.603 36.3291 120.545 36.412 120.528 36.5447C120.511 36.6607 120.503 36.7602 120.503 36.8432C120.304 36.8432 120.147 36.8846 120.03 36.9675C119.914 37.0504 119.798 37.1499 119.682 37.266C119.583 37.3655 119.475 37.465 119.359 37.5645C119.243 37.6474 119.094 37.7055 118.911 37.7386C118.712 37.9376 118.546 38.0952 118.414 38.2113C118.281 38.3108 118.09 38.4103 117.842 38.5098C117.759 38.5429 117.676 38.6093 117.593 38.7088L117.344 39.0073C117.261 39.1068 117.178 39.1897 117.095 39.256C117.029 39.3223 116.954 39.3472 116.871 39.3306C116.822 39.4799 116.747 39.6042 116.648 39.7037C116.565 39.8032 116.473 39.9027 116.374 40.0022C116.274 40.0852 116.191 40.1847 116.125 40.3007C116.059 40.4168 116.034 40.5661 116.051 40.7485C115.984 40.8148 115.926 40.848 115.876 40.848C115.827 40.848 115.769 40.8148 115.702 40.7485C115.669 40.9475 115.603 41.1133 115.503 41.246C115.42 41.3621 115.321 41.4699 115.205 41.5694C115.089 41.6688 114.964 41.7683 114.832 41.8678C114.699 41.9673 114.575 42.0751 114.459 42.1912C114.309 42.1746 114.177 42.1415 114.061 42.0917C113.961 42.042 113.853 41.9922 113.737 41.9425C113.621 41.8927 113.497 41.8596 113.364 41.843C113.248 41.8098 113.099 41.8015 112.916 41.8181C112.933 41.7186 112.916 41.644 112.867 41.5942C112.817 41.5445 112.75 41.503 112.668 41.4699C112.668 41.3372 112.668 41.1714 112.668 40.9724C112.684 40.7734 112.692 40.5744 112.692 40.3754C112.709 40.1598 112.734 39.9608 112.767 39.7784C112.8 39.596 112.85 39.4467 112.916 39.3306C113.016 39.1648 113.173 39.0155 113.389 38.8829C113.621 38.7502 113.862 38.6176 114.11 38.4849C114.376 38.3356 114.624 38.1864 114.857 38.0371C115.105 37.8713 115.304 37.6723 115.454 37.4401C115.47 37.4567 115.503 37.465 115.553 37.465C115.686 37.465 115.793 37.4319 115.876 37.3655C115.959 37.2163 116.067 37.1085 116.2 37.0422C116.349 36.9758 116.482 36.8763 116.598 36.7437C116.648 36.6939 116.672 36.6359 116.672 36.5695C116.689 36.4866 116.722 36.4203 116.772 36.3705C116.822 36.3208 116.913 36.271 117.046 36.2213C117.195 36.1715 117.311 36.1052 117.394 36.0223C117.493 35.9394 117.568 35.8482 117.618 35.7487C117.684 35.6492 117.759 35.558 117.842 35.475C117.974 35.3755 118.115 35.3009 118.264 35.2512C118.43 35.2014 118.588 35.1351 118.737 35.0522C118.886 34.9527 119.019 34.8366 119.135 34.7039C119.268 34.5713 119.367 34.4137 119.433 34.2313C119.765 34.0821 120.089 33.9328 120.404 33.7836C120.719 33.6177 121.025 33.4436 121.324 33.2612C121.49 33.1617 121.647 33.0539 121.797 32.9378C121.946 32.8052 122.095 32.6808 122.244 32.5647C122.41 32.4486 122.576 32.3491 122.742 32.2662C122.924 32.1833 123.115 32.1418 123.314 32.1418C123.563 32.1418 123.753 32.1916 123.886 32.2911C124.019 32.374 124.135 32.4735 124.234 32.5896C124.35 32.6891 124.466 32.7969 124.583 32.913C124.715 33.029 124.881 33.112 125.08 33.1617C125.246 33.427 125.354 33.7172 125.403 34.0323C125.47 34.3308 125.511 34.6459 125.528 34.9776C125.544 35.2926 125.544 35.6077 125.528 35.9228C125.528 36.2379 125.553 36.5447 125.602 36.8432C125.503 37.1251 125.387 37.3987 125.254 37.664C125.122 37.9294 125.055 38.2113 125.055 38.5098C125.055 38.6258 125.063 38.7253 125.08 38.8083H124.782C124.715 39.3555 124.591 39.8945 124.408 40.4251C124.226 40.9392 124.019 41.4533 123.787 41.9673L123.115 43.4847C122.899 43.9822 122.717 44.4963 122.568 45.0269C122.535 45.1762 122.476 45.2674 122.394 45.3006C122.311 45.3171 122.253 45.3835 122.219 45.4996C122.137 45.682 122.07 45.881 122.02 46.0965C121.971 46.3121 121.904 46.5194 121.821 46.7184C121.656 47.1496 121.49 47.5642 121.324 47.9621C121.158 48.3601 120.984 48.7498 120.802 49.1313V49.38C120.802 49.4629 120.826 49.5044 120.876 49.5044C120.346 50.234 119.989 51.0632 119.807 51.9919C119.674 52.0914 119.574 52.2157 119.508 52.365C119.458 52.4976 119.375 52.6137 119.259 52.7132C119.143 53.1941 118.986 53.6667 118.787 54.1311C118.604 54.5788 118.414 55.0266 118.215 55.4743C118.016 55.9221 117.825 56.3698 117.643 56.8175C117.46 57.2819 117.319 57.7545 117.22 58.2354C117.037 58.4012 116.888 58.6002 116.772 58.8324C116.672 59.0646 116.581 59.3133 116.498 59.5786C116.432 59.844 116.366 60.1093 116.299 60.3746C116.25 60.64 116.191 60.8804 116.125 61.096L115.876 61.9915V62.489C115.876 62.5719 115.868 62.6631 115.852 62.7626C115.835 62.8621 115.785 62.9284 115.702 62.9616C115.735 63.0777 115.777 63.1689 115.827 63.2352C115.893 63.3016 115.91 63.3928 115.876 63.5088C115.943 63.6415 116.059 63.7161 116.225 63.7327C116.407 63.7659 116.565 63.8073 116.697 63.8571C116.83 63.8239 116.905 63.7493 116.921 63.6332C116.938 63.5171 116.979 63.4176 117.046 63.3347C117.195 63.1357 117.419 62.9201 117.717 62.688C118.032 62.4558 118.364 62.2154 118.712 61.9666C119.077 61.7179 119.425 61.4774 119.757 61.2452C120.105 61.0297 120.387 60.8307 120.603 60.6482H121.05C121.647 60.2668 122.244 59.8937 122.841 59.5289C123.438 59.1806 124.06 58.8656 124.707 58.5836C124.873 58.3681 125.072 58.2022 125.304 58.0862C125.553 57.9701 125.801 57.854 126.05 57.7379C126.315 57.6384 126.564 57.5306 126.796 57.4145C127.045 57.2985 127.244 57.1326 127.393 56.917C127.576 56.8839 127.775 56.8424 127.99 56.7927C128.206 56.7429 128.364 56.6268 128.463 56.4444H128.563C128.612 56.4444 128.662 56.4527 128.712 56.4693C128.762 56.5025 128.795 56.5522 128.811 56.6185C128.927 56.5854 128.994 56.5108 129.01 56.3947C129.043 56.2786 129.101 56.1791 129.184 56.0962C129.665 55.9138 130.154 55.7231 130.652 55.5241C131.149 55.3251 131.639 55.1012 132.12 54.8524C132.352 54.8524 132.609 54.8193 132.891 54.7529C133.189 54.6866 133.413 54.5374 133.562 54.3052C133.595 54.3218 133.637 54.3301 133.687 54.3301C133.869 54.3301 134.043 54.3052 134.209 54.2555C134.391 54.1891 134.574 54.1228 134.756 54.0565C134.939 53.9735 135.121 53.8989 135.304 53.8326C135.486 53.7662 135.677 53.7248 135.876 53.7082H135.925C135.959 53.7082 135.967 53.6667 135.95 53.5838C135.95 53.4843 135.95 53.4263 135.95 53.4097C135.95 53.3434 135.983 53.3185 136.05 53.3351C136.1 53.3185 136.182 53.3102 136.299 53.3102C136.481 53.3102 136.647 53.3517 136.796 53.4346C136.962 53.5009 137.119 53.5838 137.269 53.6833C137.418 53.7828 137.567 53.8906 137.716 54.0067C137.866 54.1062 138.023 54.1808 138.189 54.2306C138.156 54.3632 138.139 54.471 138.139 54.5539C138.139 54.6369 138.148 54.7198 138.164 54.8027C138.197 54.869 138.23 54.9437 138.264 55.0266ZM151.547 44.3802C151.547 45.4249 151.447 46.4448 151.248 47.4398C151.066 48.4182 150.842 49.4049 150.577 50.3999C150.394 50.5823 150.253 50.773 150.154 50.972C150.054 51.1544 150.013 51.3783 150.029 51.6436C149.83 51.6934 149.698 51.8177 149.631 52.0167C149.565 52.1991 149.49 52.3733 149.408 52.5391C149.126 52.7215 148.877 52.9371 148.661 53.1858C148.462 53.418 148.247 53.6502 148.015 53.8823C147.948 53.9487 147.882 54.0233 147.816 54.1062C147.766 54.1891 147.708 54.2555 147.641 54.3052C147.492 54.4213 147.326 54.5291 147.144 54.6286C146.961 54.7115 146.796 54.8027 146.646 54.9022C146.315 55.1178 145.991 55.3416 145.676 55.5738C145.361 55.8226 145.054 56.0879 144.756 56.3698C144.043 56.6517 143.355 56.9668 142.691 57.315C142.045 57.6799 141.398 58.0779 140.751 58.509H140.129C139.914 58.6417 139.715 58.7495 139.532 58.8324C139.35 58.9153 139.134 58.9568 138.886 58.9568C138.554 59.1724 138.189 59.3465 137.791 59.4791C137.393 59.6284 136.987 59.7611 136.572 59.8771C136.158 59.9932 135.743 60.101 135.328 60.2005C134.914 60.3 134.524 60.4161 134.159 60.5488C134.076 60.5322 133.993 60.5073 133.911 60.4741C133.844 60.4575 133.77 60.4493 133.687 60.4493C133.455 60.4493 133.239 60.499 133.04 60.5985C132.858 60.698 132.659 60.7726 132.443 60.8224C132.377 60.8555 132.302 60.8638 132.219 60.8472C132.136 60.8472 132.062 60.8472 131.995 60.8472C131.564 60.8472 131.174 60.7726 130.826 60.6234C130.478 60.4907 130.105 60.3829 129.707 60.3C129.607 60.0844 129.466 59.8771 129.284 59.6781L128.737 59.0811C128.554 58.8821 128.397 58.6749 128.264 58.4593C128.115 58.2603 128.024 58.0364 127.99 57.7877V57.5389C127.99 57.3565 127.974 57.1741 127.941 56.9917C127.907 56.8093 127.866 56.6268 127.816 56.4444C127.932 56.1459 128.048 55.8308 128.165 55.4992C128.281 55.1675 128.405 54.8442 128.538 54.5291C128.67 54.1974 128.82 53.8823 128.985 53.5838C129.151 53.2853 129.358 53.0283 129.607 52.8127C129.69 52.4479 129.823 52.1162 130.005 51.8177C130.171 51.5026 130.362 51.2042 130.577 50.9222C130.776 50.6237 130.975 50.3252 131.174 50.0268C131.373 49.7283 131.539 49.4049 131.672 49.0566C131.755 49.0732 131.805 49.0566 131.821 49.0069C131.854 48.9571 131.879 48.9074 131.896 48.8576C131.929 48.7913 131.962 48.7416 131.995 48.7084C132.028 48.6752 132.095 48.6752 132.194 48.7084C132.194 48.5426 132.227 48.4099 132.294 48.3104C132.36 48.1943 132.426 48.0865 132.493 47.987C132.576 47.8875 132.642 47.788 132.692 47.6885C132.758 47.5724 132.799 47.4398 132.816 47.2905C132.932 47.2408 133.023 47.1662 133.09 47.0667C133.173 46.9672 133.247 46.8677 133.314 46.7682C133.38 46.6521 133.446 46.5443 133.513 46.4448C133.579 46.3453 133.678 46.2707 133.811 46.2209C133.844 46.0053 133.902 45.8229 133.985 45.6737C134.085 45.5078 134.184 45.3586 134.284 45.2259C134.4 45.0933 134.508 44.9606 134.607 44.8279C134.723 44.6787 134.814 44.5129 134.881 44.3304C134.98 44.2475 135.096 44.2227 135.229 44.2558C135.461 43.7915 135.735 43.352 136.05 42.9375C136.365 42.5229 136.688 42.1166 137.02 41.7186C137.352 41.3206 137.683 40.9226 138.015 40.5246C138.347 40.11 138.637 39.6789 138.886 39.2311C139.118 39.0985 139.333 38.9409 139.532 38.7585C139.748 38.5595 139.922 38.3356 140.055 38.0869C139.723 37.4567 139.433 36.8514 139.184 36.271C138.935 35.674 138.811 35.0024 138.811 34.2562C138.811 34.1401 138.819 34.024 138.836 33.9079C138.852 33.7919 138.869 33.6675 138.886 33.5348C139.167 33.1534 139.441 32.8383 139.706 32.5896C139.972 32.3243 140.361 32.1916 140.875 32.1916C141.373 32.1916 141.854 32.2828 142.318 32.4652C142.799 32.6476 143.288 32.7388 143.786 32.7388C144.035 32.9212 144.283 33.0871 144.532 33.2363C144.797 33.369 145.071 33.5017 145.353 33.6343L145.676 33.7587C145.809 33.7919 145.925 33.8333 146.025 33.8831C146.124 33.9494 146.224 34.024 146.323 34.1069C146.439 34.1899 146.547 34.2728 146.646 34.3557C147.31 34.9029 147.923 35.4999 148.487 36.1467C149.068 36.7768 149.64 37.4236 150.204 38.0869V38.1366C150.204 38.402 150.262 38.6093 150.378 38.7585C150.494 38.8912 150.618 39.0487 150.751 39.2311C150.751 39.5296 150.792 39.795 150.875 40.0271C150.958 40.2593 151.066 40.4997 151.198 40.7485C151.198 40.9806 151.198 41.2211 151.198 41.4699C151.215 41.702 151.257 41.9342 151.323 42.1663C151.389 42.3322 151.431 42.4565 151.447 42.5395C151.514 42.7716 151.547 43.0701 151.547 43.435V44.3802ZM149.532 44.3553C149.532 43.8744 149.499 43.435 149.432 43.037C149.383 42.6224 149.316 42.1829 149.233 41.7186C149.167 41.3206 149.084 40.9226 148.985 40.5246C148.902 40.1266 148.769 39.7452 148.587 39.3804C148.421 39.0155 148.197 38.6839 147.915 38.3854C147.65 38.0869 147.318 37.8299 146.92 37.6143H146.845C146.796 37.6143 146.738 37.6557 146.671 37.7386C146.622 37.805 146.505 37.8381 146.323 37.8381C146.224 37.8381 146.124 37.8216 146.025 37.7884C145.942 37.7386 145.859 37.7221 145.776 37.7386H145.676C145.477 37.8381 145.303 37.9128 145.154 37.9625C145.005 38.0123 144.814 38.0206 144.582 37.9874C144.333 38.2196 144.068 38.4351 143.786 38.6341C143.52 38.8165 143.222 38.9575 142.89 39.057C142.741 39.3555 142.55 39.6208 142.318 39.853C142.086 40.0686 141.804 40.2178 141.472 40.3007C141.406 40.4997 141.307 40.6739 141.174 40.8231C141.058 40.9558 140.925 41.0801 140.776 41.1962C140.627 41.2957 140.469 41.3952 140.303 41.4947C140.138 41.5942 139.988 41.702 139.856 41.8181C139.723 41.9508 139.615 42.0917 139.532 42.241C139.466 42.3736 139.366 42.498 139.234 42.6141C139.051 42.7799 138.886 42.9375 138.736 43.0867C138.604 43.236 138.471 43.4101 138.338 43.6091C138.222 43.7915 138.106 43.9739 137.99 44.1563C137.891 44.3387 137.832 44.546 137.816 44.7782C137.335 45.0601 136.954 45.4249 136.672 45.8727L135.826 47.2159C135.71 47.3817 135.594 47.531 135.478 47.6637L135.129 48.0616C135.08 48.128 135.047 48.2026 135.03 48.2855C135.03 48.3684 135.038 48.4514 135.055 48.5343C134.823 48.7001 134.624 48.8991 134.458 49.1313C134.292 49.3468 134.134 49.579 133.985 49.8278C133.853 50.0765 133.703 50.3252 133.537 50.574C133.388 50.8062 133.206 51.0134 132.99 51.1959C132.858 51.5275 132.7 51.8675 132.518 52.2157C132.352 52.5474 132.128 52.8293 131.846 53.0615C131.564 53.758 131.29 54.4462 131.025 55.1261C130.776 55.806 130.602 56.519 130.503 57.2653C130.619 57.3814 130.735 57.4809 130.851 57.5638C130.967 57.6633 131.083 57.7711 131.199 57.8872C131.216 57.9037 131.249 57.912 131.299 57.912C131.382 57.912 131.44 57.8872 131.473 57.8374C131.523 57.7877 131.581 57.7628 131.647 57.7628C131.68 57.7628 131.697 57.7628 131.697 57.7628L131.746 57.7877C131.763 57.9037 131.813 57.9867 131.896 58.0364C131.979 58.0862 132.078 58.1193 132.194 58.1359C132.31 58.1691 132.426 58.1939 132.542 58.2105C132.659 58.2271 132.75 58.2686 132.816 58.3349C133.181 58.2188 133.587 58.1276 134.035 58.0613C134.483 58.0115 134.922 57.9452 135.353 57.8623C135.801 57.796 136.232 57.6965 136.647 57.5638C137.061 57.4311 137.418 57.2404 137.716 56.9917H137.99C138.156 56.9917 138.272 57.0248 138.338 57.0912C138.653 56.7761 138.968 56.5356 139.284 56.3698C139.599 56.204 139.972 56.1128 140.403 56.0962C141.033 55.5158 141.746 55.0514 142.542 54.7032C143.355 54.3384 144.126 53.9404 144.855 53.5092C144.938 53.476 144.98 53.418 144.98 53.3351C144.98 53.2356 145.021 53.1775 145.104 53.161C145.187 53.1444 145.253 53.1444 145.303 53.161C145.37 53.161 145.436 53.161 145.502 53.161C146.083 52.5971 146.638 52.025 147.169 51.4446C147.716 50.8476 148.197 50.2009 148.612 49.5044C148.612 49.3883 148.62 49.2888 148.636 49.2059C148.67 49.1064 148.686 49.0152 148.686 48.9323C148.686 48.8991 148.678 48.8659 148.661 48.8328C148.645 48.783 148.628 48.7416 148.612 48.7084C148.943 48.0451 149.175 47.3403 149.308 46.594C149.457 45.8312 149.532 45.085 149.532 44.3553ZM143.786 35.4004C143.57 35.2512 143.313 35.1185 143.015 35.0024C142.716 34.8698 142.434 34.8034 142.169 34.8034C141.887 34.8034 141.68 34.8863 141.547 35.0522C141.431 35.2014 141.373 35.4087 141.373 35.674C141.373 35.8233 141.414 35.9477 141.497 36.0472C141.58 36.1301 141.597 36.2959 141.547 36.5447C141.597 36.5778 141.663 36.5944 141.746 36.5944C141.945 36.5944 142.136 36.553 142.318 36.47C142.501 36.3871 142.666 36.2876 142.816 36.1715C142.982 36.0389 143.139 35.9062 143.288 35.7735C143.454 35.6243 143.62 35.4999 143.786 35.4004ZM179.456 55.0266C179.357 55.1592 179.232 55.2504 179.083 55.3002C178.934 55.3499 178.785 55.3914 178.635 55.4246C178.486 55.4577 178.328 55.4909 178.163 55.5241C178.013 55.5738 177.881 55.6484 177.765 55.7479C177.731 55.7645 177.707 55.7811 177.69 55.7977C177.69 55.8143 177.673 55.8226 177.64 55.8226C177.591 55.8226 177.541 55.7811 177.491 55.6982C177.458 55.6319 177.4 55.5821 177.317 55.5489C176.886 55.7811 176.421 55.9801 175.924 56.1459C175.426 56.3283 174.929 56.5108 174.431 56.6932C173.951 56.8922 173.478 57.0995 173.014 57.315C172.549 57.5472 172.143 57.8291 171.795 58.1608C171.529 58.1939 171.256 58.252 170.974 58.3349C170.709 58.4344 170.51 58.6168 170.377 58.8821H170.302C170.236 58.8821 170.186 58.8573 170.153 58.8075C170.12 58.7744 170.07 58.7578 170.004 58.7578C169.888 58.7578 169.813 58.7909 169.78 58.8573C169.747 58.9236 169.722 58.9899 169.705 59.0563C169.705 59.1392 169.697 59.2138 169.68 59.2801C169.664 59.3465 169.614 59.3796 169.531 59.3796C169.498 59.3796 169.465 59.3465 169.432 59.2801C169.398 59.2304 169.316 59.2138 169.183 59.2304C168.569 59.5621 167.931 59.8937 167.268 60.2254C166.604 60.5736 166.032 61.0131 165.551 61.5437C165.518 61.5106 165.477 61.494 165.427 61.494C165.394 61.494 165.369 61.494 165.352 61.494L165.327 61.5189C165.294 61.5189 165.269 61.5106 165.253 61.494C165.236 61.4774 165.22 61.4691 165.203 61.4691C164.822 61.8008 164.415 62.0993 163.984 62.3646C163.569 62.6465 163.147 62.9201 162.715 63.1855C162.284 63.4508 161.861 63.7161 161.447 63.9815C161.032 64.2634 160.643 64.5785 160.278 64.9267C160.046 64.9433 159.813 64.993 159.581 65.0759C159.349 65.1589 159.117 65.2418 158.885 65.3247C158.669 65.4076 158.445 65.4822 158.213 65.5486C157.981 65.6315 157.749 65.6729 157.517 65.6729C157.085 65.6729 156.729 65.4822 156.447 65.1008C156.397 65.134 156.348 65.1589 156.298 65.1754C156.265 65.192 156.223 65.2003 156.173 65.2003C156.041 65.2003 155.916 65.1423 155.8 65.0262C155.701 64.9267 155.56 64.8935 155.377 64.9267C155.162 64.6945 155.004 64.396 154.905 64.0312C154.822 63.683 154.714 63.3596 154.581 63.0611C154.615 62.4144 154.722 61.7842 154.905 61.1706C155.104 60.5736 155.228 59.9518 155.278 59.305C155.427 59.1558 155.543 58.9816 155.626 58.7826C155.709 58.6002 155.784 58.4012 155.85 58.1857C155.933 57.9867 156.016 57.7877 156.099 57.5887C156.182 57.3897 156.298 57.2238 156.447 57.0912C156.547 56.5937 156.712 56.1211 156.945 55.6733C157.177 55.2256 157.334 54.7447 157.417 54.2306C157.55 54.1477 157.658 54.0482 157.741 53.9321C157.84 53.816 157.948 53.7082 158.064 53.6087V53.4595C158.064 53.3268 158.031 53.2273 157.964 53.161C158.08 52.8625 158.205 52.5806 158.338 52.3152C158.487 52.0499 158.628 51.7846 158.76 51.5192C158.893 51.2539 159.009 50.9803 159.109 50.6984C159.208 50.4165 159.274 50.1097 159.308 49.778C159.44 49.6619 159.54 49.521 159.606 49.3551C159.672 49.1727 159.731 48.9986 159.78 48.8328C159.847 48.6504 159.913 48.4845 159.979 48.3353C160.062 48.186 160.195 48.0699 160.377 47.987C160.361 47.9539 160.352 47.9124 160.352 47.8627C160.352 47.6968 160.394 47.5476 160.477 47.4149C160.576 47.2822 160.626 47.1413 160.626 46.992C160.626 46.9091 160.601 46.8262 160.551 46.7433C160.883 46.0468 161.206 45.3669 161.521 44.7036C161.837 44.0237 162.077 43.3023 162.243 42.5395C162.409 42.4565 162.508 42.3322 162.541 42.1663C162.575 42.0005 162.649 41.8513 162.765 41.7186V41.5942C162.765 41.3123 162.823 40.9972 162.939 40.649C163.072 40.3007 163.23 40.0105 163.412 39.7784C163.495 39.198 163.586 38.5927 163.686 37.9625C163.802 37.3158 163.976 36.7271 164.208 36.1964C164.175 36.0803 164.125 35.9643 164.059 35.8482C164.009 35.7321 163.967 35.6077 163.934 35.475C163.52 35.7072 163.047 35.9145 162.516 36.0969C162.417 36.1301 162.309 36.1632 162.193 36.1964C162.077 36.213 161.978 36.2462 161.895 36.2959C161.795 36.3291 161.737 36.412 161.72 36.5447C161.704 36.6607 161.696 36.7602 161.696 36.8432C161.497 36.8432 161.339 36.8846 161.223 36.9675C161.107 37.0504 160.991 37.1499 160.875 37.266C160.775 37.3655 160.667 37.465 160.551 37.5645C160.435 37.6474 160.286 37.7055 160.104 37.7386C159.905 37.9376 159.739 38.0952 159.606 38.2113C159.473 38.3108 159.283 38.4103 159.034 38.5098C158.951 38.5429 158.868 38.6093 158.785 38.7088L158.537 39.0073C158.454 39.1068 158.371 39.1897 158.288 39.256C158.221 39.3223 158.147 39.3472 158.064 39.3306C158.014 39.4799 157.94 39.6042 157.84 39.7037C157.757 39.8032 157.666 39.9027 157.566 40.0022C157.467 40.0852 157.384 40.1847 157.318 40.3007C157.251 40.4168 157.226 40.5661 157.243 40.7485C157.177 40.8148 157.119 40.848 157.069 40.848C157.019 40.848 156.961 40.8148 156.895 40.7485C156.862 40.9475 156.795 41.1133 156.696 41.246C156.613 41.3621 156.513 41.4699 156.397 41.5694C156.281 41.6688 156.157 41.7683 156.024 41.8678C155.892 41.9673 155.767 42.0751 155.651 42.1912C155.502 42.1746 155.369 42.1415 155.253 42.0917C155.154 42.042 155.046 41.9922 154.93 41.9425C154.814 41.8927 154.689 41.8596 154.557 41.843C154.44 41.8098 154.291 41.8015 154.109 41.8181C154.125 41.7186 154.109 41.644 154.059 41.5942C154.009 41.5445 153.943 41.503 153.86 41.4699C153.86 41.3372 153.86 41.1714 153.86 40.9724C153.877 40.7734 153.885 40.5744 153.885 40.3754C153.902 40.1598 153.926 39.9608 153.96 39.7784C153.993 39.596 154.042 39.4467 154.109 39.3306C154.208 39.1648 154.366 39.0155 154.581 38.8829C154.814 38.7502 155.054 38.6176 155.303 38.4849C155.568 38.3356 155.817 38.1864 156.049 38.0371C156.298 37.8713 156.497 37.6723 156.646 37.4401C156.663 37.4567 156.696 37.465 156.746 37.465C156.878 37.465 156.986 37.4319 157.069 37.3655C157.152 37.2163 157.26 37.1085 157.392 37.0422C157.542 36.9758 157.674 36.8763 157.79 36.7437C157.84 36.6939 157.865 36.6359 157.865 36.5695C157.881 36.4866 157.915 36.4203 157.964 36.3705C158.014 36.3208 158.105 36.271 158.238 36.2213C158.387 36.1715 158.503 36.1052 158.586 36.0223C158.686 35.9394 158.76 35.8482 158.81 35.7487C158.876 35.6492 158.951 35.558 159.034 35.475C159.167 35.3755 159.308 35.3009 159.457 35.2512C159.623 35.2014 159.78 35.1351 159.93 35.0522C160.079 34.9527 160.211 34.8366 160.327 34.7039C160.46 34.5713 160.56 34.4137 160.626 34.2313C160.958 34.0821 161.281 33.9328 161.596 33.7836C161.911 33.6177 162.218 33.4436 162.516 33.2612C162.682 33.1617 162.84 33.0539 162.989 32.9378C163.138 32.8052 163.288 32.6808 163.437 32.5647C163.603 32.4486 163.768 32.3491 163.934 32.2662C164.117 32.1833 164.307 32.1418 164.506 32.1418C164.755 32.1418 164.946 32.1916 165.079 32.2911C165.211 32.374 165.327 32.4735 165.427 32.5896C165.543 32.6891 165.659 32.7969 165.775 32.913C165.908 33.029 166.074 33.112 166.273 33.1617C166.438 33.427 166.546 33.7172 166.596 34.0323C166.662 34.3308 166.704 34.6459 166.72 34.9776C166.737 35.2926 166.737 35.6077 166.72 35.9228C166.72 36.2379 166.745 36.5447 166.795 36.8432C166.695 37.1251 166.579 37.3987 166.447 37.664C166.314 37.9294 166.248 38.2113 166.248 38.5098C166.248 38.6258 166.256 38.7253 166.273 38.8083H165.974C165.908 39.3555 165.783 39.8945 165.601 40.4251C165.419 40.9392 165.211 41.4533 164.979 41.9673L164.307 43.4847C164.092 43.9822 163.909 44.4963 163.76 45.0269C163.727 45.1762 163.669 45.2674 163.586 45.3006C163.503 45.3171 163.445 45.3835 163.412 45.4996C163.329 45.682 163.263 45.881 163.213 46.0965C163.163 46.3121 163.097 46.5194 163.014 46.7184C162.848 47.1496 162.682 47.5642 162.516 47.9621C162.351 48.3601 162.177 48.7498 161.994 49.1313V49.38C161.994 49.4629 162.019 49.5044 162.069 49.5044C161.538 50.234 161.182 51.0632 160.999 51.9919C160.866 52.0914 160.767 52.2157 160.701 52.365C160.651 52.4976 160.568 52.6137 160.452 52.7132C160.336 53.1941 160.178 53.6667 159.979 54.1311C159.797 54.5788 159.606 55.0266 159.407 55.4743C159.208 55.9221 159.017 56.3698 158.835 56.8175C158.653 57.2819 158.512 57.7545 158.412 58.2354C158.23 58.4012 158.08 58.6002 157.964 58.8324C157.865 59.0646 157.774 59.3133 157.691 59.5786C157.624 59.844 157.558 60.1093 157.492 60.3746C157.442 60.64 157.384 60.8804 157.318 61.096L157.069 61.9915V62.489C157.069 62.5719 157.061 62.6631 157.044 62.7626C157.027 62.8621 156.978 62.9284 156.895 62.9616C156.928 63.0777 156.969 63.1689 157.019 63.2352C157.085 63.3016 157.102 63.3928 157.069 63.5088C157.135 63.6415 157.251 63.7161 157.417 63.7327C157.6 63.7659 157.757 63.8073 157.89 63.8571C158.022 63.8239 158.097 63.7493 158.114 63.6332C158.13 63.5171 158.172 63.4176 158.238 63.3347C158.387 63.1357 158.611 62.9201 158.91 62.688C159.225 62.4558 159.556 62.2154 159.905 61.9666C160.269 61.7179 160.618 61.4774 160.949 61.2452C161.298 61.0297 161.58 60.8307 161.795 60.6482H162.243C162.84 60.2668 163.437 59.8937 164.034 59.5289C164.631 59.1806 165.253 58.8656 165.899 58.5836C166.065 58.3681 166.264 58.2022 166.496 58.0862C166.745 57.9701 166.994 57.854 167.243 57.7379C167.508 57.6384 167.757 57.5306 167.989 57.4145C168.238 57.2985 168.437 57.1326 168.586 56.917C168.768 56.8839 168.967 56.8424 169.183 56.7927C169.398 56.7429 169.556 56.6268 169.656 56.4444H169.755C169.805 56.4444 169.855 56.4527 169.904 56.4693C169.954 56.5025 169.987 56.5522 170.004 56.6185C170.12 56.5854 170.186 56.5108 170.203 56.3947C170.236 56.2786 170.294 56.1791 170.377 56.0962C170.858 55.9138 171.347 55.7231 171.844 55.5241C172.342 55.3251 172.831 55.1012 173.312 54.8524C173.544 54.8524 173.801 54.8193 174.083 54.7529C174.382 54.6866 174.606 54.5374 174.755 54.3052C174.788 54.3218 174.829 54.3301 174.879 54.3301C175.062 54.3301 175.236 54.3052 175.402 54.2555C175.584 54.1891 175.766 54.1228 175.949 54.0565C176.131 53.9735 176.314 53.8989 176.496 53.8326C176.678 53.7662 176.869 53.7248 177.068 53.7082H177.118C177.151 53.7082 177.159 53.6667 177.143 53.5838C177.143 53.4843 177.143 53.4263 177.143 53.4097C177.143 53.3434 177.176 53.3185 177.242 53.3351C177.292 53.3185 177.375 53.3102 177.491 53.3102C177.673 53.3102 177.839 53.3517 177.989 53.4346C178.154 53.5009 178.312 53.5838 178.461 53.6833C178.61 53.7828 178.76 53.8906 178.909 54.0067C179.058 54.1062 179.216 54.1808 179.382 54.2306C179.348 54.3632 179.332 54.471 179.332 54.5539C179.332 54.6369 179.34 54.7198 179.357 54.8027C179.39 54.869 179.423 54.9437 179.456 55.0266ZM198.684 55.0266C198.585 55.1592 198.46 55.2504 198.311 55.3002C198.162 55.3499 198.013 55.3914 197.863 55.4246C197.714 55.4577 197.557 55.4909 197.391 55.5241C197.242 55.5738 197.109 55.6484 196.993 55.7479C196.96 55.7645 196.935 55.7811 196.918 55.7977C196.918 55.8143 196.902 55.8226 196.868 55.8226C196.819 55.8226 196.769 55.7811 196.719 55.6982C196.686 55.6319 196.628 55.5821 196.545 55.5489C196.114 55.7811 195.65 55.9801 195.152 56.1459C194.655 56.3283 194.157 56.5108 193.66 56.6932C193.179 56.8922 192.706 57.0995 192.242 57.315C191.777 57.5472 191.371 57.8291 191.023 58.1608C190.758 58.1939 190.484 58.252 190.202 58.3349C189.937 58.4344 189.738 58.6168 189.605 58.8821H189.53C189.464 58.8821 189.414 58.8573 189.381 58.8075C189.348 58.7744 189.298 58.7578 189.232 58.7578C189.116 58.7578 189.041 58.7909 189.008 58.8573C188.975 58.9236 188.95 58.9899 188.933 59.0563C188.933 59.1392 188.925 59.2138 188.909 59.2801C188.892 59.3465 188.842 59.3796 188.759 59.3796C188.726 59.3796 188.693 59.3465 188.66 59.2801C188.627 59.2304 188.544 59.2138 188.411 59.2304C187.797 59.5621 187.159 59.8937 186.496 60.2254C185.832 60.5736 185.26 61.0131 184.779 61.5437C184.746 61.5106 184.705 61.494 184.655 61.494C184.622 61.494 184.597 61.494 184.58 61.494L184.555 61.5189C184.522 61.5189 184.497 61.5106 184.481 61.494C184.464 61.4774 184.448 61.4691 184.431 61.4691C184.05 61.8008 183.643 62.0993 183.212 62.3646C182.798 62.6465 182.375 62.9201 181.944 63.1855C181.512 63.4508 181.09 63.7161 180.675 63.9815C180.26 64.2634 179.871 64.5785 179.506 64.9267C179.274 64.9433 179.042 64.993 178.809 65.0759C178.577 65.1589 178.345 65.2418 178.113 65.3247C177.897 65.4076 177.673 65.4822 177.441 65.5486C177.209 65.6315 176.977 65.6729 176.745 65.6729C176.314 65.6729 175.957 65.4822 175.675 65.1008C175.625 65.134 175.576 65.1589 175.526 65.1754C175.493 65.192 175.451 65.2003 175.402 65.2003C175.269 65.2003 175.145 65.1423 175.028 65.0262C174.929 64.9267 174.788 64.8935 174.606 64.9267C174.39 64.6945 174.232 64.396 174.133 64.0312C174.05 63.683 173.942 63.3596 173.81 63.0611C173.843 62.4144 173.951 61.7842 174.133 61.1706C174.332 60.5736 174.456 59.9518 174.506 59.305C174.655 59.1558 174.771 58.9816 174.854 58.7826C174.937 58.6002 175.012 58.4012 175.078 58.1857C175.161 57.9867 175.244 57.7877 175.327 57.5887C175.41 57.3897 175.526 57.2238 175.675 57.0912C175.775 56.5937 175.941 56.1211 176.173 55.6733C176.405 55.2256 176.562 54.7447 176.645 54.2306C176.778 54.1477 176.886 54.0482 176.969 53.9321C177.068 53.816 177.176 53.7082 177.292 53.6087V53.4595C177.292 53.3268 177.259 53.2273 177.193 53.161C177.309 52.8625 177.433 52.5806 177.566 52.3152C177.715 52.0499 177.856 51.7846 177.989 51.5192C178.121 51.2539 178.237 50.9803 178.337 50.6984C178.436 50.4165 178.503 50.1097 178.536 49.778C178.668 49.6619 178.768 49.521 178.834 49.3551C178.901 49.1727 178.959 48.9986 179.008 48.8328C179.075 48.6504 179.141 48.4845 179.207 48.3353C179.29 48.186 179.423 48.0699 179.605 47.987C179.589 47.9539 179.581 47.9124 179.581 47.8627C179.581 47.6968 179.622 47.5476 179.705 47.4149C179.804 47.2822 179.854 47.1413 179.854 46.992C179.854 46.9091 179.829 46.8262 179.78 46.7433C180.111 46.0468 180.435 45.3669 180.75 44.7036C181.065 44.0237 181.305 43.3023 181.471 42.5395C181.637 42.4565 181.736 42.3322 181.769 42.1663C181.803 42.0005 181.877 41.8513 181.993 41.7186V41.5942C181.993 41.3123 182.051 40.9972 182.167 40.649C182.3 40.3007 182.458 40.0105 182.64 39.7784C182.723 39.198 182.814 38.5927 182.914 37.9625C183.03 37.3158 183.204 36.7271 183.436 36.1964C183.403 36.0803 183.353 35.9643 183.287 35.8482C183.237 35.7321 183.196 35.6077 183.162 35.475C182.748 35.7072 182.275 35.9145 181.745 36.0969C181.645 36.1301 181.537 36.1632 181.421 36.1964C181.305 36.213 181.206 36.2462 181.123 36.2959C181.023 36.3291 180.965 36.412 180.949 36.5447C180.932 36.6607 180.924 36.7602 180.924 36.8432C180.725 36.8432 180.567 36.8846 180.451 36.9675C180.335 37.0504 180.219 37.1499 180.103 37.266C180.003 37.3655 179.896 37.465 179.78 37.5645C179.663 37.6474 179.514 37.7055 179.332 37.7386C179.133 37.9376 178.967 38.0952 178.834 38.2113C178.702 38.3108 178.511 38.4103 178.262 38.5098C178.179 38.5429 178.096 38.6093 178.013 38.7088L177.765 39.0073C177.682 39.1068 177.599 39.1897 177.516 39.256C177.45 39.3223 177.375 39.3472 177.292 39.3306C177.242 39.4799 177.168 39.6042 177.068 39.7037C176.985 39.8032 176.894 39.9027 176.795 40.0022C176.695 40.0852 176.612 40.1847 176.546 40.3007C176.479 40.4168 176.455 40.5661 176.471 40.7485C176.405 40.8148 176.347 40.848 176.297 40.848C176.247 40.848 176.189 40.8148 176.123 40.7485C176.09 40.9475 176.023 41.1133 175.924 41.246C175.841 41.3621 175.742 41.4699 175.625 41.5694C175.509 41.6688 175.385 41.7683 175.252 41.8678C175.12 41.9673 174.995 42.0751 174.879 42.1912C174.73 42.1746 174.597 42.1415 174.481 42.0917C174.382 42.042 174.274 41.9922 174.158 41.9425C174.042 41.8927 173.917 41.8596 173.785 41.843C173.669 41.8098 173.519 41.8015 173.337 41.8181C173.354 41.7186 173.337 41.644 173.287 41.5942C173.237 41.5445 173.171 41.503 173.088 41.4699C173.088 41.3372 173.088 41.1714 173.088 40.9724C173.105 40.7734 173.113 40.5744 173.113 40.3754C173.13 40.1598 173.155 39.9608 173.188 39.7784C173.221 39.596 173.271 39.4467 173.337 39.3306C173.436 39.1648 173.594 39.0155 173.81 38.8829C174.042 38.7502 174.282 38.6176 174.531 38.4849C174.796 38.3356 175.045 38.1864 175.277 38.0371C175.526 37.8713 175.725 37.6723 175.874 37.4401C175.891 37.4567 175.924 37.465 175.974 37.465C176.106 37.465 176.214 37.4319 176.297 37.3655C176.38 37.2163 176.488 37.1085 176.62 37.0422C176.77 36.9758 176.902 36.8763 177.018 36.7437C177.068 36.6939 177.093 36.6359 177.093 36.5695C177.11 36.4866 177.143 36.4203 177.193 36.3705C177.242 36.3208 177.334 36.271 177.466 36.2213C177.615 36.1715 177.732 36.1052 177.814 36.0223C177.914 35.9394 177.989 35.8482 178.038 35.7487C178.105 35.6492 178.179 35.558 178.262 35.475C178.395 35.3755 178.536 35.3009 178.685 35.2512C178.851 35.2014 179.008 35.1351 179.158 35.0522C179.307 34.9527 179.44 34.8366 179.556 34.7039C179.688 34.5713 179.788 34.4137 179.854 34.2313C180.186 34.0821 180.509 33.9328 180.824 33.7836C181.139 33.6177 181.446 33.4436 181.745 33.2612C181.91 33.1617 182.068 33.0539 182.217 32.9378C182.366 32.8052 182.516 32.6808 182.665 32.5647C182.831 32.4486 182.997 32.3491 183.162 32.2662C183.345 32.1833 183.536 32.1418 183.735 32.1418C183.983 32.1418 184.174 32.1916 184.307 32.2911C184.439 32.374 184.555 32.4735 184.655 32.5896C184.771 32.6891 184.887 32.7969 185.003 32.913C185.136 33.029 185.302 33.112 185.501 33.1617C185.667 33.427 185.774 33.7172 185.824 34.0323C185.89 34.3308 185.932 34.6459 185.948 34.9776C185.965 35.2926 185.965 35.6077 185.948 35.9228C185.948 36.2379 185.973 36.5447 186.023 36.8432C185.924 37.1251 185.807 37.3987 185.675 37.664C185.542 37.9294 185.476 38.2113 185.476 38.5098C185.476 38.6258 185.484 38.7253 185.501 38.8083H185.202C185.136 39.3555 185.011 39.8945 184.829 40.4251C184.647 40.9392 184.439 41.4533 184.207 41.9673L183.536 43.4847C183.32 43.9822 183.138 44.4963 182.988 45.0269C182.955 45.1762 182.897 45.2674 182.814 45.3006C182.731 45.3171 182.673 45.3835 182.64 45.4996C182.557 45.682 182.491 45.881 182.441 46.0965C182.391 46.3121 182.325 46.5194 182.242 46.7184C182.076 47.1496 181.91 47.5642 181.745 47.9621C181.579 48.3601 181.405 48.7498 181.222 49.1313V49.38C181.222 49.4629 181.247 49.5044 181.297 49.5044C180.766 50.234 180.41 51.0632 180.227 51.9919C180.095 52.0914 179.995 52.2157 179.929 52.365C179.879 52.4976 179.796 52.6137 179.68 52.7132C179.564 53.1941 179.406 53.6667 179.207 54.1311C179.025 54.5788 178.834 55.0266 178.635 55.4743C178.436 55.9221 178.246 56.3698 178.063 56.8175C177.881 57.2819 177.74 57.7545 177.64 58.2354C177.458 58.4012 177.309 58.6002 177.193 58.8324C177.093 59.0646 177.002 59.3133 176.919 59.5786C176.853 59.844 176.786 60.1093 176.72 60.3746C176.67 60.64 176.612 60.8804 176.546 61.096L176.297 61.9915V62.489C176.297 62.5719 176.289 62.6631 176.272 62.7626C176.256 62.8621 176.206 62.9284 176.123 62.9616C176.156 63.0777 176.198 63.1689 176.247 63.2352C176.314 63.3016 176.33 63.3928 176.297 63.5088C176.363 63.6415 176.479 63.7161 176.645 63.7327C176.828 63.7659 176.985 63.8073 177.118 63.8571C177.251 63.8239 177.325 63.7493 177.342 63.6332C177.358 63.5171 177.4 63.4176 177.466 63.3347C177.615 63.1357 177.839 62.9201 178.138 62.688C178.453 62.4558 178.785 62.2154 179.133 61.9666C179.498 61.7179 179.846 61.4774 180.178 61.2452C180.526 61.0297 180.808 60.8307 181.023 60.6482H181.471C182.068 60.2668 182.665 59.8937 183.262 59.5289C183.859 59.1806 184.481 58.8656 185.128 58.5836C185.293 58.3681 185.492 58.2022 185.725 58.0862C185.973 57.9701 186.222 57.854 186.471 57.7379C186.736 57.6384 186.985 57.5306 187.217 57.4145C187.466 57.2985 187.665 57.1326 187.814 56.917C187.996 56.8839 188.195 56.8424 188.411 56.7927C188.627 56.7429 188.784 56.6268 188.884 56.4444H188.983C189.033 56.4444 189.083 56.4527 189.132 56.4693C189.182 56.5025 189.215 56.5522 189.232 56.6185C189.348 56.5854 189.414 56.5108 189.431 56.3947C189.464 56.2786 189.522 56.1791 189.605 56.0962C190.086 55.9138 190.575 55.7231 191.073 55.5241C191.57 55.3251 192.059 55.1012 192.54 54.8524C192.772 54.8524 193.029 54.8193 193.311 54.7529C193.61 54.6866 193.834 54.5374 193.983 54.3052C194.016 54.3218 194.058 54.3301 194.107 54.3301C194.29 54.3301 194.464 54.3052 194.63 54.2555C194.812 54.1891 194.995 54.1228 195.177 54.0565C195.359 53.9735 195.542 53.8989 195.724 53.8326C195.907 53.7662 196.097 53.7248 196.296 53.7082H196.346C196.379 53.7082 196.388 53.6667 196.371 53.5838C196.371 53.4843 196.371 53.4263 196.371 53.4097C196.371 53.3434 196.404 53.3185 196.47 53.3351C196.52 53.3185 196.603 53.3102 196.719 53.3102C196.902 53.3102 197.067 53.3517 197.217 53.4346C197.383 53.5009 197.54 53.5838 197.689 53.6833C197.839 53.7828 197.988 53.8906 198.137 54.0067C198.286 54.1062 198.444 54.1808 198.61 54.2306C198.577 54.3632 198.56 54.471 198.56 54.5539C198.56 54.6369 198.568 54.7198 198.585 54.8027C198.618 54.869 198.651 54.9437 198.684 55.0266Z" fill="white"/>
</svg>
