<svg width="202" height="76" viewBox="0 0 202 76" fill="none" xmlns="http://www.w3.org/2000/svg">
<path d="M8.24057 25H3.91038V6.44387H8.24057V25ZM11.6872 25V11.7929H14.1325C14.3787 11.7929 14.5825 11.8481 14.7438 11.9585C14.9136 12.0689 15.0325 12.2344 15.1004 12.4552L15.3297 13.2193C15.5844 12.9816 15.8476 12.7608 16.1193 12.5571C16.391 12.3533 16.6797 12.1835 16.9853 12.0476C17.2995 11.9033 17.6348 11.7929 17.9915 11.7165C18.3565 11.6316 18.7514 11.5891 19.1759 11.5891C19.8976 11.5891 20.5344 11.7165 21.0863 11.9712C21.6466 12.2175 22.1179 12.5656 22.4999 13.0156C22.882 13.4571 23.1707 13.9877 23.366 14.6075C23.5613 15.2189 23.6589 15.8854 23.6589 16.6071V25H19.7108V16.6071C19.7108 15.9618 19.5622 15.4608 19.265 15.1042C18.9679 14.7392 18.5306 14.5566 17.9532 14.5566C17.5202 14.5566 17.1127 14.65 16.7306 14.8368C16.3485 15.0236 15.9834 15.2741 15.6353 15.5882V25H11.6872ZM26.4628 25V11.7929H28.9081C29.1543 11.7929 29.3581 11.8481 29.5194 11.9585C29.6892 12.0689 29.8081 12.2344 29.876 12.4552L30.1052 13.2193C30.36 12.9816 30.6232 12.7608 30.8949 12.5571C31.1666 12.3533 31.4552 12.1835 31.7609 12.0476C32.075 11.9033 32.4104 11.7929 32.767 11.7165C33.1321 11.6316 33.5269 11.5891 33.9515 11.5891C34.6732 11.5891 35.31 11.7165 35.8618 11.9712C36.4222 12.2175 36.8934 12.5656 37.2755 13.0156C37.6576 13.4571 37.9463 13.9877 38.1416 14.6075C38.3368 15.2189 38.4345 15.8854 38.4345 16.6071V25H34.4864V16.6071C34.4864 15.9618 34.3378 15.4608 34.0406 15.1042C33.7434 14.7392 33.3062 14.5566 32.7288 14.5566C32.2958 14.5566 31.8883 14.65 31.5062 14.8368C31.1241 15.0236 30.759 15.2741 30.4109 15.5882V25H26.4628ZM47.1223 11.5891C48.1242 11.5891 49.0369 11.7462 49.8605 12.0604C50.6841 12.3745 51.3888 12.8245 51.9747 13.4104C52.569 13.9962 53.0275 14.7094 53.3501 15.55C53.6813 16.3821 53.8468 17.3203 53.8468 18.3646C53.8468 19.4175 53.6813 20.3684 53.3501 21.2175C53.0275 22.058 52.569 22.7755 51.9747 23.3698C51.3888 23.9557 50.6841 24.4099 49.8605 24.7325C49.0369 25.0467 48.1242 25.2038 47.1223 25.2038C46.1119 25.2038 45.1907 25.0467 44.3586 24.7325C43.5351 24.4099 42.8218 23.9557 42.219 23.3698C41.6247 22.7755 41.1619 22.058 40.8308 21.2175C40.5082 20.3684 40.3468 19.4175 40.3468 18.3646C40.3468 17.3203 40.5082 16.3821 40.8308 15.55C41.1619 14.7094 41.6247 13.9962 42.219 13.4104C42.8218 12.8245 43.5351 12.3745 44.3586 12.0604C45.1907 11.7462 46.1119 11.5891 47.1223 11.5891ZM47.1223 22.2745C48.0308 22.2745 48.6973 21.9561 49.1218 21.3193C49.5549 20.6741 49.7714 19.6976 49.7714 18.3901C49.7714 17.0825 49.5549 16.1104 49.1218 15.4736C48.6973 14.8368 48.0308 14.5184 47.1223 14.5184C46.1884 14.5184 45.5049 14.8368 45.0718 15.4736C44.6388 16.1104 44.4223 17.0825 44.4223 18.3901C44.4223 19.6976 44.6388 20.6741 45.0718 21.3193C45.5049 21.9561 46.1884 22.2745 47.1223 22.2745ZM62.8268 25H59.2353L54.1155 11.7929H57.4013C57.6815 11.7929 57.915 11.8608 58.1018 11.9967C58.2971 12.1241 58.4287 12.2854 58.4966 12.4807L60.3306 18.4028C60.4749 18.8868 60.6108 19.358 60.7381 19.8165C60.874 20.275 60.9886 20.7335 61.082 21.192C61.1754 20.7335 61.29 20.275 61.4259 19.8165C61.5617 19.358 61.7061 18.8868 61.8589 18.4028L63.7693 12.4807C63.8372 12.2854 63.9646 12.1241 64.1513 11.9967C64.3381 11.8608 64.5589 11.7929 64.8136 11.7929H67.9466L62.8268 25ZM78.7144 25C78.3408 25 78.0564 24.9491 77.8611 24.8472C77.6743 24.7453 77.5172 24.533 77.3899 24.2104L77.1097 23.4844C76.7785 23.7646 76.4601 24.0108 76.1545 24.2231C75.8488 24.4354 75.5304 24.6179 75.1993 24.7708C74.8766 24.9151 74.5285 25.0212 74.155 25.0892C73.7899 25.1656 73.3823 25.2038 72.9323 25.2038C72.3295 25.2038 71.7818 25.1274 71.2894 24.9745C70.7969 24.8132 70.3766 24.5797 70.0285 24.2741C69.6889 23.9684 69.4257 23.5906 69.2389 23.1406C69.0521 22.6821 68.9587 22.1557 68.9587 21.5613C68.9587 21.0943 69.0776 20.6146 69.3153 20.1222C69.5531 19.6297 69.9649 19.184 70.5507 18.7849C71.1366 18.3774 71.9262 18.0377 72.9196 17.766C73.913 17.4943 75.1653 17.3415 76.6766 17.3075V16.7472C76.6766 15.9745 76.5153 15.4184 76.1927 15.0788C75.8785 14.7307 75.4285 14.5566 74.8427 14.5566C74.3757 14.5566 73.9936 14.6075 73.6965 14.7094C73.3993 14.8113 73.1318 14.9259 72.8941 15.0533C72.6649 15.1807 72.4399 15.2953 72.2191 15.3972C71.9983 15.4991 71.7351 15.55 71.4295 15.55C71.1578 15.55 70.9243 15.4863 70.729 15.359C70.5422 15.2231 70.3936 15.0575 70.2833 14.8623L69.57 13.6269C70.3682 12.9222 71.2512 12.4 72.2191 12.0604C73.1955 11.7123 74.2399 11.5382 75.3521 11.5382C76.1502 11.5382 76.8677 11.6698 77.5045 11.933C78.1498 12.1877 78.6932 12.5486 79.1347 13.0156C79.5847 13.4741 79.9285 14.0217 80.1663 14.6585C80.404 15.2953 80.5229 15.9915 80.5229 16.7472V25H78.7144ZM74.1804 22.5929C74.6899 22.5929 75.1356 22.5038 75.5177 22.3255C75.8998 22.1472 76.2861 21.8585 76.6766 21.4594V19.6255C75.887 19.6594 75.2375 19.7274 74.7281 19.8292C74.2186 19.9311 73.8153 20.0585 73.5182 20.2113C73.221 20.3642 73.013 20.5382 72.8941 20.7335C72.7837 20.9288 72.7285 21.141 72.7285 21.3703C72.7285 21.8203 72.8516 22.1387 73.0979 22.3255C73.3441 22.5038 73.705 22.5929 74.1804 22.5929ZM87.9622 25.2038C87.3339 25.2038 86.7778 25.1146 86.2938 24.9363C85.8183 24.7495 85.415 24.4906 85.0839 24.1594C84.7613 23.8198 84.515 23.4123 84.3452 22.9368C84.1754 22.4613 84.0905 21.9307 84.0905 21.3448V14.5184H82.9698C82.766 14.5184 82.5919 14.4547 82.4476 14.3274C82.3032 14.1915 82.2311 13.9962 82.2311 13.7415V12.2005L84.3325 11.7929L85.1094 8.57075C85.2113 8.16321 85.4999 7.95943 85.9754 7.95943H88.0386V11.8184H91.2481V14.5184H88.0386V21.0774C88.0386 21.383 88.1108 21.6377 88.2551 21.8415C88.408 22.0368 88.6245 22.1344 88.9047 22.1344C89.049 22.1344 89.1679 22.1217 89.2613 22.0962C89.3632 22.0623 89.4481 22.0283 89.516 21.9943C89.5924 21.9519 89.6603 21.9179 89.7198 21.8925C89.7877 21.8585 89.8641 21.8415 89.949 21.8415C90.0679 21.8415 90.1613 21.8712 90.2292 21.9307C90.3056 21.9816 90.382 22.0665 90.4584 22.1854L91.6556 24.0575C91.1462 24.4396 90.5731 24.7283 89.9363 24.9236C89.2995 25.1104 88.6415 25.2038 87.9622 25.2038ZM99.1797 11.5891C100.054 11.5891 100.852 11.725 101.574 11.9967C102.304 12.2684 102.928 12.6632 103.446 13.1811C103.973 13.6991 104.38 14.3358 104.669 15.0915C104.966 15.8387 105.115 16.6877 105.115 17.6387C105.115 17.9358 105.102 18.1778 105.076 18.3646C105.051 18.5514 105.004 18.7 104.936 18.8104C104.868 18.9208 104.775 18.9972 104.656 19.0396C104.546 19.0821 104.401 19.1033 104.223 19.1033H96.6071C96.7344 20.2071 97.0698 21.0094 97.6132 21.5104C98.1566 22.0028 98.8571 22.2491 99.7146 22.2491C100.173 22.2491 100.568 22.1939 100.899 22.0835C101.23 21.9731 101.523 21.85 101.778 21.7142C102.041 21.5783 102.279 21.4552 102.491 21.3448C102.712 21.2344 102.941 21.1792 103.179 21.1792C103.493 21.1792 103.731 21.2939 103.892 21.5231L105.038 22.9368C104.631 23.4038 104.189 23.7858 103.714 24.083C103.247 24.3717 102.763 24.6009 102.262 24.7708C101.769 24.9321 101.273 25.0425 100.772 25.1019C100.279 25.1698 99.808 25.2038 99.358 25.2038C98.4325 25.2038 97.5623 25.0552 96.7472 24.758C95.9406 24.4524 95.2316 24.0024 94.6203 23.408C94.0174 22.8137 93.5377 22.075 93.1811 21.192C92.833 20.309 92.659 19.2816 92.659 18.1099C92.659 17.2269 92.8075 16.3906 93.1047 15.6009C93.4104 14.8113 93.8434 14.1193 94.4038 13.525C94.9726 12.9307 95.6561 12.4594 96.4542 12.1113C97.2608 11.7632 98.1693 11.5891 99.1797 11.5891ZM99.2561 14.3146C98.5005 14.3146 97.9104 14.5311 97.4858 14.9642C97.0613 15.3887 96.7811 16.0042 96.6453 16.8108H101.574C101.574 16.4967 101.532 16.191 101.447 15.8939C101.37 15.5967 101.239 15.3335 101.052 15.1042C100.874 14.8665 100.636 14.6755 100.339 14.5311C100.042 14.3868 99.6807 14.3146 99.2561 14.3146ZM118.282 17.7915H120.192V20.0075C120.192 20.2028 120.125 20.3726 119.989 20.517C119.861 20.6613 119.675 20.7335 119.428 20.7335H118.282V25H114.843V20.7335H107.38C107.134 20.7335 106.909 20.6571 106.705 20.5042C106.51 20.3514 106.387 20.1604 106.336 19.9311L105.928 17.9825L114.512 6.44387H118.282V17.7915ZM114.843 12.9519C114.843 12.6547 114.852 12.3363 114.869 11.9967C114.894 11.6486 114.928 11.292 114.971 10.9269L110.067 17.7915H114.843V12.9519ZM120.755 6.44387H124.372C124.745 6.44387 125.055 6.52877 125.302 6.69858C125.556 6.8684 125.722 7.0934 125.798 7.37358L128.345 17.0528C128.43 17.367 128.515 17.7024 128.6 18.059C128.685 18.4156 128.749 18.7892 128.791 19.1797C128.876 18.7807 128.969 18.4071 129.071 18.059C129.173 17.7024 129.271 17.367 129.364 17.0528L132.37 7.37358C132.446 7.13585 132.608 6.92358 132.854 6.73679C133.109 6.54151 133.414 6.44387 133.771 6.44387H135.044C135.418 6.44387 135.724 6.52877 135.961 6.69858C136.208 6.8599 136.377 7.0849 136.471 7.37358L139.451 17.0528C139.544 17.35 139.642 17.6684 139.744 18.008C139.846 18.3392 139.935 18.6958 140.011 19.0778C140.079 18.7042 140.147 18.3476 140.215 18.008C140.292 17.6684 140.368 17.35 140.444 17.0528L142.992 7.37358C143.06 7.12736 143.221 6.91085 143.476 6.72406C143.73 6.53726 144.036 6.44387 144.393 6.44387H147.78L142.049 25H138.152L134.662 13.4995C134.603 13.3212 134.539 13.1259 134.471 12.9137C134.412 12.7014 134.352 12.4764 134.293 12.2387C134.234 12.4764 134.17 12.7014 134.102 12.9137C134.043 13.1259 133.983 13.3212 133.924 13.4995L130.383 25H126.486L120.755 6.44387ZM164.922 25H161.585C161.212 25 160.902 24.9151 160.656 24.7453C160.418 24.567 160.252 24.342 160.159 24.0703L159.064 20.8354H152.008L150.913 24.0703C150.828 24.308 150.662 24.5245 150.416 24.7198C150.17 24.9066 149.868 25 149.512 25H146.15L153.333 6.44387H157.739L164.922 25ZM153.001 17.9061H158.07L156.364 12.8245C156.253 12.5019 156.122 12.1241 155.969 11.691C155.825 11.2495 155.68 10.7741 155.536 10.2646C155.4 10.7825 155.26 11.2623 155.116 11.7038C154.971 12.1453 154.835 12.5274 154.708 12.85L153.001 17.9061ZM176.774 10.2137C176.647 10.4175 176.511 10.5703 176.367 10.6722C176.231 10.7741 176.053 10.825 175.832 10.825C175.637 10.825 175.424 10.7656 175.195 10.6467C174.974 10.5193 174.72 10.3792 174.431 10.2264C174.151 10.0736 173.828 9.93773 173.463 9.81887C173.098 9.69151 172.682 9.62783 172.215 9.62783C171.408 9.62783 170.805 9.80189 170.406 10.15C170.016 10.4896 169.82 10.9524 169.82 11.5382C169.82 11.9118 169.939 12.2217 170.177 12.4679C170.415 12.7142 170.725 12.9264 171.107 13.1047C171.497 13.283 171.939 13.4486 172.431 13.6014C172.932 13.7458 173.442 13.9113 173.96 14.0981C174.478 14.2764 174.983 14.4887 175.475 14.7349C175.976 14.9811 176.418 15.2953 176.8 15.6774C177.19 16.0594 177.504 16.5264 177.742 17.0783C177.98 17.6217 178.099 18.2797 178.099 19.0524C178.099 19.9099 177.95 20.7123 177.653 21.4594C177.356 22.2066 176.923 22.8604 176.354 23.4208C175.794 23.9726 175.097 24.4099 174.265 24.7325C173.442 25.0467 172.504 25.2038 171.451 25.2038C170.873 25.2038 170.283 25.1443 169.68 25.0255C169.086 24.9066 168.509 24.741 167.948 24.5288C167.388 24.308 166.862 24.0491 166.369 23.7519C165.877 23.4547 165.448 23.1236 165.083 22.7585L166.356 20.7462C166.45 20.5934 166.581 20.4703 166.751 20.3769C166.921 20.2835 167.104 20.2368 167.299 20.2368C167.554 20.2368 167.808 20.3175 168.063 20.4788C168.326 20.6401 168.619 20.8184 168.942 21.0137C169.273 21.209 169.651 21.3873 170.075 21.5486C170.5 21.7099 171.001 21.7906 171.578 21.7906C172.359 21.7906 172.966 21.6208 173.399 21.2811C173.832 20.933 174.049 20.3854 174.049 19.6382C174.049 19.2052 173.93 18.8528 173.692 18.5811C173.454 18.3094 173.14 18.0844 172.75 17.9061C172.368 17.7278 171.93 17.5708 171.438 17.4349C170.945 17.2991 170.44 17.1505 169.922 16.9892C169.404 16.8193 168.899 16.6156 168.407 16.3778C167.914 16.1316 167.473 15.8132 167.082 15.4226C166.7 15.0236 166.39 14.5311 166.153 13.9453C165.915 13.3509 165.796 12.6208 165.796 11.7547C165.796 11.0585 165.936 10.3792 166.216 9.71698C166.496 9.05472 166.908 8.46462 167.452 7.9467C167.995 7.42877 168.662 7.01698 169.451 6.71132C170.241 6.39717 171.145 6.24009 172.164 6.24009C172.733 6.24009 173.285 6.28679 173.82 6.38019C174.363 6.46509 174.877 6.5967 175.361 6.775C175.845 6.94481 176.295 7.15283 176.711 7.39906C177.135 7.63679 177.513 7.90849 177.844 8.21415L176.774 10.2137ZM196.438 25H192.108V17.1547H184.568V25H180.238V6.44387H184.568V14.2H192.108V6.44387H196.438V25Z" fill="#049C9D"/>
<path d="M37.3899 61.8052C37.3899 61.9904 37.3478 62.167 37.2636 62.3353C36.9271 62.5204 36.5737 62.6467 36.2035 62.714C35.8501 62.7981 35.4967 62.8402 35.1433 62.8402C34.975 62.8402 34.7899 62.8318 34.588 62.8149C34.4028 62.8149 34.2346 62.7981 34.0831 62.7645C34.0326 62.7476 33.9737 62.714 33.9064 62.6635C33.8391 62.613 33.7718 62.5878 33.7045 62.5878C33.5362 62.5878 33.3763 62.613 33.2249 62.6635C33.0734 62.7308 32.9135 62.7645 32.7453 62.7645C32.6611 62.7645 32.577 62.7392 32.4928 62.6887C32.4255 62.6382 32.3498 62.6046 32.2657 62.5878C32.1479 62.5541 32.0301 62.5457 31.9123 62.5625C31.7945 62.5793 31.6682 62.5878 31.5336 62.5878C31.3485 62.5878 31.1802 62.5625 31.0288 62.512C30.8941 62.4615 30.7679 62.369 30.6501 62.2344C30.2294 62.1839 29.8171 62.0997 29.4133 61.9819C29.0094 61.881 28.6055 61.7632 28.2016 61.6285C27.7977 61.5107 27.3939 61.3929 26.99 61.2751C26.5861 61.1742 26.1738 61.1069 25.7531 61.0732C25.6521 60.9554 25.5343 60.8629 25.3997 60.7955C25.2651 60.7451 25.1641 60.6525 25.0968 60.5179C25.0127 60.5179 24.9538 60.5263 24.9201 60.5431C24.8865 60.5768 24.8276 60.5936 24.7434 60.5936C24.4573 60.358 24.146 60.1561 23.8094 59.9878C23.4897 59.8195 23.1531 59.6596 22.7997 59.5082C22.4632 59.3567 22.1266 59.1969 21.79 59.0286C21.4703 58.8771 21.1674 58.6752 20.8813 58.4228H20.7551C20.6205 58.4396 20.5027 58.4059 20.4017 58.3218C20.3176 58.2545 20.2082 58.2208 20.0736 58.2208C19.9894 58.2208 19.9221 58.2292 19.8716 58.2461C19.8211 58.1114 19.7454 58.0021 19.6444 57.9179C19.5435 57.8338 19.4341 57.7496 19.3163 57.6655C19.2153 57.5982 19.1144 57.5224 19.0134 57.4383C18.9124 57.371 18.8367 57.2784 18.7862 57.1606C18.3655 57.0092 17.9532 56.8241 17.5493 56.6053C17.1623 56.4034 16.8173 56.1341 16.5144 55.7975C16.1778 55.7639 15.9002 55.6629 15.6814 55.4946C15.4626 55.3095 15.2607 55.0823 15.0756 54.8131C14.6717 54.6785 14.3015 54.5018 13.9649 54.283C13.6283 54.0642 13.2918 53.8371 12.9552 53.6015C12.6355 53.3659 12.2905 53.1555 11.9203 52.9704C11.5669 52.7685 11.163 52.6254 10.7086 52.5413C10.6918 52.4235 10.6413 52.3393 10.5572 52.2889C10.473 52.2215 10.3721 52.1711 10.2543 52.1374C10.1533 52.0869 10.0523 52.0448 9.95136 52.0112C9.85039 51.9775 9.77466 51.9102 9.72418 51.8092C9.67369 51.8092 9.62321 51.8092 9.57272 51.8092C9.52224 51.7924 9.47175 51.784 9.42127 51.784C9.37078 51.784 9.31188 51.7924 9.24457 51.8092C9.19409 51.8092 9.1436 51.8092 9.09312 51.8092L9.11836 51.7335C9.11836 51.6662 9.09312 51.6241 9.04263 51.6073C9.00898 51.5905 8.95849 51.5736 8.89118 51.5568C8.82386 51.54 8.76497 51.5148 8.71448 51.4811C8.664 51.4474 8.63875 51.3717 8.63875 51.2539H8.56303C8.37792 51.2539 8.20963 51.2203 8.05818 51.1529C7.90672 51.0856 7.73844 51.0351 7.55333 51.0015C7.51967 51.1866 7.50285 51.3633 7.50285 51.5316V51.9859C7.50285 52.7432 7.58699 53.5426 7.75527 54.384C7.92355 55.2086 8.18439 55.949 8.53778 56.6053C8.89118 56.7399 9.19409 56.9166 9.44651 57.1354C9.69894 57.3542 9.94295 57.6066 10.1785 57.8927C10.1954 58.347 10.0271 58.7257 9.67369 59.0286C9.33713 59.3483 8.94166 59.5082 8.4873 59.5082C8.23488 59.5082 7.99928 59.4409 7.78051 59.3062C7.57857 59.1884 7.41029 59.0117 7.27566 58.7762C7.17469 58.7762 7.08214 58.793 6.998 58.8266C6.91386 58.8771 6.81289 58.9024 6.69509 58.9024C6.6446 58.9024 6.59412 58.8939 6.54363 58.8771C6.37535 58.591 6.20707 58.3386 6.03879 58.1198C5.88733 57.9011 5.78636 57.6066 5.73588 57.2364C5.55077 57.1522 5.43297 57.0008 5.38248 56.782C5.34883 56.5632 5.25627 56.3865 5.10482 56.2519C5.0375 55.4946 4.94495 54.7374 4.82715 53.9801C4.72618 53.2228 4.6757 52.4655 4.6757 51.7083C4.6757 51.54 4.68411 51.3717 4.70094 51.2034C4.71777 51.0183 4.73459 50.8332 4.75142 50.6481C4.71777 50.564 4.66728 50.4882 4.59997 50.4209C4.54948 50.3368 4.50741 50.2526 4.47376 50.1685C4.13719 50.2526 3.7838 50.3368 3.41357 50.4209C3.06018 50.4882 2.69837 50.5219 2.32815 50.5219C2.09256 50.5219 1.80647 50.4882 1.46991 50.4209C1.13334 50.3368 0.872506 50.2274 0.687395 50.0928C0.552768 50.0086 0.460213 49.8572 0.409728 49.6384C0.342415 49.4028 0.308758 49.2009 0.308758 49.0326C0.308758 48.7465 0.359243 48.4604 0.460213 48.1743C0.561183 47.8714 0.695809 47.6106 0.864092 47.3918C1.68868 47.0553 2.45436 46.643 3.16115 46.1549C3.88477 45.6669 4.59155 45.1368 5.28151 44.5647C5.29834 44.3964 5.32358 44.2281 5.35724 44.0598C5.40773 43.8915 5.43297 43.7148 5.43297 43.5297C5.43297 43.3278 5.38248 43.1343 5.28151 42.9492C5.38248 42.8482 5.43297 42.722 5.43297 42.5705C5.43297 42.4022 5.47504 42.2508 5.55918 42.1162V41.9647C5.55918 41.8974 5.55077 41.8301 5.53394 41.7628C5.53394 41.6955 5.5087 41.6281 5.45821 41.5608C5.57601 40.9045 5.66856 40.2566 5.73588 39.6172C5.80319 38.9609 5.83685 38.2877 5.83685 37.5978C5.83685 37.5473 5.86209 37.4127 5.91257 37.1939C5.97989 36.9583 6.02196 36.7984 6.03879 36.7143C6.1061 36.3272 6.14817 35.9486 6.165 35.5784C6.19865 35.1913 6.24072 34.8043 6.29121 34.4172C6.30804 34.2826 6.34169 34.1059 6.39218 33.8871C6.44266 33.6684 6.46791 33.5169 6.46791 33.4328C6.46791 33.315 6.44266 33.2392 6.39218 33.2056C6.35852 33.1551 6.32487 33.0794 6.29121 32.9784C6.39218 32.5914 6.44266 32.2043 6.44266 31.8173C6.45949 31.4134 6.49315 31.0179 6.54363 30.6309C6.82971 30.5131 7.0569 30.3953 7.22518 30.2775C7.39346 30.1597 7.63747 30.1008 7.95721 30.1008H8.00769C8.04135 30.3027 8.11708 30.4962 8.23488 30.6813C8.35267 30.8496 8.47047 31.0263 8.58827 31.2114C8.7229 31.3797 8.84069 31.548 8.94166 31.7163C9.04263 31.8677 9.09312 32.0192 9.09312 32.1706C9.09312 32.4567 9.06787 32.7681 9.01739 33.1046C8.96691 33.4412 8.92483 33.7525 8.89118 34.0386C8.80704 34.7959 8.73131 35.5447 8.664 36.2852C8.59668 37.0088 8.49571 37.7492 8.36109 38.5065C8.41157 38.7421 8.43681 38.9609 8.43681 39.1628C8.43681 39.4657 8.41157 39.7686 8.36109 40.0715C8.3106 40.3744 8.28536 40.6858 8.28536 41.0055C8.28536 41.1569 8.29377 41.3168 8.3106 41.4851C8.34426 41.6534 8.39474 41.8048 8.46206 41.9395C9.03422 41.788 9.54748 41.4767 10.0018 41.0055C10.0692 40.9382 10.1365 40.854 10.2038 40.7531C10.2879 40.6353 10.3721 40.5427 10.4562 40.4754C10.6245 40.3408 10.8012 40.223 10.9863 40.122C11.1882 40.0042 11.3818 39.8864 11.5669 39.7686C12.0044 39.4825 12.4251 39.188 12.829 38.8851C13.2497 38.5654 13.6704 38.2541 14.0911 37.9512C15.3364 37.0424 16.5396 36.1001 17.7008 35.124C18.8788 34.1311 20.0231 33.0878 21.1337 31.994C21.1842 31.7079 21.2852 31.4807 21.4367 31.3124C21.5881 31.1441 21.7227 30.9422 21.8405 30.7066C22.1603 30.5888 22.4379 30.4121 22.6735 30.1765C22.7745 30.2102 22.8755 30.2354 22.9764 30.2522C23.0942 30.2522 23.2036 30.2522 23.3046 30.2522C23.4224 30.2522 23.5318 30.2606 23.6327 30.2775C23.7505 30.2775 23.8515 30.3027 23.9357 30.3532C23.9525 30.6056 23.9777 30.8328 24.0114 31.0347C24.045 31.2367 24.146 31.4302 24.3143 31.6153C24.3143 31.649 24.3143 31.6826 24.3143 31.7163C24.3311 31.7499 24.3395 31.7836 24.3395 31.8173C24.3395 32.0024 24.289 32.1538 24.1881 32.2716C24.0871 32.3894 24.0282 32.5325 24.0114 32.7007L22.6988 34.0133C22.2612 34.4509 21.8574 34.9221 21.4871 35.4269C21.3525 35.4437 21.2347 35.4858 21.1337 35.5531C21.0328 35.6204 20.9318 35.6962 20.8308 35.7803C20.7467 35.8476 20.6541 35.9149 20.5532 35.9823C20.4522 36.0496 20.3428 36.1001 20.225 36.1337C19.9221 36.5376 19.5771 36.9078 19.1901 37.2444C18.803 37.5641 18.4076 37.8754 18.0037 38.1783C17.5998 38.4813 17.1959 38.7926 16.7921 39.1123C16.405 39.4152 16.0432 39.7518 15.7066 40.122C15.3532 40.2903 15.0083 40.4922 14.6717 40.7278C14.352 40.9466 14.0911 41.2243 13.8892 41.5608H13.763C13.6788 41.5608 13.6115 41.5861 13.561 41.6366C13.5105 41.6702 13.4432 41.687 13.3591 41.687C12.4504 42.478 11.508 43.2268 10.5319 43.9336C9.55589 44.6236 8.62193 45.3808 7.73003 46.2054V46.8365C8.01611 47.0048 8.32743 47.1646 8.664 47.3161C9.00056 47.4507 9.32871 47.6022 9.64845 47.7705C9.98502 47.9387 10.2963 48.1239 10.5824 48.3258C10.8853 48.5109 11.1462 48.7381 11.3649 49.0073C11.3986 48.9905 11.4407 48.9821 11.4911 48.9821C11.6426 48.9821 11.7604 49.0326 11.8445 49.1335C11.9287 49.2177 12.0717 49.2429 12.2737 49.2093C12.341 49.4785 12.4924 49.6721 12.728 49.7899C12.9636 49.9077 13.1992 50.0086 13.4348 50.0928C13.6368 50.2947 13.8219 50.4882 13.9901 50.6733C14.1584 50.8416 14.4024 50.951 14.7222 51.0015C14.7558 51.0688 14.7811 51.1445 14.7979 51.2287C14.8147 51.3128 14.8484 51.3885 14.8989 51.4559C15.2186 51.5568 15.5215 51.6999 15.8076 51.885C16.1105 52.0701 16.405 52.2636 16.6911 52.4655C16.9772 52.6507 17.2632 52.8358 17.5493 53.0209C17.8522 53.1892 18.172 53.3238 18.5085 53.4248C18.559 53.593 18.6516 53.7108 18.7862 53.7782C18.9377 53.8455 19.0555 53.9464 19.1396 54.0811H19.594C19.6444 54.1652 19.7118 54.2493 19.7959 54.3335C19.88 54.4008 19.9389 54.5018 19.9726 54.6364C20.1072 54.6701 20.2587 54.7205 20.427 54.7878C20.5952 54.8383 20.7467 54.9056 20.8813 54.9898C20.9318 55.0403 20.9655 55.0992 20.9823 55.1665C21.0159 55.2338 21.0664 55.2927 21.1337 55.3432C21.2347 55.4273 21.3862 55.4946 21.5881 55.5451C21.8069 55.5788 21.992 55.6377 22.1434 55.7218C22.4464 55.8901 22.7408 56.0752 23.0269 56.2772C23.313 56.4959 23.6159 56.6979 23.9357 56.883L24.9201 57.4131C25.0884 57.4972 25.2398 57.5898 25.3745 57.6907C25.5259 57.7917 25.6774 57.8843 25.8288 57.9684C26.1317 58.103 26.4515 58.1872 26.788 58.2208C27.1414 58.2713 27.4612 58.3639 27.7473 58.4985C27.8314 58.549 27.8903 58.6079 27.924 58.6752C27.9576 58.7593 28.0165 58.8266 28.1007 58.8771C28.2353 58.9613 28.4456 59.0202 28.7317 59.0538C29.0178 59.0875 29.2534 59.1464 29.4385 59.2305C29.6741 59.3315 29.9013 59.424 30.12 59.5082C30.3556 59.6092 30.5912 59.7269 30.8268 59.8616C31.3317 59.8952 31.8281 59.9541 32.3161 60.0383C32.821 60.1224 33.3174 60.2066 33.8054 60.2907C34.2935 60.3748 34.7815 60.4506 35.2695 60.5179C35.7743 60.5852 36.2792 60.6104 36.784 60.5936C36.784 60.6273 36.8009 60.6441 36.8345 60.6441C36.885 60.6609 36.9271 60.6693 36.9607 60.6693C37.0785 60.8544 37.1795 61.0396 37.2636 61.2247C37.3478 61.4098 37.3899 61.6033 37.3899 61.8052ZM27.5201 52.6927C27.4359 52.8274 27.335 52.9536 27.2172 53.0714C27.0994 53.1723 26.99 53.2817 26.889 53.3995C26.7712 53.45 26.6366 53.4752 26.4851 53.4752C26.3505 53.4752 26.2159 53.4752 26.0813 53.4752C25.9635 53.4584 25.8457 53.4584 25.7279 53.4752C25.6269 53.4752 25.5428 53.5089 25.4754 53.5762C25.3408 53.5426 25.2398 53.4837 25.1725 53.3995C25.1052 53.2985 24.9874 53.2396 24.8191 53.2228C24.7518 53.206 24.6845 53.206 24.6172 53.2228C24.3648 52.9367 24.1292 52.6338 23.9104 52.3141C23.7085 51.9944 23.5149 51.6914 23.3298 51.4054C23.313 50.7827 23.2625 50.1517 23.1784 49.5122C23.1616 49.3607 23.1363 49.2093 23.1027 49.0578C23.069 48.9064 23.0438 48.7633 23.0269 48.6287C23.0269 48.4604 23.0353 48.3006 23.0522 48.1491C23.0858 47.9808 23.1111 47.8294 23.1279 47.6947C23.1952 47.2067 23.2709 46.7271 23.3551 46.2559C23.4392 45.7847 23.5149 45.3051 23.5823 44.8171C23.6496 44.3796 23.6832 43.9252 23.6832 43.454C23.6832 42.966 23.6075 42.5116 23.456 42.0909L23.4308 41.9647C23.4645 41.8301 23.4981 41.7207 23.5318 41.6366C23.5823 41.5356 23.6159 41.4262 23.6327 41.3084C23.6664 41.1233 23.6243 40.9887 23.5065 40.9045C23.557 40.7699 23.6412 40.6858 23.759 40.6521C23.8768 40.6016 23.9441 40.5006 23.9609 40.3492C23.9777 40.2819 23.9777 40.2146 23.9609 40.1473C24.0955 40.0968 24.2301 40.0547 24.3648 40.021C24.5162 39.9706 24.6593 39.9621 24.7939 39.9958C25.0127 40.0295 25.2062 40.1052 25.3745 40.223C25.5428 40.3239 25.7026 40.4417 25.8541 40.5764C26.1233 41.3841 26.2327 42.2424 26.1822 43.1511C26.1317 44.043 26.0476 44.9433 25.9298 45.852C25.812 46.7608 25.7363 47.6527 25.7026 48.5277C25.669 49.386 25.8036 50.1853 26.1065 50.9258L26.157 50.951C26.2411 50.9678 26.3084 50.9426 26.3589 50.8753C26.4094 50.7911 26.4767 50.7575 26.5609 50.7743C26.6282 50.808 26.6702 50.8248 26.6871 50.8248C26.7544 51.1614 26.8638 51.4811 27.0152 51.784C27.1667 52.0869 27.335 52.3898 27.5201 52.6927ZM43.2713 52.9704C43.2713 53.2565 43.1956 53.5089 43.0442 53.7277C42.9095 53.9296 42.859 54.182 42.8927 54.4849C42.6571 54.6196 42.4636 54.7963 42.3121 55.015C42.1607 55.2338 42.0176 55.461 41.883 55.6966C40.7723 56.4202 39.5775 57.0008 38.2986 57.4383C37.0365 57.8927 35.7323 58.1198 34.386 58.1198C34.3019 58.1198 34.2261 58.0778 34.1588 57.9936C34.0915 57.9263 34.0242 57.8506 33.9569 57.7665C33.8896 57.6823 33.8139 57.5982 33.7297 57.514C33.6624 57.4467 33.5783 57.4131 33.4773 57.4131C33.3595 57.4131 33.2669 57.4383 33.1996 57.4888C33.1996 57.4551 33.1996 57.4215 33.1996 57.3878C33.2164 57.371 33.2249 57.3457 33.2249 57.3121C33.2249 57.1102 33.1996 56.8998 33.1491 56.681C33.0986 56.4791 33.0734 56.2772 33.0734 56.0752C33.0734 55.8396 33.1155 55.6461 33.1996 55.4946H33.5025C33.6708 55.4946 33.8307 55.4862 33.9821 55.4694C34.1504 55.4357 34.3271 55.4189 34.5122 55.4189C34.6973 55.4189 34.8656 55.4694 35.0171 55.5704C35.9426 55.5367 36.8177 55.3684 37.6423 55.0655C38.4837 54.7458 39.3335 54.4345 40.1918 54.1315C40.3264 53.9464 40.4021 53.7445 40.4189 53.5257C40.4526 53.2901 40.5199 53.0714 40.6209 52.8694C40.1834 52.4992 39.7374 52.2131 39.283 52.0112C38.8455 51.7924 38.3322 51.7167 37.7433 51.784C37.3899 51.5652 37.0112 51.439 36.6073 51.4054C36.2203 51.3717 35.8248 51.3212 35.421 51.2539C35.32 51.2371 35.2106 51.2203 35.0928 51.2034C34.9918 51.1698 34.8824 51.1529 34.7646 51.1529C34.6805 51.1529 34.5964 51.1782 34.5122 51.2287C34.4449 51.2623 34.4281 51.3212 34.4617 51.4054C34.3776 51.2707 34.2598 51.195 34.1083 51.1782C33.9737 51.1445 33.8559 51.0772 33.755 50.9762C33.2164 50.9426 32.7453 50.85 32.3414 50.6986C31.9375 50.5303 31.4915 50.3452 31.0035 50.1432C30.8689 50.0928 30.7343 50.0591 30.5997 50.0423C30.4819 50.0086 30.3641 49.9581 30.2463 49.8908C29.9433 49.7394 29.6993 49.5374 29.5142 49.285C29.3291 49.0326 29.1861 48.7549 29.0851 48.452C28.9673 48.1323 28.8832 47.8041 28.8327 47.4676C28.7822 47.131 28.7317 46.8197 28.6812 46.5336C28.8327 46.2643 28.9757 45.9867 29.1103 45.7006C29.2281 45.4145 29.3291 45.1116 29.4133 44.7919C29.5142 44.7414 29.6152 44.6993 29.7162 44.6656C29.8171 44.632 29.9265 44.5899 30.0443 44.5394C30.0275 44.5058 30.0191 44.4637 30.0191 44.4132C30.0191 44.3291 30.0443 44.2449 30.0948 44.1608C30.1621 44.0767 30.1789 43.9925 30.1453 43.9084C30.5155 43.5718 30.8689 43.2268 31.2055 42.8734C31.5589 42.5032 31.8618 42.0993 32.1142 41.6618C32.3666 41.5777 32.5686 41.4514 32.72 41.2832C32.8715 41.1149 33.0229 40.9466 33.1744 40.7783C33.3258 40.5932 33.4941 40.4333 33.6792 40.2987C33.8643 40.1473 34.0999 40.0547 34.386 40.021C34.4533 39.9032 34.5459 39.8107 34.6637 39.7434C34.7815 39.6592 34.8993 39.5835 35.0171 39.5162C35.1349 39.4489 35.2443 39.3732 35.3452 39.289C35.4462 39.2049 35.5219 39.0871 35.5724 38.9356C35.8417 38.9356 36.0857 38.8851 36.3044 38.7842C36.54 38.6832 36.7672 38.5738 36.986 38.456C37.2047 38.3382 37.4235 38.2288 37.6423 38.1279C37.8779 38.0269 38.1303 37.9764 38.3996 37.9764C38.4669 37.9764 38.5342 37.9848 38.6015 38.0016C38.6688 38.0016 38.7445 38.0101 38.8287 38.0269C38.9465 38.1447 39.0222 38.2877 39.0559 38.456C39.1063 38.6075 39.14 38.7757 39.1568 38.9609C39.1737 39.146 39.1821 39.3311 39.1821 39.5162C39.1989 39.7013 39.2326 39.8696 39.283 40.021C39.1316 40.3071 38.9633 40.5932 38.7782 40.8793C38.6099 41.1654 38.3827 41.3841 38.0966 41.5356H38.0462C37.9284 41.5524 37.819 41.5272 37.718 41.4599C37.617 41.3925 37.4992 41.3589 37.3646 41.3589C37.2805 41.3589 37.2132 41.3841 37.1627 41.4346L37.0365 41.5608C37.0028 41.5945 36.9523 41.6281 36.885 41.6618C36.8345 41.6955 36.7588 41.6955 36.6578 41.6618C36.4222 41.7459 36.3297 41.889 36.3802 42.0909C36.0604 42.1246 35.7912 42.2255 35.5724 42.3938C35.3536 42.5453 35.1517 42.722 34.9666 42.9239C34.7815 43.109 34.5964 43.2857 34.4113 43.454C34.2261 43.6055 34.0074 43.6896 33.755 43.7064C33.4689 44.2113 33.1155 44.6572 32.6948 45.0443C32.2909 45.4313 31.9543 45.8689 31.6851 46.3569C31.7356 46.4915 31.7692 46.6346 31.786 46.786C31.8029 46.9375 31.8281 47.0973 31.8618 47.2656C32.0132 47.4676 32.1899 47.6442 32.3919 47.7957C32.6106 47.9472 32.821 48.0986 33.0229 48.2501H33.0986C33.4352 48.2501 33.7465 48.3174 34.0326 48.452C34.3187 48.5698 34.6216 48.6287 34.9413 48.6287C35.1096 48.6287 35.2527 48.595 35.3705 48.5277C35.808 48.6287 36.2371 48.7128 36.6578 48.7802C37.0954 48.8475 37.5329 48.898 37.9704 48.9316C38.1892 48.9653 38.408 48.9821 38.6267 48.9821C38.8623 48.9821 39.0811 49.0073 39.283 49.0578C39.4682 49.1083 39.6533 49.1756 39.8384 49.2598C40.0235 49.3271 40.2086 49.4028 40.3937 49.4869C40.7808 49.6552 41.1426 49.8403 41.4791 50.0423C41.8325 50.2442 42.1438 50.4882 42.4131 50.7743C42.6824 51.0436 42.8927 51.3633 43.0442 51.7335C43.1956 52.0869 43.2713 52.4992 43.2713 52.9704ZM60.4867 52.0617C60.4194 52.3141 60.31 52.5244 60.1585 52.6927C60.0071 52.861 59.8304 53.0125 59.6284 53.1471C59.4433 53.2817 59.2414 53.4079 59.0226 53.5257C58.8038 53.6267 58.5935 53.7445 58.3915 53.8791H58.0634C57.3566 53.8791 56.8097 53.7108 56.4226 53.3743C56.0524 53.0209 55.7663 52.5918 55.5644 52.0869C55.3625 51.5652 55.211 51.0099 55.11 50.4209C55.0259 49.8319 54.9165 49.2934 54.7819 48.8054C54.5799 48.9737 54.4117 49.1756 54.277 49.4112C54.1424 49.63 53.9994 49.8488 53.8479 50.0675C53.7133 50.2863 53.5534 50.4882 53.3683 50.6733C53.2 50.8584 52.9728 50.9847 52.6868 51.052C52.6363 51.1698 52.5774 51.2876 52.5101 51.4054C52.4596 51.5232 52.4259 51.6494 52.4091 51.784C52.0389 51.9859 51.7023 52.2215 51.3994 52.4908C51.0965 52.76 50.7936 53.0377 50.4907 53.3238C50.1878 53.6099 49.8764 53.8875 49.5567 54.1568C49.2538 54.4092 48.9088 54.6196 48.5218 54.7878C48.5049 54.771 48.4713 54.7626 48.4208 54.7626C48.2189 54.7626 48.0337 54.8131 47.8655 54.9141C47.6972 54.9982 47.5121 55.0403 47.3101 55.0403C47.1755 55.0403 47.0493 55.015 46.9315 54.9645C46.8305 54.9141 46.7211 54.8552 46.6033 54.7878C46.5024 54.7205 46.393 54.6701 46.2752 54.6364C46.1574 54.6027 46.0312 54.5943 45.8966 54.6112C45.7283 54.3082 45.5011 54.0306 45.215 53.7782C44.9458 53.5089 44.7775 53.206 44.7102 52.8694C44.6765 52.718 44.6513 52.5665 44.6344 52.4151C44.6344 52.2468 44.6176 52.0785 44.5839 51.9102C44.5335 51.6578 44.4661 51.4054 44.382 51.1529C44.2979 50.8837 44.2306 50.6144 44.1801 50.3452C44.2642 49.8908 44.3483 49.3944 44.4325 48.8559C44.4998 48.3006 44.5839 47.7536 44.6849 47.2151C44.8027 46.6598 44.9542 46.1381 45.1393 45.6501C45.3412 45.1452 45.5936 44.7161 45.8966 44.3627L45.8713 44.186C45.8713 43.9168 45.9218 43.6644 46.0228 43.4288C46.1237 43.1932 46.2331 42.966 46.3509 42.7472C46.4687 42.5285 46.5697 42.3097 46.6538 42.0909C46.738 41.8721 46.7548 41.6281 46.7043 41.3589C46.9062 41.2579 47.1166 41.1738 47.3354 41.1065C47.5541 41.0392 47.7813 41.0055 48.0169 41.0055C48.2357 41.0055 48.4376 41.0392 48.6227 41.1065C48.5891 41.2411 48.648 41.3252 48.7994 41.3589V41.4346C48.7994 41.788 48.7574 42.133 48.6732 42.4696C48.5891 42.8061 48.4881 43.1427 48.3703 43.4792C48.2525 43.799 48.1347 44.1271 48.0169 44.4637C47.9159 44.7834 47.8402 45.1116 47.7897 45.4482C47.7224 45.465 47.6719 45.4986 47.6383 45.5491C47.6214 45.5996 47.6046 45.6501 47.5878 45.7006C47.571 45.7511 47.5457 45.7931 47.5121 45.8268C47.4784 45.8605 47.4279 45.8773 47.3606 45.8773C47.2596 46.4663 47.1503 47.0553 47.0325 47.6442C46.9315 48.2164 46.881 48.797 46.881 49.386C46.881 49.7394 46.9147 50.1012 46.982 50.4714C47.0493 50.8416 47.1755 51.195 47.3606 51.5316L47.4616 51.5063C47.6467 51.5063 47.7897 51.5484 47.8907 51.6325C48.0085 51.7167 48.16 51.8008 48.3451 51.885C48.4797 51.8513 48.6059 51.8092 48.7237 51.7588C48.8415 51.6914 48.892 51.5821 48.8752 51.4306C49.0939 51.4138 49.279 51.3633 49.4305 51.2792C49.5819 51.1782 49.7166 51.0688 49.8344 50.951L50.213 50.5976C50.3476 50.4798 50.5075 50.3957 50.6926 50.3452C50.6926 50.2442 50.7179 50.1685 50.7683 50.118L50.9198 49.9665C50.9703 49.9161 51.0039 49.8656 51.0208 49.8151C51.0544 49.7478 51.0628 49.6552 51.046 49.5374C51.2479 49.5206 51.3994 49.4701 51.5004 49.386C51.6182 49.3018 51.7191 49.2093 51.8033 49.1083C51.9042 48.9905 51.9968 48.8727 52.0809 48.7549C52.1651 48.6371 52.2745 48.5361 52.4091 48.452C52.5269 48.1996 52.6868 47.863 52.8887 47.4423C53.1075 47.0216 53.3178 46.5841 53.5198 46.1297C53.7385 45.6753 53.9236 45.2462 54.0751 44.8423C54.2434 44.4216 54.3275 44.1019 54.3275 43.8831C54.3275 43.799 54.3023 43.7233 54.2518 43.6559C54.2181 43.5886 54.2097 43.5129 54.2265 43.4288V43.353C54.3612 43.1848 54.479 42.9996 54.5799 42.7977C54.6977 42.5958 54.8155 42.4022 54.9333 42.2171C55.068 42.032 55.211 41.8637 55.3625 41.7123C55.5139 41.5608 55.7074 41.443 55.943 41.3589C56.2123 41.443 56.4815 41.5019 56.7508 41.5356C57.0369 41.5692 57.3061 41.6366 57.5585 41.7375C57.5754 42.1582 57.6174 42.6463 57.6848 43.2016C57.7521 43.7569 57.8699 44.2281 58.0382 44.6152C58.0382 44.8339 58.0297 45.0443 58.0129 45.2462C58.0129 45.4482 58.0129 45.6501 58.0129 45.852C58.0129 46.1886 58.0213 46.5336 58.0382 46.887C58.0718 47.2404 58.1307 47.5685 58.2148 47.8714C58.097 48.1239 58.0382 48.3931 58.0382 48.6792C58.0382 49.0662 58.097 49.4365 58.2148 49.7899C58.3326 50.1264 58.4168 50.4882 58.4673 50.8753C58.686 51.1782 58.9721 51.3296 59.3255 51.3296C59.4097 51.3296 59.477 51.3212 59.5275 51.3044C59.5948 51.2876 59.6621 51.2623 59.7294 51.2287C59.864 51.3801 59.9818 51.5316 60.0828 51.683C60.2006 51.8177 60.3352 51.9439 60.4867 52.0617ZM85.6029 52.9704C85.5187 53.2396 85.4935 53.5089 85.5271 53.7782C85.4767 53.8455 85.4178 53.8875 85.3504 53.9044C85.2831 53.9212 85.2158 53.9464 85.1485 53.9801C85.0812 53.9969 85.0223 54.0306 84.9718 54.0811C84.9381 54.1147 84.9381 54.1904 84.9718 54.3082C84.4165 54.3419 83.8864 54.4597 83.3815 54.6616C82.8767 54.8636 82.3802 55.0823 81.8922 55.3179C81.6398 55.2338 81.421 55.1328 81.2359 55.015C81.0508 54.8972 80.8152 54.8215 80.5291 54.7878C80.2431 54.2157 79.9738 53.6183 79.7214 52.9956C79.4858 52.3562 79.368 51.7167 79.368 51.0772C79.368 50.606 79.4521 50.1769 79.6204 49.7899C79.6204 49.285 79.6625 48.7886 79.7466 48.3006C79.8308 47.8125 79.9233 47.3329 80.0243 46.8617C80.1421 46.3737 80.2431 45.8857 80.3272 45.3977C80.4113 44.9097 80.4534 44.4132 80.4534 43.9084V43.353C80.4198 43.353 80.3777 43.3951 80.3272 43.4792C80.2767 43.5466 80.2262 43.6307 80.1757 43.7317C80.1421 43.8158 80.1084 43.9 80.0748 43.9841C80.0411 44.0682 80.0159 44.1187 79.999 44.1356C79.713 44.3543 79.4858 44.632 79.3175 44.9686C79.166 45.2883 78.9978 45.5912 78.8127 45.8773C78.5771 46.2307 78.3246 46.5757 78.0554 46.9122C77.803 47.2488 77.4832 47.5096 77.0962 47.6947V47.7452C77.0962 47.8294 77.0709 47.8883 77.0204 47.9219C76.97 47.9556 76.9615 48.0397 76.9952 48.1743C76.5745 48.309 76.179 48.5025 75.8088 48.7549C75.4554 49.0073 75.1609 49.3271 74.9253 49.7141C74.5888 49.7983 74.269 49.9161 73.9661 50.0675C73.68 50.2021 73.3855 50.3536 73.0826 50.5219C72.948 50.5892 72.805 50.6733 72.6535 50.7743C72.5021 50.8753 72.3506 50.9426 72.1991 50.9762C72.0645 51.0267 71.8794 51.0604 71.6438 51.0772C71.425 51.094 71.1894 51.1109 70.937 51.1277C70.7014 51.1445 70.4658 51.1529 70.2302 51.1529H69.6749C69.5908 51.1529 69.4814 51.1109 69.3468 51.0267C69.2121 50.9426 69.0607 50.85 68.8924 50.7491C68.7409 50.6481 68.5811 50.5555 68.4128 50.4714C68.2445 50.3704 68.0846 50.3031 67.9332 50.2695C67.7985 49.8319 67.605 49.4449 67.3526 49.1083C67.117 48.7549 66.8646 48.4015 66.5953 48.0481C66.5112 47.6442 66.3934 47.2235 66.2419 46.786C66.1073 46.3485 65.8633 45.9867 65.5099 45.7006C65.594 45.5828 65.6361 45.4482 65.6361 45.2967C65.6361 45.1116 65.594 44.9349 65.5099 44.7666C65.4258 44.5983 65.3837 44.4132 65.3837 44.2113C65.3837 44.0767 65.3921 43.9757 65.4089 43.9084C65.2238 44.1103 65.0892 44.3711 65.0051 44.6909C64.9377 44.9938 64.9041 45.2715 64.9041 45.5239C64.9041 45.7258 64.9293 45.9109 64.9798 46.0792C64.8115 46.3148 64.7021 46.6093 64.6517 46.9627C64.618 47.3161 64.6012 47.6274 64.6012 47.8967C64.6012 48.2332 64.6264 48.5614 64.6769 48.8811C64.4077 49.1504 64.273 49.4785 64.273 49.8656C64.273 50.0843 64.3235 50.2779 64.4245 50.4462C64.4245 50.5135 64.4077 50.564 64.374 50.5976C64.3403 50.6313 64.2983 50.6565 64.2478 50.6733C64.2141 50.6902 64.1721 50.7154 64.1216 50.7491C64.0879 50.7659 64.0711 50.808 64.0711 50.8753C64.0711 50.9594 64.0711 51.052 64.0711 51.1529C64.0879 51.2539 64.0963 51.3549 64.0963 51.4559C64.0963 51.6914 64.0879 51.9355 64.0711 52.1879C64.0543 52.4403 64.0458 52.6843 64.0458 52.9199C64.0458 53.4079 64.0879 53.7613 64.1721 53.9801C64.273 54.182 64.3908 54.3335 64.5254 54.4345C64.6769 54.5354 64.8368 54.6364 65.0051 54.7374C65.1733 54.8383 65.3416 55.0319 65.5099 55.3179C65.4594 55.4694 65.3669 55.5956 65.2322 55.6966C65.1144 55.7807 64.9966 55.8733 64.8788 55.9742C64.7779 56.0584 64.6853 56.1594 64.6012 56.2772C64.517 56.3949 64.4834 56.5632 64.5002 56.782H64.374C64.1552 56.782 63.9449 56.8157 63.7429 56.883C63.541 56.9503 63.3306 56.9839 63.1119 56.9839C63.0614 56.9839 63.0109 56.9755 62.9604 56.9587C62.9099 56.9587 62.8595 56.9587 62.809 56.9587L62.5565 56.8072C62.4724 56.7568 62.3883 56.7315 62.3041 56.7315C62.22 56.7315 62.1106 56.7483 61.976 56.782C61.7404 56.0247 61.5553 55.2422 61.4206 54.4345C61.3028 53.6267 61.2439 52.8358 61.2439 52.0617C61.2439 51.9775 61.2608 51.8934 61.2944 51.8092C61.3449 51.7083 61.4122 51.6746 61.4964 51.7083V51.2287C61.4964 50.707 61.5384 50.2021 61.6226 49.7141C61.7235 49.2093 61.774 48.6876 61.774 48.1491C61.774 47.9976 61.7656 47.8462 61.7488 47.6947C61.7488 47.5433 61.7404 47.4002 61.7235 47.2656C61.8077 46.9795 61.8918 46.6935 61.976 46.4074C62.0769 46.1045 62.1274 45.7931 62.1274 45.4734C62.1274 45.3388 62.1022 45.1789 62.0517 44.9938C62.1863 44.8928 62.2873 44.7666 62.3546 44.6152C62.4219 44.4469 62.4724 44.2702 62.5061 44.0851C62.5397 43.8831 62.565 43.6896 62.5818 43.5045C62.5986 43.3194 62.6154 43.1511 62.6323 42.9996C62.8006 42.6631 62.8931 42.3013 62.9099 41.9142C62.9268 41.5272 63.0109 41.1654 63.1624 40.8288C63.1455 40.7615 63.1371 40.6437 63.1371 40.4754C63.1371 40.1388 63.1876 39.8023 63.2886 39.4657C63.4064 39.1123 63.6336 38.8431 63.9701 38.6579C64.273 38.7757 64.6264 38.8346 65.0303 38.8346C65.4173 38.8346 65.7876 38.7757 66.141 38.6579C66.2419 38.6916 66.3345 38.7337 66.4186 38.7842C66.5028 38.8178 66.5869 38.8599 66.6711 38.9104C66.772 38.944 66.873 38.9777 66.974 39.0113C67.0749 39.0282 67.1927 39.0282 67.3274 39.0113C67.4956 39.4994 67.6387 39.9958 67.7565 40.5006C67.8911 41.0055 67.9921 41.5188 68.0594 42.0404C68.093 42.2592 68.1015 42.4948 68.0846 42.7472C68.0846 42.9996 68.1015 43.2352 68.1351 43.454C68.1519 43.5886 68.194 43.7148 68.2613 43.8326C68.3286 43.9336 68.396 44.0514 68.4633 44.186C68.5306 44.3207 68.5811 44.4721 68.6147 44.6404C68.6652 44.8087 68.682 45.019 68.6652 45.2715C68.8503 45.709 69.0523 46.1297 69.271 46.5336C69.5066 46.9206 69.759 47.3077 70.0283 47.6947C70.1797 47.7452 70.3144 47.8125 70.4322 47.8967C70.55 47.964 70.6257 48.0818 70.6594 48.2501C70.8108 48.2501 70.9454 48.2753 71.0632 48.3258L71.4924 48.452C72.1318 48.2501 72.7208 47.9808 73.2593 47.6442C73.8147 47.3077 74.3952 47.0216 75.0011 46.786C75.7415 46.0624 76.381 45.263 76.9195 44.388C77.458 43.4961 77.9965 42.6126 78.535 41.7375V41.1822C78.636 41.1317 78.7201 41.0728 78.7874 41.0055C78.8716 40.9214 78.9725 40.8625 79.0903 40.8288C79.1071 40.6269 79.1492 40.4333 79.2165 40.2482C79.3007 40.0463 79.3848 39.8612 79.469 39.6929C79.5699 39.5078 79.6541 39.3311 79.7214 39.1628C79.7887 38.9777 79.8224 38.7842 79.8224 38.5822C79.8224 38.4644 79.8139 38.3635 79.7971 38.2793C80.0495 38.0269 80.3524 37.9007 80.7058 37.9007C81.0424 37.9007 81.379 37.9848 81.7155 38.1531C82.0689 38.3046 82.3971 38.4476 82.7 38.5822C82.8851 38.9861 83.0197 39.4152 83.1039 39.8696C83.2048 40.3071 83.2721 40.7615 83.3058 41.2327C83.3395 41.7039 83.3563 42.1751 83.3563 42.6463V44.4385C83.3395 44.5731 83.289 44.6741 83.2048 44.7414C83.1375 44.7919 83.087 44.876 83.0534 44.9938V45.2462C83.0534 45.3304 83.045 45.4145 83.0281 45.4986C83.0281 45.852 82.9861 46.2223 82.9019 46.6093C82.8178 47.0973 82.7084 47.5938 82.5738 48.0986C82.456 48.5866 82.3971 49.0831 82.3971 49.5879C82.3971 49.773 82.4055 49.9581 82.4223 50.1432C82.4391 50.3284 82.4728 50.5135 82.5233 50.6986C82.4391 50.85 82.3971 51.0436 82.3971 51.2792C82.3971 51.5484 82.4391 51.8008 82.5233 52.0364C82.6243 52.2552 82.7421 52.474 82.8767 52.6927C83.1123 52.6927 83.3479 52.6843 83.5835 52.6675C83.8191 52.6507 84.0631 52.6422 84.3155 52.6422C84.5511 52.6422 84.7699 52.6675 84.9718 52.718C85.1737 52.7516 85.3841 52.8358 85.6029 52.9704ZM102.162 52.0617C102.095 52.3141 101.985 52.5244 101.834 52.6927C101.682 52.861 101.506 53.0125 101.304 53.1471C101.119 53.2817 100.917 53.4079 100.698 53.5257C100.479 53.6267 100.269 53.7445 100.067 53.8791H99.7386C99.0318 53.8791 98.4849 53.7108 98.0979 53.3743C97.7276 53.0209 97.4416 52.5918 97.2396 52.0869C97.0377 51.5652 96.8862 51.0099 96.7853 50.4209C96.7011 49.8319 96.5917 49.2934 96.4571 48.8054C96.2552 48.9737 96.0869 49.1756 95.9523 49.4112C95.8176 49.63 95.6746 49.8488 95.5231 50.0675C95.3885 50.2863 95.2286 50.4882 95.0435 50.6733C94.8752 50.8584 94.6481 50.9847 94.362 51.052C94.3115 51.1698 94.2526 51.2876 94.1853 51.4054C94.1348 51.5232 94.1011 51.6494 94.0843 51.784C93.7141 51.9859 93.3775 52.2215 93.0746 52.4908C92.7717 52.76 92.4688 53.0377 92.1659 53.3238C91.863 53.6099 91.5517 53.8875 91.2319 54.1568C90.929 54.4092 90.584 54.6196 90.197 54.7878C90.1802 54.771 90.1465 54.7626 90.096 54.7626C89.8941 54.7626 89.709 54.8131 89.5407 54.9141C89.3724 54.9982 89.1873 55.0403 88.9853 55.0403C88.8507 55.0403 88.7245 55.015 88.6067 54.9645C88.5057 54.9141 88.3964 54.8552 88.2786 54.7878C88.1776 54.7205 88.0682 54.6701 87.9504 54.6364C87.8326 54.6027 87.7064 54.5943 87.5718 54.6112C87.4035 54.3082 87.1763 54.0306 86.8902 53.7782C86.621 53.5089 86.4527 53.206 86.3854 52.8694C86.3517 52.718 86.3265 52.5665 86.3097 52.4151C86.3097 52.2468 86.2928 52.0785 86.2592 51.9102C86.2087 51.6578 86.1414 51.4054 86.0572 51.1529C85.9731 50.8837 85.9058 50.6144 85.8553 50.3452C85.9394 49.8908 86.0236 49.3944 86.1077 48.8559C86.175 48.3006 86.2592 47.7536 86.3601 47.2151C86.4779 46.6598 86.6294 46.1381 86.8145 45.6501C87.0164 45.1452 87.2689 44.7161 87.5718 44.3627L87.5465 44.186C87.5465 43.9168 87.597 43.6644 87.698 43.4288C87.799 43.1932 87.9083 42.966 88.0261 42.7472C88.1439 42.5285 88.2449 42.3097 88.329 42.0909C88.4132 41.8721 88.43 41.6281 88.3795 41.3589C88.5815 41.2579 88.7918 41.1738 89.0106 41.1065C89.2294 41.0392 89.4565 41.0055 89.6921 41.0055C89.9109 41.0055 90.1128 41.0392 90.298 41.1065C90.2643 41.2411 90.3232 41.3252 90.4746 41.3589V41.4346C90.4746 41.788 90.4326 42.133 90.3484 42.4696C90.2643 42.8061 90.1633 43.1427 90.0455 43.4792C89.9277 43.799 89.8099 44.1271 89.6921 44.4637C89.5912 44.7834 89.5154 45.1116 89.465 45.4482C89.3976 45.465 89.3472 45.4986 89.3135 45.5491C89.2967 45.5996 89.2798 45.6501 89.263 45.7006C89.2462 45.7511 89.2209 45.7931 89.1873 45.8268C89.1536 45.8605 89.1031 45.8773 89.0358 45.8773C88.9349 46.4663 88.8255 47.0553 88.7077 47.6442C88.6067 48.2164 88.5562 48.797 88.5562 49.386C88.5562 49.7394 88.5899 50.1012 88.6572 50.4714C88.7245 50.8416 88.8507 51.195 89.0358 51.5316L89.1368 51.5063C89.3219 51.5063 89.465 51.5484 89.5659 51.6325C89.6837 51.7167 89.8352 51.8008 90.0203 51.885C90.1549 51.8513 90.2811 51.8092 90.3989 51.7588C90.5167 51.6914 90.5672 51.5821 90.5504 51.4306C90.7691 51.4138 90.9543 51.3633 91.1057 51.2792C91.2572 51.1782 91.3918 51.0688 91.5096 50.951L91.8882 50.5976C92.0229 50.4798 92.1827 50.3957 92.3678 50.3452C92.3678 50.2442 92.3931 50.1685 92.4436 50.118L92.595 49.9665C92.6455 49.9161 92.6792 49.8656 92.696 49.8151C92.7296 49.7478 92.7381 49.6552 92.7212 49.5374C92.9232 49.5206 93.0746 49.4701 93.1756 49.386C93.2934 49.3018 93.3944 49.2093 93.4785 49.1083C93.5795 48.9905 93.672 48.8727 93.7562 48.7549C93.8403 48.6371 93.9497 48.5361 94.0843 48.452C94.2021 48.1996 94.362 47.863 94.5639 47.4423C94.7827 47.0216 94.993 46.5841 95.195 46.1297C95.4137 45.6753 95.5989 45.2462 95.7503 44.8423C95.9186 44.4216 96.0027 44.1019 96.0027 43.8831C96.0027 43.799 95.9775 43.7233 95.927 43.6559C95.8934 43.5886 95.8849 43.5129 95.9018 43.4288V43.353C96.0364 43.1848 96.1542 42.9996 96.2552 42.7977C96.373 42.5958 96.4908 42.4022 96.6086 42.2171C96.7432 42.032 96.8862 41.8637 97.0377 41.7123C97.1891 41.5608 97.3827 41.443 97.6183 41.3589C97.8875 41.443 98.1568 41.5019 98.426 41.5356C98.7121 41.5692 98.9813 41.6366 99.2338 41.7375C99.2506 42.1582 99.2927 42.6463 99.36 43.2016C99.4273 43.7569 99.5451 44.2281 99.7134 44.6152C99.7134 44.8339 99.705 45.0443 99.6881 45.2462C99.6881 45.4482 99.6881 45.6501 99.6881 45.852C99.6881 46.1886 99.6965 46.5336 99.7134 46.887C99.747 47.2404 99.8059 47.5685 99.8901 47.8714C99.7723 48.1239 99.7134 48.3931 99.7134 48.6792C99.7134 49.0662 99.7723 49.4365 99.8901 49.7899C100.008 50.1264 100.092 50.4882 100.142 50.8753C100.361 51.1782 100.647 51.3296 101.001 51.3296C101.085 51.3296 101.152 51.3212 101.203 51.3044C101.27 51.2876 101.337 51.2623 101.405 51.2287C101.539 51.3801 101.657 51.5316 101.758 51.683C101.876 51.8177 102.01 51.9439 102.162 52.0617ZM140.278 56.0247C140.177 56.1594 140.051 56.2519 139.899 56.3024C139.748 56.3529 139.596 56.3949 139.445 56.4286C139.293 56.4623 139.134 56.4959 138.965 56.5296C138.814 56.5801 138.679 56.6558 138.561 56.7568C138.528 56.7736 138.503 56.7904 138.486 56.8072C138.486 56.8241 138.469 56.8325 138.435 56.8325C138.385 56.8325 138.334 56.7904 138.284 56.7063C138.25 56.639 138.191 56.5885 138.107 56.5548C137.67 56.7904 137.198 56.9924 136.694 57.1606C136.189 57.3457 135.684 57.5309 135.179 57.716C134.691 57.9179 134.211 58.1283 133.74 58.347C133.269 58.5826 132.857 58.8687 132.503 59.2053C132.234 59.2389 131.956 59.2978 131.67 59.382C131.401 59.4829 131.199 59.668 131.064 59.9373H130.989C130.921 59.9373 130.871 59.9121 130.837 59.8616C130.804 59.8279 130.753 59.8111 130.686 59.8111C130.568 59.8111 130.492 59.8447 130.459 59.9121C130.425 59.9794 130.4 60.0467 130.383 60.114C130.383 60.1981 130.374 60.2739 130.358 60.3412C130.341 60.4085 130.29 60.4421 130.206 60.4421C130.173 60.4421 130.139 60.4085 130.105 60.3412C130.072 60.2907 129.987 60.2739 129.853 60.2907C129.23 60.6273 128.582 60.9638 127.909 61.3004C127.236 61.6538 126.655 62.0997 126.167 62.6382C126.134 62.6046 126.092 62.5878 126.041 62.5878C126.008 62.5878 125.982 62.5878 125.965 62.5878L125.94 62.613C125.907 62.613 125.881 62.6046 125.865 62.5878C125.848 62.5709 125.831 62.5625 125.814 62.5625C125.427 62.8991 125.015 63.202 124.577 63.4712C124.156 63.7573 123.727 64.035 123.29 64.3042C122.852 64.5735 122.423 64.8427 122.002 65.112C121.582 65.3981 121.186 65.7178 120.816 66.0712C120.58 66.088 120.345 66.1385 120.109 66.2227C119.874 66.3068 119.638 66.3909 119.402 66.4751C119.184 66.5592 118.957 66.635 118.721 66.7023C118.485 66.7864 118.25 66.8285 118.014 66.8285C117.577 66.8285 117.215 66.635 116.929 66.2479C116.878 66.2816 116.828 66.3068 116.777 66.3236C116.744 66.3405 116.702 66.3489 116.651 66.3489C116.516 66.3489 116.39 66.29 116.272 66.1722C116.171 66.0712 116.028 66.0376 115.843 66.0712C115.625 65.8356 115.465 65.5327 115.364 65.1625C115.28 64.8091 115.17 64.4809 115.036 64.178C115.069 63.5217 115.179 62.8822 115.364 62.2596C115.566 61.6538 115.692 61.0227 115.742 60.3664C115.894 60.215 116.012 60.0383 116.096 59.8363C116.18 59.6512 116.256 59.4493 116.323 59.2305C116.407 59.0286 116.491 58.8266 116.575 58.6247C116.659 58.4228 116.777 58.2545 116.929 58.1198C117.03 57.615 117.198 57.1354 117.434 56.681C117.669 56.2267 117.829 55.7386 117.913 55.217C118.048 55.1328 118.157 55.0319 118.241 54.9141C118.342 54.7963 118.452 54.6869 118.569 54.5859V54.4345C118.569 54.2998 118.536 54.1989 118.468 54.1315C118.586 53.8286 118.712 53.5426 118.847 53.2733C118.999 53.0041 119.142 52.7348 119.276 52.4655C119.411 52.1963 119.529 51.9186 119.63 51.6325C119.731 51.3465 119.798 51.0351 119.832 50.6986C119.966 50.5808 120.067 50.4377 120.134 50.2695C120.202 50.0843 120.261 49.9077 120.311 49.7394C120.378 49.5543 120.446 49.386 120.513 49.2345C120.597 49.0831 120.732 48.9653 120.917 48.8811C120.9 48.8475 120.892 48.8054 120.892 48.7549C120.892 48.5866 120.934 48.4352 121.018 48.3006C121.119 48.1659 121.169 48.0229 121.169 47.8714C121.169 47.7873 121.144 47.7031 121.094 47.619C121.43 46.9122 121.758 46.2223 122.078 45.5491C122.398 44.8592 122.642 44.1271 122.81 43.353C122.978 43.2689 123.079 43.1427 123.113 42.9744C123.147 42.8061 123.222 42.6547 123.34 42.52V42.3938C123.34 42.1077 123.399 41.788 123.517 41.4346C123.652 41.0812 123.811 40.7867 123.997 40.5511C124.081 39.9621 124.173 39.3479 124.274 38.7084C124.392 38.0521 124.569 37.4547 124.804 36.9162C124.771 36.7984 124.72 36.6806 124.653 36.5628C124.602 36.445 124.56 36.3188 124.527 36.1842C124.106 36.4198 123.626 36.6301 123.088 36.8153C122.987 36.8489 122.877 36.8826 122.76 36.9162C122.642 36.9331 122.541 36.9667 122.457 37.0172C122.356 37.0508 122.297 37.135 122.28 37.2696C122.263 37.3874 122.255 37.4884 122.255 37.5725C122.053 37.5725 121.893 37.6146 121.775 37.6987C121.657 37.7829 121.54 37.8838 121.422 38.0016C121.321 38.1026 121.211 38.2036 121.094 38.3046C120.976 38.3887 120.824 38.4476 120.639 38.4813C120.437 38.6832 120.269 38.8431 120.134 38.9609C120 39.0618 119.806 39.1628 119.554 39.2638C119.47 39.2974 119.386 39.3647 119.301 39.4657L119.049 39.7686C118.965 39.8696 118.881 39.9537 118.797 40.021C118.729 40.0884 118.654 40.1136 118.569 40.0968C118.519 40.2482 118.443 40.3744 118.342 40.4754C118.258 40.5764 118.166 40.6773 118.065 40.7783C117.964 40.8625 117.879 40.9634 117.812 41.0812C117.745 41.199 117.72 41.3505 117.736 41.5356C117.669 41.6029 117.61 41.6366 117.56 41.6366C117.509 41.6366 117.45 41.6029 117.383 41.5356C117.349 41.7375 117.282 41.9058 117.181 42.0404C117.097 42.1582 116.996 42.2676 116.878 42.3686C116.76 42.4696 116.634 42.5705 116.5 42.6715C116.365 42.7725 116.239 42.8818 116.121 42.9996C115.969 42.9828 115.835 42.9492 115.717 42.8987C115.616 42.8482 115.507 42.7977 115.389 42.7472C115.271 42.6967 115.145 42.6631 115.01 42.6463C114.892 42.6126 114.741 42.6042 114.556 42.621C114.573 42.52 114.556 42.4443 114.505 42.3938C114.455 42.3433 114.388 42.3013 114.303 42.2676C114.303 42.133 114.303 41.9647 114.303 41.7628C114.32 41.5608 114.329 41.3589 114.329 41.1569C114.346 40.9382 114.371 40.7362 114.404 40.5511C114.438 40.366 114.489 40.2146 114.556 40.0968C114.657 39.9285 114.817 39.777 115.036 39.6424C115.271 39.5078 115.515 39.3732 115.768 39.2385C116.037 39.0871 116.289 38.9356 116.525 38.7842C116.777 38.6159 116.979 38.4139 117.131 38.1783C117.147 38.1952 117.181 38.2036 117.232 38.2036C117.366 38.2036 117.476 38.1699 117.56 38.1026C117.644 37.9512 117.753 37.8418 117.888 37.7745C118.039 37.7072 118.174 37.6062 118.292 37.4716C118.342 37.4211 118.368 37.3622 118.368 37.2949C118.384 37.2107 118.418 37.1434 118.468 37.0929C118.519 37.0424 118.612 36.992 118.746 36.9415C118.898 36.891 119.015 36.8237 119.1 36.7395C119.201 36.6554 119.276 36.5628 119.327 36.4619C119.394 36.3609 119.47 36.2683 119.554 36.1842C119.689 36.0832 119.832 36.0075 119.983 35.957C120.151 35.9065 120.311 35.8392 120.463 35.7551C120.614 35.6541 120.749 35.5363 120.867 35.4017C121.001 35.2671 121.102 35.1072 121.169 34.9221C121.506 34.7706 121.834 34.6192 122.154 34.4677C122.474 34.2994 122.785 34.1227 123.088 33.9376C123.256 33.8366 123.416 33.7273 123.567 33.6095C123.719 33.4748 123.87 33.3486 124.022 33.2308C124.19 33.113 124.358 33.0121 124.527 32.9279C124.712 32.8438 124.905 32.8017 125.107 32.8017C125.36 32.8017 125.553 32.8522 125.688 32.9532C125.822 33.0373 125.94 33.1383 126.041 33.2561C126.159 33.357 126.277 33.4664 126.395 33.5842C126.529 33.702 126.698 33.7862 126.899 33.8366C127.068 34.1059 127.177 34.4004 127.228 34.7201C127.295 35.023 127.337 35.3428 127.354 35.6793C127.371 35.9991 127.371 36.3188 127.354 36.6386C127.354 36.9583 127.379 37.2696 127.43 37.5725C127.329 37.8586 127.211 38.1363 127.076 38.4055C126.942 38.6748 126.874 38.9609 126.874 39.2638C126.874 39.3816 126.883 39.4825 126.899 39.5667H126.597C126.529 40.122 126.403 40.6689 126.218 41.2074C126.033 41.7291 125.822 42.2508 125.587 42.7725L124.905 44.3122C124.687 44.8171 124.501 45.3388 124.35 45.8773C124.316 46.0287 124.257 46.1213 124.173 46.1549C124.089 46.1718 124.03 46.2391 123.997 46.3569C123.912 46.542 123.845 46.7439 123.795 46.9627C123.744 47.1815 123.677 47.3918 123.593 47.5938C123.424 48.0313 123.256 48.452 123.088 48.8559C122.92 49.2598 122.743 49.6552 122.558 50.0423V50.2947C122.558 50.3788 122.583 50.4209 122.633 50.4209C122.095 51.1614 121.733 52.0028 121.548 52.9452C121.413 53.0461 121.312 53.1723 121.245 53.3238C121.195 53.4584 121.111 53.5762 120.993 53.6772C120.875 54.1652 120.715 54.6448 120.513 55.116C120.328 55.5704 120.134 56.0247 119.933 56.4791C119.731 56.9335 119.537 57.3878 119.352 57.8422C119.167 58.3134 119.024 58.793 118.923 59.281C118.738 59.4493 118.586 59.6512 118.468 59.8868C118.368 60.1224 118.275 60.3748 118.191 60.6441C118.124 60.9133 118.056 61.1826 117.989 61.4518C117.938 61.7211 117.879 61.9651 117.812 62.1839L117.56 63.0926V63.5975C117.56 63.6816 117.551 63.7741 117.535 63.8751C117.518 63.9761 117.467 64.0434 117.383 64.0771C117.417 64.1949 117.459 64.2874 117.509 64.3547C117.577 64.422 117.593 64.5146 117.56 64.6324C117.627 64.767 117.745 64.8427 117.913 64.8596C118.098 64.8932 118.258 64.9353 118.393 64.9858C118.527 64.9521 118.603 64.8764 118.62 64.7586C118.637 64.6408 118.679 64.5398 118.746 64.4557C118.898 64.2538 119.125 64.035 119.428 63.7994C119.747 63.5638 120.084 63.3198 120.437 63.0674C120.808 62.8149 121.161 62.5709 121.498 62.3353C121.851 62.1166 122.137 61.9146 122.356 61.7295H122.81C123.416 61.3425 124.022 60.9638 124.628 60.5936C125.233 60.2402 125.865 59.9205 126.521 59.6344C126.689 59.4156 126.891 59.2473 127.127 59.1295C127.379 59.0117 127.631 58.8939 127.884 58.7762C128.153 58.6752 128.406 58.5658 128.641 58.448C128.894 58.3302 129.096 58.1619 129.247 57.9432C129.432 57.9095 129.634 57.8674 129.853 57.8169C130.072 57.7665 130.231 57.6487 130.332 57.4635H130.433C130.484 57.4635 130.534 57.472 130.585 57.4888C130.635 57.5224 130.669 57.5729 130.686 57.6402C130.804 57.6066 130.871 57.5309 130.888 57.4131C130.921 57.2953 130.98 57.1943 131.064 57.1102C131.552 56.925 132.049 56.7315 132.554 56.5296C133.059 56.3276 133.555 56.1005 134.043 55.848C134.279 55.848 134.539 55.8144 134.826 55.7471C135.128 55.6797 135.356 55.5283 135.507 55.2927C135.541 55.3095 135.583 55.3179 135.633 55.3179C135.818 55.3179 135.995 55.2927 136.163 55.2422C136.349 55.1749 136.534 55.1076 136.719 55.0403C136.904 54.9561 137.089 54.8804 137.274 54.8131C137.459 54.7458 137.653 54.7037 137.855 54.6869H137.905C137.939 54.6869 137.947 54.6448 137.93 54.5607C137.93 54.4597 137.93 54.4008 137.93 54.384C137.93 54.3167 137.964 54.2914 138.031 54.3082C138.082 54.2914 138.166 54.283 138.284 54.283C138.469 54.283 138.637 54.3251 138.789 54.4092C138.957 54.4765 139.117 54.5607 139.268 54.6616C139.42 54.7626 139.571 54.872 139.723 54.9898C139.874 55.0908 140.034 55.1665 140.202 55.217C140.169 55.3516 140.152 55.461 140.152 55.5451C140.152 55.6293 140.16 55.7134 140.177 55.7975C140.211 55.8649 140.244 55.9406 140.278 56.0247ZM153.757 45.221C153.757 46.2812 153.656 47.3161 153.454 48.3258C153.269 49.3187 153.042 50.3199 152.773 51.3296C152.588 51.5148 152.445 51.7083 152.344 51.9102C152.243 52.0953 152.201 52.3225 152.218 52.5918C152.016 52.6422 151.881 52.7685 151.814 52.9704C151.746 53.1555 151.671 53.3322 151.587 53.5005C151.3 53.6856 151.048 53.9044 150.829 54.1568C150.627 54.3924 150.409 54.628 150.173 54.8636C150.106 54.9309 150.038 55.0066 149.971 55.0908C149.921 55.1749 149.862 55.2422 149.794 55.2927C149.643 55.4105 149.475 55.5199 149.289 55.6208C149.104 55.705 148.936 55.7975 148.785 55.8985C148.448 56.1173 148.12 56.3445 147.8 56.5801C147.48 56.8325 147.169 57.1017 146.866 57.3878C146.143 57.6739 145.444 57.9936 144.771 58.347C144.115 58.7173 143.458 59.1211 142.802 59.5587H142.171C141.952 59.6933 141.75 59.8027 141.565 59.8868C141.38 59.971 141.161 60.013 140.909 60.013C140.572 60.2318 140.202 60.4085 139.798 60.5431C139.394 60.6946 138.982 60.8292 138.561 60.947C138.141 61.0648 137.72 61.1742 137.299 61.2751C136.879 61.3761 136.483 61.4939 136.113 61.6285C136.029 61.6117 135.945 61.5865 135.861 61.5528C135.793 61.536 135.717 61.5276 135.633 61.5276C135.398 61.5276 135.179 61.5781 134.977 61.679C134.792 61.78 134.59 61.8557 134.371 61.9062C134.304 61.9399 134.228 61.9483 134.144 61.9315C134.06 61.9315 133.984 61.9315 133.917 61.9315C133.479 61.9315 133.084 61.8557 132.73 61.7043C132.377 61.5696 131.998 61.4603 131.595 61.3761C131.494 61.1574 131.351 60.947 131.165 60.7451L130.61 60.1392C130.425 59.9373 130.265 59.7269 130.13 59.5082C129.979 59.3062 129.886 59.0791 129.853 58.8266V58.5742C129.853 58.3891 129.836 58.204 129.802 58.0189C129.769 57.8338 129.727 57.6487 129.676 57.4635C129.794 57.1606 129.912 56.8409 130.03 56.5043C130.147 56.1678 130.274 55.8396 130.408 55.5199C130.543 55.1833 130.694 54.8636 130.863 54.5607C131.031 54.2578 131.241 53.9969 131.494 53.7782C131.578 53.4079 131.712 53.0714 131.897 52.7685C132.066 52.4487 132.259 52.1458 132.478 51.8597C132.68 51.5568 132.882 51.2539 133.084 50.951C133.286 50.6481 133.454 50.3199 133.589 49.9665C133.673 49.9834 133.723 49.9665 133.74 49.9161C133.774 49.8656 133.799 49.8151 133.816 49.7646C133.85 49.6973 133.883 49.6468 133.917 49.6132C133.95 49.5795 134.018 49.5795 134.119 49.6132C134.119 49.4449 134.152 49.3102 134.22 49.2093C134.287 49.0915 134.354 48.9821 134.422 48.8811C134.506 48.7802 134.573 48.6792 134.624 48.5782C134.691 48.4604 134.733 48.3258 134.75 48.1743C134.868 48.1239 134.96 48.0481 135.028 47.9472C135.112 47.8462 135.187 47.7452 135.255 47.6442C135.322 47.5264 135.389 47.4171 135.457 47.3161C135.524 47.2151 135.625 47.1394 135.76 47.0889C135.793 46.8701 135.852 46.685 135.936 46.5336C136.037 46.3653 136.138 46.2138 136.239 46.0792C136.357 45.9446 136.466 45.81 136.567 45.6753C136.685 45.5239 136.778 45.3556 136.845 45.1705C136.946 45.0863 137.064 45.0611 137.198 45.0948C137.434 44.6236 137.712 44.1776 138.031 43.7569C138.351 43.3362 138.679 42.9239 139.016 42.52C139.352 42.1162 139.689 41.7123 140.026 41.3084C140.362 40.8877 140.657 40.4502 140.909 39.9958C141.145 39.8612 141.363 39.7013 141.565 39.5162C141.784 39.3143 141.961 39.0871 142.095 38.8346C141.759 38.1952 141.464 37.5809 141.212 36.992C140.959 36.3861 140.833 35.7046 140.833 34.9473C140.833 34.8295 140.842 34.7117 140.859 34.5939C140.875 34.4761 140.892 34.3499 140.909 34.2153C141.195 33.8282 141.473 33.5085 141.742 33.2561C142.011 32.9868 142.407 32.8522 142.928 32.8522C143.433 32.8522 143.921 32.9448 144.392 33.1299C144.88 33.315 145.377 33.4075 145.882 33.4075C146.134 33.5926 146.387 33.7609 146.639 33.9124C146.908 34.047 147.186 34.1816 147.472 34.3163L147.8 34.4425C147.935 34.4761 148.053 34.5182 148.154 34.5687C148.255 34.636 148.355 34.7117 148.456 34.7959C148.574 34.88 148.684 34.9641 148.785 35.0483C149.458 35.6036 150.08 36.2094 150.653 36.8657C151.242 37.5052 151.822 38.1615 152.394 38.8346V38.8851C152.394 39.1544 152.453 39.3647 152.571 39.5162C152.689 39.6508 152.815 39.8107 152.95 39.9958C152.95 40.2987 152.992 40.568 153.076 40.8036C153.16 41.0392 153.269 41.2832 153.404 41.5356C153.404 41.7712 153.404 42.0152 153.404 42.2676C153.421 42.5032 153.463 42.7388 153.53 42.9744C153.598 43.1427 153.64 43.2689 153.656 43.353C153.724 43.5886 153.757 43.8915 153.757 44.2618V45.221ZM151.713 45.1957C151.713 44.7077 151.679 44.2618 151.612 43.8579C151.561 43.4372 151.494 42.9912 151.41 42.52C151.343 42.1162 151.258 41.7123 151.157 41.3084C151.073 40.9045 150.939 40.5175 150.754 40.1473C150.585 39.777 150.358 39.4405 150.072 39.1376C149.803 38.8346 149.466 38.5738 149.062 38.355H148.987C148.936 38.355 148.877 38.3971 148.81 38.4813C148.759 38.5486 148.642 38.5822 148.456 38.5822C148.355 38.5822 148.255 38.5654 148.154 38.5317C148.069 38.4813 147.985 38.4644 147.901 38.4813H147.8C147.598 38.5822 147.422 38.6579 147.27 38.7084C147.119 38.7589 146.925 38.7673 146.689 38.7337C146.437 38.9693 146.168 39.188 145.882 39.39C145.612 39.5751 145.31 39.7181 144.973 39.8191C144.822 40.122 144.628 40.3913 144.392 40.6269C144.157 40.8456 143.871 40.9971 143.534 41.0812C143.467 41.2832 143.366 41.4599 143.231 41.6113C143.113 41.7459 142.979 41.8721 142.827 41.9899C142.676 42.0909 142.516 42.1919 142.348 42.2929C142.18 42.3938 142.028 42.5032 141.893 42.621C141.759 42.7556 141.649 42.8987 141.565 43.0501C141.498 43.1848 141.397 43.311 141.262 43.4288C141.077 43.597 140.909 43.7569 140.758 43.9084C140.623 44.0598 140.488 44.2365 140.354 44.4385C140.236 44.6236 140.118 44.8087 140 44.9938C139.899 45.1789 139.84 45.3893 139.824 45.6249C139.336 45.9109 138.948 46.2812 138.662 46.7355L137.804 48.0986C137.686 48.2669 137.569 48.4183 137.451 48.553L137.097 48.9569C137.047 49.0242 137.013 49.0999 136.996 49.184C136.996 49.2682 137.005 49.3523 137.022 49.4365C136.786 49.6047 136.584 49.8067 136.416 50.0423C136.248 50.261 136.088 50.4966 135.936 50.7491C135.802 51.0015 135.65 51.2539 135.482 51.5063C135.33 51.7419 135.145 51.9523 134.927 52.1374C134.792 52.474 134.632 52.8189 134.447 53.1723C134.279 53.5089 134.051 53.795 133.765 54.0306C133.479 54.7374 133.202 55.4357 132.932 56.1257C132.68 56.8157 132.503 57.5393 132.402 58.2965C132.52 58.4143 132.638 58.5153 132.756 58.5995C132.873 58.7004 132.991 58.8098 133.109 58.9276C133.126 58.9444 133.16 58.9528 133.21 58.9528C133.294 58.9528 133.353 58.9276 133.387 58.8771C133.437 58.8266 133.496 58.8014 133.563 58.8014C133.597 58.8014 133.614 58.8014 133.614 58.8014L133.664 58.8266C133.681 58.9444 133.732 59.0286 133.816 59.0791C133.9 59.1295 134.001 59.1632 134.119 59.18C134.237 59.2137 134.354 59.2389 134.472 59.2558C134.59 59.2726 134.683 59.3147 134.75 59.382C135.12 59.2642 135.532 59.1716 135.987 59.1043C136.441 59.0538 136.887 58.9865 137.325 58.9024C137.779 58.835 138.216 58.7341 138.637 58.5995C139.058 58.4648 139.42 58.2713 139.723 58.0189H140C140.169 58.0189 140.286 58.0525 140.354 58.1198C140.673 57.8001 140.993 57.5561 141.313 57.3878C141.633 57.2195 142.011 57.127 142.449 57.1102C143.088 56.5212 143.812 56.05 144.62 55.6966C145.444 55.3264 146.227 54.9225 146.967 54.4849C147.051 54.4513 147.093 54.3924 147.093 54.3082C147.093 54.2073 147.135 54.1484 147.22 54.1315C147.304 54.1147 147.371 54.1147 147.422 54.1315C147.489 54.1315 147.556 54.1315 147.623 54.1315C148.212 53.5594 148.776 52.9788 149.315 52.3898C149.87 51.784 150.358 51.1277 150.779 50.4209C150.779 50.3031 150.787 50.2021 150.804 50.118C150.838 50.017 150.854 49.9245 150.854 49.8403C150.854 49.8067 150.846 49.773 150.829 49.7394C150.812 49.6889 150.796 49.6468 150.779 49.6132C151.115 48.94 151.351 48.2248 151.486 47.4676C151.637 46.6935 151.713 45.9362 151.713 45.1957ZM145.882 36.1085C145.663 35.957 145.402 35.8224 145.099 35.7046C144.796 35.57 144.51 35.5026 144.241 35.5026C143.955 35.5026 143.745 35.5868 143.61 35.7551C143.492 35.9065 143.433 36.1169 143.433 36.3861C143.433 36.5376 143.475 36.6638 143.559 36.7648C143.644 36.8489 143.66 37.0172 143.61 37.2696C143.66 37.3033 143.728 37.3201 143.812 37.3201C144.014 37.3201 144.207 37.278 144.392 37.1939C144.578 37.1097 144.746 37.0088 144.897 36.891C145.066 36.7564 145.225 36.6217 145.377 36.4871C145.545 36.3356 145.713 36.2094 145.882 36.1085ZM182.079 56.0247C181.978 56.1594 181.852 56.2519 181.701 56.3024C181.549 56.3529 181.398 56.3949 181.246 56.4286C181.095 56.4623 180.935 56.4959 180.767 56.5296C180.615 56.5801 180.481 56.6558 180.363 56.7568C180.329 56.7736 180.304 56.7904 180.287 56.8072C180.287 56.8241 180.27 56.8325 180.237 56.8325C180.186 56.8325 180.136 56.7904 180.085 56.7063C180.052 56.639 179.993 56.5885 179.909 56.5548C179.471 56.7904 179 56.9924 178.495 57.1606C177.99 57.3457 177.485 57.5309 176.98 57.716C176.492 57.9179 176.013 58.1283 175.542 58.347C175.07 58.5826 174.658 58.8687 174.305 59.2053C174.035 59.2389 173.758 59.2978 173.472 59.382C173.202 59.4829 173.001 59.668 172.866 59.9373H172.79C172.723 59.9373 172.672 59.9121 172.639 59.8616C172.605 59.8279 172.555 59.8111 172.487 59.8111C172.369 59.8111 172.294 59.8447 172.26 59.9121C172.226 59.9794 172.201 60.0467 172.184 60.114C172.184 60.1981 172.176 60.2739 172.159 60.3412C172.142 60.4085 172.092 60.4421 172.008 60.4421C171.974 60.4421 171.94 60.4085 171.907 60.3412C171.873 60.2907 171.789 60.2739 171.654 60.2907C171.032 60.6273 170.384 60.9638 169.711 61.3004C169.037 61.6538 168.457 62.0997 167.969 62.6382C167.935 62.6046 167.893 62.5878 167.843 62.5878C167.809 62.5878 167.784 62.5878 167.767 62.5878L167.742 62.613C167.708 62.613 167.683 62.6046 167.666 62.5878C167.649 62.5709 167.632 62.5625 167.615 62.5625C167.228 62.8991 166.816 63.202 166.379 63.4712C165.958 63.7573 165.529 64.035 165.091 64.3042C164.654 64.5735 164.225 64.8427 163.804 65.112C163.383 65.3981 162.988 65.7178 162.617 66.0712C162.382 66.088 162.146 66.1385 161.911 66.2227C161.675 66.3068 161.439 66.3909 161.204 66.4751C160.985 66.5592 160.758 66.635 160.522 66.7023C160.287 66.7864 160.051 66.8285 159.816 66.8285C159.378 66.8285 159.016 66.635 158.73 66.2479C158.68 66.2816 158.629 66.3068 158.579 66.3236C158.545 66.3405 158.503 66.3489 158.452 66.3489C158.318 66.3489 158.192 66.29 158.074 66.1722C157.973 66.0712 157.83 66.0376 157.645 66.0712C157.426 65.8356 157.266 65.5327 157.165 65.1625C157.081 64.8091 156.972 64.4809 156.837 64.178C156.871 63.5217 156.98 62.8822 157.165 62.2596C157.367 61.6538 157.493 61.0227 157.544 60.3664C157.695 60.215 157.813 60.0383 157.897 59.8363C157.981 59.6512 158.057 59.4493 158.124 59.2305C158.208 59.0286 158.293 58.8266 158.377 58.6247C158.461 58.4228 158.579 58.2545 158.73 58.1198C158.831 57.615 158.999 57.1354 159.235 56.681C159.471 56.2267 159.63 55.7386 159.715 55.217C159.849 55.1328 159.959 55.0319 160.043 54.9141C160.144 54.7963 160.253 54.6869 160.371 54.5859V54.4345C160.371 54.2998 160.337 54.1989 160.27 54.1315C160.388 53.8286 160.514 53.5426 160.649 53.2733C160.8 53.0041 160.943 52.7348 161.078 52.4655C161.212 52.1963 161.33 51.9186 161.431 51.6325C161.532 51.3465 161.599 51.0351 161.633 50.6986C161.768 50.5808 161.869 50.4377 161.936 50.2695C162.003 50.0843 162.062 49.9077 162.113 49.7394C162.18 49.5543 162.247 49.386 162.315 49.2345C162.399 49.0831 162.533 48.9653 162.718 48.8811C162.702 48.8475 162.693 48.8054 162.693 48.7549C162.693 48.5866 162.735 48.4352 162.819 48.3006C162.92 48.1659 162.971 48.0229 162.971 47.8714C162.971 47.7873 162.946 47.7031 162.895 47.619C163.232 46.9122 163.56 46.2223 163.88 45.5491C164.199 44.8592 164.443 44.1271 164.612 43.353C164.78 43.2689 164.881 43.1427 164.915 42.9744C164.948 42.8061 165.024 42.6547 165.142 42.52V42.3938C165.142 42.1077 165.201 41.788 165.318 41.4346C165.453 41.0812 165.613 40.7867 165.798 40.5511C165.882 39.9621 165.975 39.3479 166.076 38.7084C166.193 38.0521 166.37 37.4547 166.606 36.9162C166.572 36.7984 166.522 36.6806 166.454 36.5628C166.404 36.445 166.362 36.3188 166.328 36.1842C165.907 36.4198 165.428 36.6301 164.889 36.8153C164.788 36.8489 164.679 36.8826 164.561 36.9162C164.443 36.9331 164.342 36.9667 164.258 37.0172C164.157 37.0508 164.098 37.135 164.082 37.2696C164.065 37.3874 164.056 37.4884 164.056 37.5725C163.854 37.5725 163.694 37.6146 163.577 37.6987C163.459 37.7829 163.341 37.8838 163.223 38.0016C163.122 38.1026 163.013 38.2036 162.895 38.3046C162.777 38.3887 162.626 38.4476 162.441 38.4813C162.239 38.6832 162.071 38.8431 161.936 38.9609C161.801 39.0618 161.608 39.1628 161.355 39.2638C161.271 39.2974 161.187 39.3647 161.103 39.4657L160.85 39.7686C160.766 39.8696 160.682 39.9537 160.598 40.021C160.531 40.0884 160.455 40.1136 160.371 40.0968C160.32 40.2482 160.245 40.3744 160.144 40.4754C160.06 40.5764 159.967 40.6773 159.866 40.7783C159.765 40.8625 159.681 40.9634 159.614 41.0812C159.546 41.199 159.521 41.3505 159.538 41.5356C159.471 41.6029 159.412 41.6366 159.361 41.6366C159.311 41.6366 159.252 41.6029 159.184 41.5356C159.151 41.7375 159.084 41.9058 158.983 42.0404C158.898 42.1582 158.797 42.2676 158.68 42.3686C158.562 42.4696 158.436 42.5705 158.301 42.6715C158.166 42.7725 158.04 42.8818 157.922 42.9996C157.771 42.9828 157.636 42.9492 157.518 42.8987C157.418 42.8482 157.308 42.7977 157.19 42.7472C157.073 42.6967 156.946 42.6631 156.812 42.6463C156.694 42.6126 156.542 42.6042 156.357 42.621C156.374 42.52 156.357 42.4443 156.307 42.3938C156.256 42.3433 156.189 42.3013 156.105 42.2676C156.105 42.133 156.105 41.9647 156.105 41.7628C156.122 41.5608 156.13 41.3589 156.13 41.1569C156.147 40.9382 156.172 40.7362 156.206 40.5511C156.24 40.366 156.29 40.2146 156.357 40.0968C156.458 39.9285 156.618 39.777 156.837 39.6424C157.073 39.5078 157.317 39.3732 157.569 39.2385C157.838 39.0871 158.091 38.9356 158.326 38.7842C158.579 38.6159 158.781 38.4139 158.932 38.1783C158.949 38.1952 158.983 38.2036 159.033 38.2036C159.168 38.2036 159.277 38.1699 159.361 38.1026C159.445 37.9512 159.555 37.8418 159.689 37.7745C159.841 37.7072 159.975 37.6062 160.093 37.4716C160.144 37.4211 160.169 37.3622 160.169 37.2949C160.186 37.2107 160.219 37.1434 160.27 37.0929C160.32 37.0424 160.413 36.992 160.548 36.9415C160.699 36.891 160.817 36.8237 160.901 36.7395C161.002 36.6554 161.078 36.5628 161.128 36.4619C161.195 36.3609 161.271 36.2683 161.355 36.1842C161.49 36.0832 161.633 36.0075 161.784 35.957C161.953 35.9065 162.113 35.8392 162.264 35.7551C162.416 35.6541 162.55 35.5363 162.668 35.4017C162.803 35.2671 162.904 35.1072 162.971 34.9221C163.307 34.7706 163.636 34.6192 163.955 34.4677C164.275 34.2994 164.586 34.1227 164.889 33.9376C165.058 33.8366 165.217 33.7273 165.369 33.6095C165.52 33.4748 165.672 33.3486 165.823 33.2308C165.992 33.113 166.16 33.0121 166.328 32.9279C166.513 32.8438 166.707 32.8017 166.909 32.8017C167.161 32.8017 167.355 32.8522 167.489 32.9532C167.624 33.0373 167.742 33.1383 167.843 33.2561C167.96 33.357 168.078 33.4664 168.196 33.5842C168.331 33.702 168.499 33.7862 168.701 33.8366C168.869 34.1059 168.979 34.4004 169.029 34.7201C169.096 35.023 169.138 35.3428 169.155 35.6793C169.172 35.9991 169.172 36.3188 169.155 36.6386C169.155 36.9583 169.18 37.2696 169.231 37.5725C169.13 37.8586 169.012 38.1363 168.878 38.4055C168.743 38.6748 168.676 38.9609 168.676 39.2638C168.676 39.3816 168.684 39.4825 168.701 39.5667H168.398C168.331 40.122 168.204 40.6689 168.019 41.2074C167.834 41.7291 167.624 42.2508 167.388 42.7725L166.707 44.3122C166.488 44.8171 166.303 45.3388 166.151 45.8773C166.118 46.0287 166.059 46.1213 165.975 46.1549C165.891 46.1718 165.832 46.2391 165.798 46.3569C165.714 46.542 165.647 46.7439 165.596 46.9627C165.546 47.1815 165.478 47.3918 165.394 47.5938C165.226 48.0313 165.058 48.452 164.889 48.8559C164.721 49.2598 164.544 49.6552 164.359 50.0423V50.2947C164.359 50.3788 164.384 50.4209 164.435 50.4209C163.896 51.1614 163.535 52.0028 163.349 52.9452C163.215 53.0461 163.114 53.1723 163.047 53.3238C162.996 53.4584 162.912 53.5762 162.794 53.6772C162.676 54.1652 162.516 54.6448 162.315 55.116C162.129 55.5704 161.936 56.0247 161.734 56.4791C161.532 56.9335 161.339 57.3878 161.153 57.8422C160.968 58.3134 160.825 58.793 160.724 59.281C160.539 59.4493 160.388 59.6512 160.27 59.8868C160.169 60.1224 160.076 60.3748 159.992 60.6441C159.925 60.9133 159.858 61.1826 159.79 61.4518C159.74 61.7211 159.681 61.9651 159.614 62.1839L159.361 63.0926V63.5975C159.361 63.6816 159.353 63.7741 159.336 63.8751C159.319 63.9761 159.269 64.0434 159.184 64.0771C159.218 64.1949 159.26 64.2874 159.311 64.3547C159.378 64.422 159.395 64.5146 159.361 64.6324C159.428 64.767 159.546 64.8427 159.715 64.8596C159.9 64.8932 160.06 64.9353 160.194 64.9858C160.329 64.9521 160.405 64.8764 160.421 64.7586C160.438 64.6408 160.48 64.5398 160.548 64.4557C160.699 64.2538 160.926 64.035 161.229 63.7994C161.549 63.5638 161.885 63.3198 162.239 63.0674C162.609 62.8149 162.962 62.5709 163.299 62.3353C163.652 62.1166 163.938 61.9146 164.157 61.7295H164.612C165.217 61.3425 165.823 60.9638 166.429 60.5936C167.035 60.2402 167.666 59.9205 168.322 59.6344C168.491 59.4156 168.692 59.2473 168.928 59.1295C169.18 59.0117 169.433 58.8939 169.685 58.7762C169.955 58.6752 170.207 58.5658 170.443 58.448C170.695 58.3302 170.897 58.1619 171.048 57.9432C171.234 57.9095 171.435 57.8674 171.654 57.8169C171.873 57.7665 172.033 57.6487 172.134 57.4635H172.235C172.285 57.4635 172.336 57.472 172.386 57.4888C172.437 57.5224 172.47 57.5729 172.487 57.6402C172.605 57.6066 172.672 57.5309 172.689 57.4131C172.723 57.2953 172.782 57.1943 172.866 57.1102C173.354 56.925 173.85 56.7315 174.355 56.5296C174.86 56.3276 175.356 56.1005 175.844 55.848C176.08 55.848 176.341 55.8144 176.627 55.7471C176.93 55.6797 177.157 55.5283 177.309 55.2927C177.342 55.3095 177.384 55.3179 177.435 55.3179C177.62 55.3179 177.797 55.2927 177.965 55.2422C178.15 55.1749 178.335 55.1076 178.52 55.0403C178.705 54.9561 178.89 54.8804 179.076 54.8131C179.261 54.7458 179.454 54.7037 179.656 54.6869H179.707C179.74 54.6869 179.749 54.6448 179.732 54.5607C179.732 54.4597 179.732 54.4008 179.732 54.384C179.732 54.3167 179.765 54.2914 179.833 54.3082C179.883 54.2914 179.967 54.283 180.085 54.283C180.27 54.283 180.439 54.3251 180.59 54.4092C180.758 54.4765 180.918 54.5607 181.07 54.6616C181.221 54.7626 181.373 54.872 181.524 54.9898C181.675 55.0908 181.835 55.1665 182.004 55.217C181.97 55.3516 181.953 55.461 181.953 55.5451C181.953 55.6293 181.962 55.7134 181.978 55.7975C182.012 55.8649 182.046 55.9406 182.079 56.0247ZM201.592 56.0247C201.491 56.1594 201.365 56.2519 201.213 56.3024C201.062 56.3529 200.91 56.3949 200.759 56.4286C200.607 56.4623 200.447 56.4959 200.279 56.5296C200.128 56.5801 199.993 56.6558 199.875 56.7568C199.842 56.7736 199.816 56.7904 199.8 56.8072C199.8 56.8241 199.783 56.8325 199.749 56.8325C199.699 56.8325 199.648 56.7904 199.598 56.7063C199.564 56.639 199.505 56.5885 199.421 56.5548C198.983 56.7904 198.512 56.9924 198.007 57.1606C197.502 57.3457 196.998 57.5309 196.493 57.716C196.005 57.9179 195.525 58.1283 195.054 58.347C194.583 58.5826 194.17 58.8687 193.817 59.2053C193.548 59.2389 193.27 59.2978 192.984 59.382C192.715 59.4829 192.513 59.668 192.378 59.9373H192.303C192.235 59.9373 192.185 59.9121 192.151 59.8616C192.117 59.8279 192.067 59.8111 192 59.8111C191.882 59.8111 191.806 59.8447 191.772 59.9121C191.739 59.9794 191.714 60.0467 191.697 60.114C191.697 60.1981 191.688 60.2739 191.671 60.3412C191.655 60.4085 191.604 60.4421 191.52 60.4421C191.486 60.4421 191.453 60.4085 191.419 60.3412C191.385 60.2907 191.301 60.2739 191.167 60.2907C190.544 60.6273 189.896 60.9638 189.223 61.3004C188.55 61.6538 187.969 62.0997 187.481 62.6382C187.448 62.6046 187.406 62.5878 187.355 62.5878C187.321 62.5878 187.296 62.5878 187.279 62.5878L187.254 62.613C187.22 62.613 187.195 62.6046 187.178 62.5878C187.162 62.5709 187.145 62.5625 187.128 62.5625C186.741 62.8991 186.329 63.202 185.891 63.4712C185.47 63.7573 185.041 64.035 184.604 64.3042C184.166 64.5735 183.737 64.8427 183.316 65.112C182.896 65.3981 182.5 65.7178 182.13 66.0712C181.894 66.088 181.659 66.1385 181.423 66.2227C181.187 66.3068 180.952 66.3909 180.716 66.4751C180.498 66.5592 180.27 66.635 180.035 66.7023C179.799 66.7864 179.564 66.8285 179.328 66.8285C178.89 66.8285 178.529 66.635 178.243 66.2479C178.192 66.2816 178.142 66.3068 178.091 66.3236C178.057 66.3405 178.015 66.3489 177.965 66.3489C177.83 66.3489 177.704 66.29 177.586 66.1722C177.485 66.0712 177.342 66.0376 177.157 66.0712C176.938 65.8356 176.778 65.5327 176.677 65.1625C176.593 64.8091 176.484 64.4809 176.349 64.178C176.383 63.5217 176.492 62.8822 176.677 62.2596C176.879 61.6538 177.006 61.0227 177.056 60.3664C177.208 60.215 177.325 60.0383 177.41 59.8363C177.494 59.6512 177.569 59.4493 177.637 59.2305C177.721 59.0286 177.805 58.8266 177.889 58.6247C177.973 58.4228 178.091 58.2545 178.243 58.1198C178.343 57.615 178.512 57.1354 178.747 56.681C178.983 56.2267 179.143 55.7386 179.227 55.217C179.362 55.1328 179.471 55.0319 179.555 54.9141C179.656 54.7963 179.765 54.6869 179.883 54.5859V54.4345C179.883 54.2998 179.85 54.1989 179.782 54.1315C179.9 53.8286 180.026 53.5426 180.161 53.2733C180.312 53.0041 180.455 52.7348 180.59 52.4655C180.725 52.1963 180.842 51.9186 180.943 51.6325C181.044 51.3465 181.112 51.0351 181.145 50.6986C181.28 50.5808 181.381 50.4377 181.448 50.2695C181.516 50.0843 181.575 49.9077 181.625 49.7394C181.692 49.5543 181.76 49.386 181.827 49.2345C181.911 49.0831 182.046 48.9653 182.231 48.8811C182.214 48.8475 182.206 48.8054 182.206 48.7549C182.206 48.5866 182.248 48.4352 182.332 48.3006C182.433 48.1659 182.483 48.0229 182.483 47.8714C182.483 47.7873 182.458 47.7031 182.408 47.619C182.744 46.9122 183.072 46.2223 183.392 45.5491C183.712 44.8592 183.956 44.1271 184.124 43.353C184.292 43.2689 184.393 43.1427 184.427 42.9744C184.461 42.8061 184.536 42.6547 184.654 42.52V42.3938C184.654 42.1077 184.713 41.788 184.831 41.4346C184.965 41.0812 185.125 40.7867 185.31 40.5511C185.395 39.9621 185.487 39.3479 185.588 38.7084C185.706 38.0521 185.883 37.4547 186.118 36.9162C186.084 36.7984 186.034 36.6806 185.967 36.5628C185.916 36.445 185.874 36.3188 185.84 36.1842C185.42 36.4198 184.94 36.6301 184.402 36.8153C184.301 36.8489 184.191 36.8826 184.074 36.9162C183.956 36.9331 183.855 36.9667 183.771 37.0172C183.67 37.0508 183.611 37.135 183.594 37.2696C183.577 37.3874 183.569 37.4884 183.569 37.5725C183.367 37.5725 183.207 37.6146 183.089 37.6987C182.971 37.7829 182.853 37.8838 182.736 38.0016C182.635 38.1026 182.525 38.2036 182.408 38.3046C182.29 38.3887 182.138 38.4476 181.953 38.4813C181.751 38.6832 181.583 38.8431 181.448 38.9609C181.314 39.0618 181.12 39.1628 180.868 39.2638C180.784 39.2974 180.699 39.3647 180.615 39.4657L180.363 39.7686C180.279 39.8696 180.195 39.9537 180.11 40.021C180.043 40.0884 179.967 40.1136 179.883 40.0968C179.833 40.2482 179.757 40.3744 179.656 40.4754C179.572 40.5764 179.479 40.6773 179.378 40.7783C179.277 40.8625 179.193 40.9634 179.126 41.0812C179.059 41.199 179.033 41.3505 179.05 41.5356C178.983 41.6029 178.924 41.6366 178.874 41.6366C178.823 41.6366 178.764 41.6029 178.697 41.5356C178.663 41.7375 178.596 41.9058 178.495 42.0404C178.411 42.1582 178.31 42.2676 178.192 42.3686C178.074 42.4696 177.948 42.5705 177.813 42.6715C177.679 42.7725 177.553 42.8818 177.435 42.9996C177.283 42.9828 177.149 42.9492 177.031 42.8987C176.93 42.8482 176.821 42.7977 176.703 42.7472C176.585 42.6967 176.459 42.6631 176.324 42.6463C176.206 42.6126 176.055 42.6042 175.87 42.621C175.887 42.52 175.87 42.4443 175.819 42.3938C175.769 42.3433 175.701 42.3013 175.617 42.2676C175.617 42.133 175.617 41.9647 175.617 41.7628C175.634 41.5608 175.643 41.3589 175.643 41.1569C175.659 40.9382 175.685 40.7362 175.718 40.5511C175.752 40.366 175.802 40.2146 175.87 40.0968C175.971 39.9285 176.131 39.777 176.349 39.6424C176.585 39.5078 176.829 39.3732 177.081 39.2385C177.351 39.0871 177.603 38.9356 177.839 38.7842C178.091 38.6159 178.293 38.4139 178.444 38.1783C178.461 38.1952 178.495 38.2036 178.545 38.2036C178.68 38.2036 178.789 38.1699 178.874 38.1026C178.958 37.9512 179.067 37.8418 179.202 37.7745C179.353 37.7072 179.488 37.6062 179.606 37.4716C179.656 37.4211 179.681 37.3622 179.681 37.2949C179.698 37.2107 179.732 37.1434 179.782 37.0929C179.833 37.0424 179.925 36.992 180.06 36.9415C180.211 36.891 180.329 36.8237 180.413 36.7395C180.514 36.6554 180.59 36.5628 180.641 36.4619C180.708 36.3609 180.784 36.2683 180.868 36.1842C181.002 36.0832 181.145 36.0075 181.297 35.957C181.465 35.9065 181.625 35.8392 181.776 35.7551C181.928 35.6541 182.063 35.5363 182.18 35.4017C182.315 35.2671 182.416 35.1072 182.483 34.9221C182.82 34.7706 183.148 34.6192 183.468 34.4677C183.787 34.2994 184.099 34.1227 184.402 33.9376C184.57 33.8366 184.73 33.7273 184.881 33.6095C185.033 33.4748 185.184 33.3486 185.336 33.2308C185.504 33.113 185.672 33.0121 185.84 32.9279C186.026 32.8438 186.219 32.8017 186.421 32.8017C186.673 32.8017 186.867 32.8522 187.002 32.9532C187.136 33.0373 187.254 33.1383 187.355 33.2561C187.473 33.357 187.591 33.4664 187.708 33.5842C187.843 33.702 188.011 33.7862 188.213 33.8366C188.382 34.1059 188.491 34.4004 188.541 34.7201C188.609 35.023 188.651 35.3428 188.668 35.6793C188.684 35.9991 188.684 36.3188 188.668 36.6386C188.668 36.9583 188.693 37.2696 188.743 37.5725C188.642 37.8586 188.525 38.1363 188.39 38.4055C188.255 38.6748 188.188 38.9609 188.188 39.2638C188.188 39.3816 188.196 39.4825 188.213 39.5667H187.91C187.843 40.122 187.717 40.6689 187.532 41.2074C187.347 41.7291 187.136 42.2508 186.901 42.7725L186.219 44.3122C186 44.8171 185.815 45.3388 185.664 45.8773C185.63 46.0287 185.571 46.1213 185.487 46.1549C185.403 46.1718 185.344 46.2391 185.31 46.3569C185.226 46.542 185.159 46.7439 185.108 46.9627C185.058 47.1815 184.991 47.3918 184.907 47.5938C184.738 48.0313 184.57 48.452 184.402 48.8559C184.233 49.2598 184.057 49.6552 183.872 50.0423V50.2947C183.872 50.3788 183.897 50.4209 183.947 50.4209C183.409 51.1614 183.047 52.0028 182.862 52.9452C182.727 53.0461 182.626 53.1723 182.559 53.3238C182.508 53.4584 182.424 53.5762 182.307 53.6772C182.189 54.1652 182.029 54.6448 181.827 55.116C181.642 55.5704 181.448 56.0247 181.246 56.4791C181.044 56.9335 180.851 57.3878 180.666 57.8422C180.481 58.3134 180.338 58.793 180.237 59.281C180.052 59.4493 179.9 59.6512 179.782 59.8868C179.681 60.1224 179.589 60.3748 179.505 60.6441C179.437 60.9133 179.37 61.1826 179.303 61.4518C179.252 61.7211 179.193 61.9651 179.126 62.1839L178.874 63.0926V63.5975C178.874 63.6816 178.865 63.7741 178.848 63.8751C178.832 63.9761 178.781 64.0434 178.697 64.0771C178.731 64.1949 178.773 64.2874 178.823 64.3547C178.89 64.422 178.907 64.5146 178.874 64.6324C178.941 64.767 179.059 64.8427 179.227 64.8596C179.412 64.8932 179.572 64.9353 179.707 64.9858C179.841 64.9521 179.917 64.8764 179.934 64.7586C179.951 64.6408 179.993 64.5398 180.06 64.4557C180.211 64.2538 180.439 64.035 180.742 63.7994C181.061 63.5638 181.398 63.3198 181.751 63.0674C182.121 62.8149 182.475 62.5709 182.811 62.3353C183.165 62.1166 183.451 61.9146 183.67 61.7295H184.124C184.73 61.3425 185.336 60.9638 185.941 60.5936C186.547 60.2402 187.178 59.9205 187.835 59.6344C188.003 59.4156 188.205 59.2473 188.44 59.1295C188.693 59.0117 188.945 58.8939 189.198 58.7762C189.467 58.6752 189.719 58.5658 189.955 58.448C190.207 58.3302 190.409 58.1619 190.561 57.9432C190.746 57.9095 190.948 57.8674 191.167 57.8169C191.385 57.7665 191.545 57.6487 191.646 57.4635H191.747C191.798 57.4635 191.848 57.472 191.899 57.4888C191.949 57.5224 191.983 57.5729 192 57.6402C192.117 57.6066 192.185 57.5309 192.202 57.4131C192.235 57.2953 192.294 57.1943 192.378 57.1102C192.866 56.925 193.363 56.7315 193.868 56.5296C194.372 56.3276 194.869 56.1005 195.357 55.848C195.592 55.848 195.853 55.8144 196.139 55.7471C196.442 55.6797 196.669 55.5283 196.821 55.2927C196.855 55.3095 196.897 55.3179 196.947 55.3179C197.132 55.3179 197.309 55.2927 197.477 55.2422C197.662 55.1749 197.847 55.1076 198.033 55.0403C198.218 54.9561 198.403 54.8804 198.588 54.8131C198.773 54.7458 198.967 54.7037 199.168 54.6869H199.219C199.253 54.6869 199.261 54.6448 199.244 54.5607C199.244 54.4597 199.244 54.4008 199.244 54.384C199.244 54.3167 199.278 54.2914 199.345 54.3082C199.396 54.2914 199.48 54.283 199.598 54.283C199.783 54.283 199.951 54.3251 200.102 54.4092C200.271 54.4765 200.431 54.5607 200.582 54.6616C200.734 54.7626 200.885 54.872 201.036 54.9898C201.188 55.0908 201.348 55.1665 201.516 55.217C201.482 55.3516 201.466 55.461 201.466 55.5451C201.466 55.6293 201.474 55.7134 201.491 55.7975C201.524 55.8649 201.558 55.9406 201.592 56.0247Z" fill="white"/>
</svg>
